SplineFontDB: 3.2
FontName: Smolensky-Regular
FullName: Smolensky Regular
FamilyName: Smolensky
Weight: Regular
Copyright: Copyright 2017-2018 Aleksandr Andreev. Slavonic Computing Initiative. See http://sci.ponomar.net/ for details.
UComments: "2017-2-1: Created."
Version: 1.0
ItalicAngle: 0
UnderlinePosition: -100
UnderlineWidth: 50
Ascent: 800
Descent: 200
InvalidEm: 0
LayerCount: 3
Layer: 0 0 "Back" 1
Layer: 1 0 "Fore" 0
Layer: 2 1 "TTF" 0
XUID: [1021 187 1807321670 11892138]
FSType: 0
OS2Version: 0
OS2_WeightWidthSlopeOnly: 0
OS2_UseTypoMetrics: 1
CreationTime: 1485932044
ModificationTime: 1615191357
PfmFamily: 17
TTFWeight: 400
TTFWidth: 5
LineGap: 90
VLineGap: 0
OS2TypoAscent: 800
OS2TypoAOffset: 0
OS2TypoDescent: -200
OS2TypoDOffset: 0
OS2TypoLinegap: 90
OS2WinAscent: 0
OS2WinAOffset: 1
OS2WinDescent: 0
OS2WinDOffset: 1
HheadAscent: 17
HheadAOffset: 1
HheadDescent: -200
HheadDOffset: 0
OS2Vendor: 'SCIN'
Lookup: 4 0 0 "'ccmp' Znamenny Ligatures" { "'ccmp' Znamenny Ligatures 0-1"  } ['ccmp' ('DFLT' <'dflt' > 'latn' <'dflt' > ) ]
Lookup: 260 0 0 "'mark' Mark Positioning" { "'mark' Mark Positioning-1"  } ['mark' ('DFLT' <'dflt' > 'latn' <'dflt' > ) ]
Lookup: 262 0 0 "'mkmk' Mark to Mark Positioning" { "'mkmk' Mark to Mark Positioning-1"  } ['mkmk' ('DFLT' <'dflt' > 'latn' <'dflt' > ) ]
MarkAttachClasses: 1
DEI: 91125
TtTable: prep
PUSHW_1
 511
SCANCTRL
PUSHB_1
 1
SCANTYPE
SVTCA[y-axis]
MPPEM
PUSHB_1
 8
LT
IF
PUSHB_2
 1
 1
INSTCTRL
EIF
PUSHB_2
 70
 6
CALL
IF
POP
PUSHB_1
 16
EIF
MPPEM
PUSHB_1
 20
GT
IF
POP
PUSHB_1
 128
EIF
SCVTCI
PUSHB_1
 6
CALL
NOT
IF
EIF
PUSHB_1
 20
CALL
EndTTInstrs
TtTable: fpgm
PUSHB_1
 0
FDEF
PUSHB_1
 0
SZP0
MPPEM
PUSHB_1
 42
LT
IF
PUSHB_1
 74
SROUND
EIF
PUSHB_1
 0
SWAP
MIAP[rnd]
RTG
PUSHB_1
 6
CALL
IF
RTDG
EIF
MPPEM
PUSHB_1
 42
LT
IF
RDTG
EIF
DUP
MDRP[rp0,rnd,grey]
PUSHB_1
 1
SZP0
MDAP[no-rnd]
RTG
ENDF
PUSHB_1
 1
FDEF
DUP
MDRP[rp0,min,white]
PUSHB_1
 12
CALL
ENDF
PUSHB_1
 2
FDEF
MPPEM
GT
IF
RCVT
SWAP
EIF
POP
ENDF
PUSHB_1
 3
FDEF

StartChar: uniEE73
Encoding: 61043 61043 0
Width: 975
VWidth: 0
Flags: W
HStem: 22 42<130.813 266.866> 143 42<731.656 858> 206 20G<409 494.5>
VStem: 20 101<74.0303 167.23>
DStem2: 336 139 269 71 0.425272 -0.905066<-52.2103 32.3369>
LayerCount: 3
Fore
SplineSet
474 226 m 1
 490 194 513 147 527 127 c 1
 598 148 777 185 879 185 c 0
 925 185 955 178 955 161 c 0
 955 159 955 157 955 155 c 0
 955 130 942 122 925 122 c 0
 897 122 858 143 858 143 c 1
 751 143 378 22 161 22 c 1
 77 22 20 41 20 96 c 1
 20 166 68 206 119 206 c 0
 131 206 135 201 135 192 c 0
 135 173 121 141 121 113 c 0
 121 87 135 64 189 64 c 0
 210 64 237 66 269 71 c 1
 230 154 l 1
 272 171 276 170 309 184 c 1
 328 161 334 138 362 90 c 1
 388 96 416 103 446 110 c 1
 432 138 l 2
 420 161 416 183 409 206 c 1
 474 226 l 1
EndSplineSet
Validated: 1
Layer: 2
SplineSet
230 154 m 1,0,-1
 309 184 l 1,1,2
 321 169 321 169 336 139 c 128,-1,3
 351 109 351 109 362 90 c 1,4,5
 375 93 375 93 403.5 100 c 128,-1,6
 432 107 432 107 446 110 c 1,7,-1
 432 138 l 2,8,9
 426 149 426 149 409 206 c 1,10,-1
 474 226 l 1,11,12
 515 145 515 145 527 127 c 1,13,14
 591 146 591 146 700 165.5 c 128,-1,15
 809 185 809 185 882 185 c 128,-1,16
 955 185 955 185 955 161 c 2,17,-1
 955 155 l 2,18,19
 955 122 955 122 925 122 c 0,20,21
 898 122 898 122 868 138 c 2,22,-1
 858 143 l 1,23,24
 816 143 816 143 686 112 c 0,25,26
 302 22 302 22 161 22 c 128,-1,27
 20 22 20 22 20 96 c 0,28,29
 20 146 20 146 49.5 176 c 128,-1,30
 79 206 79 206 119 206 c 0,31,32
 135 206 135 206 135 192 c 0,33,34
 135 184 135 184 128 156 c 128,-1,35
 121 128 121 128 121 113 c 0,36,37
 121 64 121 64 189 64 c 0,38,39
 224 64 224 64 269 71 c 1,40,-1
 230 154 l 1,0,-1
EndSplineSet
Validated: 1
Colour: ffff00
EndChar

StartChar: uniEE70
Encoding: 61040 61040 1
Width: 1147
VWidth: 0
Flags: W
HStem: 20 21G<139.5 154.5> 303 62<979.734 1120.81>
DStem2: 161 92 176 24.5 0.954302 0.298844<0 230.644 868.361 982.044>
AnchorPoint: "Right" 1165.52 340.04 basechar 0
AnchorPoint: "Podchashie" 667 53 basechar 0 {} {150-150 6}
AnchorPoint: "Tonal" 526.72 253.32 basechar 0
LayerCount: 3
Fore
SplineSet
20 150 m 1
 40 155 61 159 78 159 c 0
 105 159 130 152 144 129 c 0
 152 113 161 92 161 92 c 25
 1020 361 l 18
 1029 365 1057 365 1078 365 c 0
 1085 365 1090 365 1096 365 c 0
 1111 365 1127 365 1127 344 c 0
 1127 343 1127 341 1127 340 c 1
 1127 338 1127 336 1127 334 c 0
 1127 305 1114 303 1105 303 c 0
 1098 303 1092 303 1085 303 c 24
 1055 303 1045 301 1008 293 c 1
 805 229 554 155 195 30 c 8
 179 27 170 20 152 20 c 27
 107 20 34 136 20 150 c 1
EndSplineSet
Validated: 1
Layer: 2
SplineSet
1127 344 m 2,0,-1
 1127 334 l 2,1,2
 1127 303 1127 303 1105 303 c 2,3,-1
 1085 303 l 2,4,5
 1054 303 1054 303 1008 293 c 1,6,7
 462 124 462 124 195 30 c 0,8,9
 190 29 190 29 176 24.5 c 128,-1,10
 162 20 162 20 147 20 c 128,-1,11
 132 20 132 20 103.5 48 c 128,-1,12
 75 76 75 76 48 112.5 c 128,-1,13
 21 149 21 149 20 150 c 1,14,15
 56 159 56 159 78 159 c 0,16,17
 126 159 126 159 144 129 c 1,18,-1
 161 92 l 1,19,-1
 1020 361 l 1,20,21
 1029 365 1029 365 1078 365 c 2,22,-1
 1096 365 l 2,23,24
 1115 365 1115 365 1121 359.5 c 128,-1,25
 1127 354 1127 354 1127 344 c 2,0,-1
EndSplineSet
Validated: 1
Colour: ffff00
EndChar

StartChar: uniEE7B
Encoding: 61051 61051 2
Width: 604
VWidth: 0
Flags: W
HStem: 21 21G<132 156> 54 55<281.866 347.051> 120 63<76.1909 121.863> 160.5 45.5<505.708 580.81>
VStem: 122 106<76.4585 119.944>
DStem2: 448 174 386 149 0.587892 -0.808939<-102.88 -16.2258 54.4059 137.238>
LayerCount: 3
Fore
SplineSet
138 21 m 0xe8
 118 21 92 33 92 64 c 0
 92 75 105 77 117 91 c 0
 121 95 122 98 122 101 c 0
 122 109 111 120 102 120 c 0
 99 119 85 109 73 109 c 0
 71 109 70 109 68 110 c 0
 45 119 40 135 20 151 c 1
 20 153 l 2
 20 174 57 183 93 183 c 0
 163 183 228 140 228 86 c 1
 228 49 174 21 138 21 c 0xe8
308 54 m 0
 292 54 281 64 281 81 c 0
 281 93 290 102 302 109 c 0
 334 125 360 137 386 149 c 1
 339 214 l 2
 337 216 337 220 337 221 c 0
 337 237 360 251 378 251 c 0
 386 251 394 250 399 242 c 2
 448 174 l 1
 466 181 522 206 552 206 c 0
 570 206 584 184 584 170 c 0
 584 167 582 163 577 162 c 0xd8
 547 154 515 142 480 130 c 1
 522 70 l 2
 524 66 526 63 526 61 c 0
 526 45 504 31 487 31 c 0
 478 31 469 35 464 42 c 2
 420 103 l 1
 397 93 376 82 351 70 c 0
 340 65 326 54 308 54 c 0
EndSplineSet
Validated: 1
Layer: 2
SplineSet
102 120 m 1,0,1
 82 109 82 109 76 109 c 128,-1,2
 70 109 70 109 62.5 112 c 128,-1,3
 55 115 55 115 40 131 c 128,-1,4
 25 147 25 147 20 151 c 1,5,-1
 20 153 l 2,6,7
 20 168 20 168 41.5 175.5 c 128,-1,8
 63 183 63 183 93 183 c 0,9,10
 146 183 146 183 187 154.5 c 128,-1,11
 228 126 228 126 228 86 c 0,12,13
 228 60 228 60 198 40.5 c 128,-1,14
 168 21 168 21 144 21 c 128,-1,15
 120 21 120 21 106 32 c 128,-1,16
 92 43 92 43 92 64 c 0,17,18
 92 71 92 71 107 82 c 0,19,20
 122 94 122 94 122 100.5 c 128,-1,21
 122 107 122 107 115.5 113.5 c 128,-1,22
 109 120 109 120 102 120 c 1,0,1
308 54 m 0,23,24
 281 54 281 54 281 81 c 0,25,26
 281 97 281 97 302 109 c 1,27,28
 334 125 334 125 386 149 c 1,29,-1
 339 214 l 2,30,31
 337 216 337 216 337 224.5 c 128,-1,32
 337 233 337 233 350.5 242 c 128,-1,33
 364 251 364 251 378.5 251 c 128,-1,34
 393 251 393 251 399 242 c 2,35,-1
 448 174 l 1,36,37
 530 206 530 206 547.5 206 c 128,-1,38
 565 206 565 206 574.5 194 c 128,-1,39
 584 182 584 182 584 172.5 c 128,-1,40
 584 163 584 163 572 160.5 c 128,-1,41
 560 158 560 158 480 130 c 1,42,-1
 522 70 l 1,43,44
 526 62 526 62 526 61 c 0,45,46
 526 49 526 49 513 40 c 128,-1,47
 500 31 500 31 486 31 c 128,-1,48
 472 31 472 31 464 42 c 2,49,-1
 420 103 l 1,50,51
 417 102 417 102 383 85.5 c 128,-1,52
 349 69 349 69 335.5 61.5 c 128,-1,53
 322 54 322 54 308 54 c 0,23,24
EndSplineSet
Validated: 1
Colour: ffff00
EndChar

StartChar: uniEE81
Encoding: 61057 61057 3
Width: 398
VWidth: 0
Flags: W
HStem: 22 67<159.506 276.287> 256 85<135.781 211.046>
VStem: 122 104<270.062 328.109> 293 85<115.379 192.106>
LayerCount: 3
Fore
SplineSet
226 288 m 0
 226 268 200 256 181 256 c 0
 149 256 122 286 122 311 c 0
 122 330 144 341 165 341 c 0
 195 341 226 319 226 288 c 0
337 205 m 27
 360 205 378 187 378 161 c 0
 378 121 376 99 348 68 c 8
 314 31 277 22 226 22 c 19
 145 22 100 52 59 96 c 8
 36 121 20 143 20 170 c 0
 20 187 42 200 61 200 c 0
 68 200 75 198 80 194 c 8
 114 173 115 142 147 119 c 24
 172 99 189 89 221 89 c 27
 246 89 265 96 281 115 c 24
 300 140 286 166 304 193 c 24
 311 205 323 205 337 205 c 27
EndSplineSet
Validated: 1
Layer: 2
SplineSet
122 308 m 0,0,1
 122 341 122 341 168 341 c 0,2,3
 189 341 189 341 207.5 325.5 c 128,-1,4
 226 310 226 310 226 292 c 128,-1,5
 226 274 226 274 211.5 265 c 128,-1,6
 197 256 197 256 177.5 256 c 128,-1,7
 158 256 158 256 140 273.5 c 128,-1,8
 122 291 122 291 122 308 c 0,0,1
332 205 m 27,9,10
 378 205 378 205 378 154 c 0,11,12
 378 127 378 127 373 108.5 c 128,-1,13
 368 90 368 90 348 68 c 0,14,15
 306 22 306 22 226 22 c 0,16,17
 169 22 169 22 131 40.5 c 128,-1,18
 93 59 93 59 56.5 98.5 c 128,-1,19
 20 138 20 138 20 170 c 0,20,21
 20 182 20 182 33 191 c 128,-1,22
 46 200 46 200 59 200 c 0,23,24
 87 200 87 200 115 156 c 0,25,26
 132 130 132 130 147 119 c 0,27,28
 188 89 188 89 222 89 c 0,29,30
 255 89 255 89 281 115 c 0,31,32
 293 127 293 127 293 154 c 0,33,34
 293 180 293 180 302 192.5 c 128,-1,35
 311 205 311 205 332 205 c 27,9,10
EndSplineSet
Validated: 1
Colour: ffff00
EndChar

StartChar: uniEE87
Encoding: 61063 61063 4
Width: 417
VWidth: 0
Flags: W
HStem: 22 248<184 233>
DStem2: 130 212 130.5 74.5 0.633484 -0.773756<-84.7962 189.046>
AnchorPoint: "Tonal" 136.56 331.48 basechar 0
AnchorPoint: "Podchashie" 302 -15.2402 basechar 0
AnchorPoint: "Right" 372.6 211.8 basechar 0
LayerCount: 3
Fore
SplineSet
184 245 m 0
 184 265 209 270 226 270 c 0
 242 270 251 265 262 252 c 0
 276 238 397 124 397 71 c 0
 397 53 386 48 374 48 c 0
 358 48 341 55 332 64 c 8
 272 115 246 154 198 217 c 16
 191 226 184 235 184 245 c 0
20 240 m 0
 20 258 43 265 57 265 c 0
 84 265 93 259 105 243 c 16
 119 224 233 101 233 46 c 0
 233 31 219 22 203 22 c 0
 188 22 174 31 161 43 c 8
 101 101 78 143 33 212 c 16
 27 222 20 231 20 240 c 0
EndSplineSet
Validated: 1
Layer: 2
SplineSet
184 245 m 0,0,1
 184 270 184 270 226 270 c 0,2,3
 247 270 247 270 262 252 c 1,4,5
 397 117 397 117 397 71 c 0,6,7
 397 48 397 48 372.5 48 c 128,-1,8
 348 48 348 48 332 64 c 1,9,10
 317 76 317 76 304 89.5 c 128,-1,11
 291 103 291 103 282 112 c 128,-1,12
 273 121 273 121 260 137 c 128,-1,13
 247 153 247 153 241.5 160 c 128,-1,14
 236 167 236 167 220 188.5 c 128,-1,15
 204 210 204 210 194 222.5 c 128,-1,16
 184 235 184 235 184 245 c 0,0,1
56.5 175.5 m 128,-1,18
 37 206 37 206 28.5 220 c 128,-1,19
 20 234 20 234 20 243 c 128,-1,20
 20 252 20 252 32 258.5 c 128,-1,21
 44 265 44 265 60 265 c 0,22,23
 88 265 88 265 105 243 c 0,24,25
 108 239 108 239 130 212 c 0,26,27
 154 184 154 184 175 157.5 c 128,-1,28
 196 131 196 131 214.5 98 c 128,-1,29
 233 65 233 65 233 50 c 0,30,31
 233 22 233 22 203 22 c 0,32,33
 184 22 184 22 164 41 c 128,-1,34
 144 60 144 60 130.5 74.5 c 128,-1,35
 117 89 117 89 102 109.5 c 128,-1,36
 87 130 87 130 81.5 137.5 c 128,-1,17
 76 145 76 145 56.5 175.5 c 128,-1,18
EndSplineSet
Validated: 1
Colour: ffff00
EndChar

StartChar: uniEE72
Encoding: 61042 61042 5
Width: 711
VWidth: 0
Flags: W
HStem: 22 21G<35.5 66.5> 166 88<504.181 688.986>
VStem: 98 88<451.105 491.656>
LayerCount: 3
Fore
SplineSet
121 492 m 10
 174 492 l 25
 174 492 186 481 186 471 c 3
 186 451 203 450 218 450 c 0
 220 450 222 450 225 450 c 3
 262 450 254 464 286 464 c 1
 307 467 327 469 346 469 c 0
 362 469 378 467 394 464 c 9
 172 159 l 25
 172 147 172 138 172 126 c 1
 174 126 l 2
 182 126 249 157 300 180 c 1
 408 207 483 228 575 254 c 1
 677 254 l 2
 678 254 678 254 679 254 c 0
 688 254 691 243 691 230 c 2
 691 217 l 2
 691 209 691 198 689 187 c 1
 689 170 663 166 631 166 c 2
 545 166 l 1
 455 147 272 108 182 82 c 0
 161 77 100 22 56 22 c 0
 42 22 20 24 20 48 c 0
 20 59 31 92 50 117 c 1
 117 226 156 288 207 377 c 1
 144 386 133 429 100 473 c 16
 98 474 98 475 98 477 c 0
 98 484 112 492 121 492 c 10
EndSplineSet
Validated: 1
Layer: 2
SplineSet
121 492 m 10,0,-1
 174 492 l 1,1,2
 186 481 186 481 186 471 c 0,3,4
 186 450 186 450 218 450 c 2,5,6
 225 450 l 2,7,8
 244 450 244 450 257.5 457 c 128,-1,9
 271 464 271 464 286 464 c 1,10,11
 321 469 321 469 344 469 c 128,-1,12
 367 469 367 469 394 464 c 1,13,-1
 172 159 l 1,14,-1
 172 126 l 1,15,-1
 174 126 l 2,16,17
 180 126 180 126 300 180 c 1,18,19
 414 208 414 208 575 254 c 1,20,-1
 679 254 l 2,21,22
 691 254 691 254 691 230 c 2,23,-1
 691 217 l 2,24,25
 691 198 691 198 689 187 c 1,26,27
 689 166 689 166 631 166 c 2,28,-1
 545 166 l 1,29,30
 277 109 277 109 182 82 c 0,31,32
 178 81 178 81 130 51.5 c 128,-1,33
 82 22 82 22 51 22 c 128,-1,34
 20 22 20 22 20 48 c 0,35,36
 20 58 20 58 28.5 79 c 128,-1,37
 37 100 37 100 50 117 c 1,38,39
 168 309 168 309 207 377 c 1,40,41
 164 384 164 384 143 410 c 0,42,43
 136 419 136 419 121 442 c 0,44,45
 105 465 105 465 102 468 c 0,46,47
 98 475 98 475 98 478 c 0,48,49
 98 482 98 482 106 487 c 128,-1,50
 114 492 114 492 121 492 c 10,0,-1
EndSplineSet
Validated: 1
Colour: ffff00
EndChar

StartChar: uniEE7A
Encoding: 61050 61050 6
Width: 249
VWidth: 0
Flags: W
HStem: 22 21G<132 156> 120 64<77.1599 121.863>
VStem: 123 105<77.4779 119.899>
LayerCount: 3
Fore
SplineSet
138 22 m 4
 118 22 92 34 92 65 c 4
 92 76 105 78 119 92 c 4
 122 95 123 98 123 101 c 4
 123 110 112 120 102 120 c 4
 100 119 87 110 76 110 c 4
 74 110 72 110 70 111 c 12
 47 119 40 134 20 150 c 21
 20 152 l 6
 20 175 57 184 93 184 c 4
 163 184 228 141 228 87 c 5
 228 50 174 22 138 22 c 4
EndSplineSet
Validated: 1
Layer: 2
SplineSet
198 41.5 m 128,-1,1
 168 22 168 22 144 22 c 128,-1,2
 120 22 120 22 106 33 c 128,-1,3
 92 44 92 44 92 65 c 0,4,5
 92 72 92 72 108 82 c 0,6,7
 123 93 123 93 123 100.5 c 128,-1,8
 123 108 123 108 116 114 c 128,-1,9
 109 120 109 120 102 120 c 1,10,11
 82 110 82 110 77 110 c 128,-1,12
 72 110 72 110 66 112.5 c 128,-1,13
 60 115 60 115 52.5 120.5 c 128,-1,14
 45 126 45 126 36 135.5 c 128,-1,15
 27 145 27 145 20 150 c 1,16,-1
 20 152 l 2,17,18
 20 184 20 184 93 184 c 0,19,20
 146 184 146 184 187 155.5 c 128,-1,21
 228 127 228 127 228 87 c 0,22,0
 228 61 228 61 198 41.5 c 128,-1,1
EndSplineSet
Validated: 1
Colour: ffff00
EndChar

StartChar: uniEE75
Encoding: 61045 61045 7
Width: 305
VWidth: 0
Flags: W
HStem: 22 98<157.088 223.988>
VStem: 20 264
LayerCount: 3
Fore
SplineSet
131 90 m 9
 177 101 200 120 249 120 c 0
 269 120 284 113 284 85 c 0
 284 60 181 22 112 22 c 0
 84 22 63 29 56 45 c 0
 42 83 26 126 20 170 c 1
 49 187 77 192 89 192 c 0
 122 192 115 152 131 90 c 9
EndSplineSet
Validated: 1
Layer: 2
SplineSet
131 90 m 9,0,1
 140 92 140 92 180 106 c 128,-1,2
 220 120 220 120 249 120 c 0,3,4
 284 120 284 120 284 85 c 0,5,6
 284 66 284 66 224 44 c 128,-1,7
 164 22 164 22 115 22 c 128,-1,8
 66 22 66 22 56 45 c 1,9,10
 26 127 26 127 20 170 c 1,11,12
 58 192 58 192 89 192 c 0,13,14
 113 192 113 192 118.5 155 c 128,-1,15
 124 118 124 118 131 90 c 9,0,1
EndSplineSet
Validated: 1
Colour: ffff00
EndChar

StartChar: uniEE78
Encoding: 61048 61048 8
Width: 426
VWidth: 0
Flags: W
HStem: 21 21G<365 385.5>
DStem2: 93 433 43 359 0.618774 -0.785569<-21.1807 421.253>
LayerCount: 3
Fore
SplineSet
20 403 m 0
 20 426 45 441 71 441 c 0
 78 441 86 440 93 433 c 0
 209 285 272 204 406 74 c 0
 409 68 411 63 411 58 c 0
 411 42 397 24 379 21 c 1
 334 22 332 33 311 54 c 1
 202 149 145 232 43 359 c 0
 31 373 20 383 20 403 c 0
EndSplineSet
Validated: 1
Layer: 2
SplineSet
20 403 m 128,-1,1
 20 420 20 420 35.5 430.5 c 128,-1,2
 51 441 51 441 68 441 c 128,-1,3
 85 441 85 441 93 433 c 1,4,5
 166 340 166 340 200 298 c 0,6,7
 290 186 290 186 406 74 c 1,8,9
 411 64 411 64 411 55 c 128,-1,10
 411 46 411 46 401.5 34.5 c 128,-1,11
 392 23 392 23 379 21 c 1,12,13
 351 21 351 21 342.5 26.5 c 128,-1,14
 334 32 334 32 331.5 33.5 c 128,-1,15
 329 35 329 35 321.5 43 c 128,-1,16
 314 51 314 51 293 69.5 c 128,-1,17
 272 88 272 88 234 128.5 c 128,-1,18
 196 169 196 169 177 191 c 128,-1,19
 158 213 158 213 43 359 c 1,20,0
 20 386 20 386 20 403 c 128,-1,1
EndSplineSet
Validated: 1
Colour: ffff00
EndChar

StartChar: uniEE7C
Encoding: 61052 61052 9
Width: 468
VWidth: 0
Flags: W
HStem: 11 94<339.987 427.405> 22 21G<131.75 155.25> 122 62<74.1604 119.735> 168 88<262.509 345.496>
VStem: 121 106<78.8606 121.986> 247 114<184.473 239.497> 324 123<23.7798 90.4651>
LayerCount: 3
Fore
SplineSet
447 57 m 0x8a
 447 22 412 11 384 11 c 0
 349 11 324 39 324 64 c 0
 324 87 345 105 382 105 c 0
 412 105 447 82 447 57 c 0x8a
293 256 m 0x1c
 326 256 361 230 361 203 c 0
 361 178 338 168 315 168 c 0
 280 168 247 196 247 222 c 0
 247 238 263 256 293 256 c 0x1c
137 22 m 0x68
 117 22 91 35 91 66 c 0
 91 77 104 79 116 92 c 0
 120 96 121 100 121 103 c 0
 121 110 111 122 101 122 c 0
 99 121 85 111 73 111 c 0
 71 111 69 111 67 112 c 0
 44 121 39 136 19 152 c 1
 19 154 l 2
 19 175 56 184 92 184 c 0
 162 184 227 142 227 87 c 1
 227 50 173 22 137 22 c 0x68
EndSplineSet
Validated: 1
Layer: 2
SplineSet
426 90 m 128,-1,1
 447 75 447 75 447 54 c 128,-1,2
 447 33 447 33 428 22 c 128,-1,3
 409 11 409 11 384 11 c 128,-1,4
 359 11 359 11 341.5 27.5 c 128,-1,5
 324 44 324 44 324 63 c 128,-1,6
 324 82 324 82 339.5 93.5 c 128,-1,7
 355 105 355 105 380 105 c 128,-1,0
 405 105 405 105 426 90 c 128,-1,1
361 204 m 0,8,9
 361 168 361 168 312 168 c 0,10,11
 289 168 289 168 268 185 c 128,-1,12
 247 202 247 202 247 218.5 c 128,-1,13
 247 235 247 235 259.5 245.5 c 128,-1,14
 272 256 272 256 295 256 c 128,-1,15
 318 256 318 256 339.5 239.5 c 128,-1,16
 361 223 361 223 361 204 c 0,8,9
197 41.5 m 128,-1,18
 167 22 167 22 143.5 22 c 128,-1,19
 120 22 120 22 105.5 33.5 c 128,-1,20
 91 45 91 45 91 66 c 0,21,22
 91 73 91 73 101 80 c 128,-1,23
 111 87 111 87 116 92 c 128,-1,24
 121 97 121 97 121 103 c 128,-1,25
 121 109 121 109 114.5 115.5 c 128,-1,26
 108 122 108 122 101 122 c 1,27,28
 79 111 79 111 74 111 c 128,-1,29
 69 111 69 111 61.5 114 c 128,-1,30
 54 117 54 117 39 132.5 c 128,-1,31
 24 148 24 148 19 152 c 1,32,-1
 19 154 l 2,33,34
 19 169 19 169 40.5 176.5 c 128,-1,35
 62 184 62 184 92 184 c 0,36,37
 146 184 146 184 186.5 155.5 c 128,-1,38
 227 127 227 127 227 87 c 0,39,17
 227 61 227 61 197 41.5 c 128,-1,18
EndSplineSet
Validated: 1
Colour: ffff00
EndChar

StartChar: uniEE80
Encoding: 61056 61056 10
Width: 398
VWidth: 0
Flags: W
HStem: 22 67<159.242 276.457>
VStem: 293 85<115.409 199.922>
LayerCount: 3
Fore
SplineSet
337 205 m 27
 360 205 378 187 378 161 c 0
 378 120 376 99 348 67 c 9
 314 31 277 22 226 22 c 19
 145 22 100 52 59 96 c 8
 36 120 20 143 20 170 c 0
 20 187 42 199 61 199 c 0
 68 199 75 198 80 194 c 8
 114 173 115 141 147 119 c 25
 172 99 189 89 221 89 c 27
 246 89 265 96 281 115 c 25
 300 140 286 166 304 192 c 25
 311 205 323 205 337 205 c 27
EndSplineSet
Validated: 1
Layer: 2
SplineSet
332 205 m 27,0,1
 378 205 378 205 378 154 c 0,2,3
 378 127 378 127 373 108 c 128,-1,4
 368 89 368 89 348 67 c 0,5,6
 306 22 306 22 226 22 c 0,7,8
 169 22 169 22 131 40.5 c 128,-1,9
 93 59 93 59 56.5 98 c 128,-1,10
 20 137 20 137 20 170 c 0,11,12
 20 182 20 182 33 190.5 c 128,-1,13
 46 199 46 199 60 199 c 128,-1,14
 74 199 74 199 80 194 c 1,15,16
 98 183 98 183 115 156 c 0,17,18
 130 132 130 132 147 119 c 0,19,20
 186 89 186 89 222 89 c 0,21,22
 257 89 257 89 281 115 c 0,23,24
 293 128 293 128 293 153.5 c 128,-1,25
 293 179 293 179 304 192 c 1,26,27
 311 205 311 205 332 205 c 27,0,1
EndSplineSet
Validated: 1
Colour: ffff00
EndChar

StartChar: uniEE84
Encoding: 61060 61060 11
Width: 636
VWidth: 0
Flags: W
HStem: 21 74<160.722 242.171> 61 76<345.908 427.808> 119 35<20.1196 50>
VStem: 152 101<26.3623 71.8706> 341 91<66.4355 131.576>
DStem2: 153 196 50 119 0.965768 0.259408<-124.277 346.789>
AnchorPoint: "Tonal" 238.64 272.4 basechar 0
AnchorPoint: "Podchashie" 316.08 8.40039 basechar 0 {} {150-150 -2}
AnchorPoint: "Right" 664.56 302.32 basechar 0
LayerCount: 3
Fore
SplineSet
341 107 m 0x70
 341 130 360 137 379 137 c 0x70
 409 137 432 126 432 95 c 0xb0
 432 68 409 61 390 61 c 0
 360 61 341 75 341 107 c 0x70
253 59 m 0
 253 31 225 21 198 21 c 0
 188 21 165 21 152 40 c 0
 152 42 152 44 152 46 c 0
 152 55 153 69 158 72 c 0
 177 82 198 95 219 95 c 0xb0
 235 95 253 84 253 59 c 0
587 306 m 0
 605 306 615 294 615 288 c 0
 615 281 610 274 601 267 c 1
 394 214 443 227 290 184 c 8
 205 160 133 139 50 119 c 1
 45 119 l 2
 33 119 20 128 20 140 c 0
 20 147 34 160 42 162 c 8
 135 193 235 220 281 234 c 0
 304 241 518 306 587 306 c 0
EndSplineSet
Validated: 1
Layer: 2
SplineSet
341 107 m 0,0,1
 341 137 341 137 379 137 c 0,2,3
 432 137 432 137 432 95 c 0,4,5
 432 61 432 61 390 61 c 0,6,7
 341 61 341 61 341 107 c 0,0,1
253 59 m 0,8,9
 253 21 253 21 198 21 c 0,10,11
 165 21 165 21 152 40 c 1,12,13
 152 46 l 2,14,15
 152 68 152 68 158 72 c 0,16,17
 202 95 202 95 217 95 c 128,-1,18
 232 95 232 95 242.5 85.5 c 128,-1,19
 253 76 253 76 253 59 c 0,8,9
587 306 m 0,20,21
 599 306 599 306 607 300 c 128,-1,22
 615 294 615 294 615 286 c 128,-1,23
 615 278 615 278 601 267 c 1,24,25
 425 222 425 222 271 178.5 c 128,-1,26
 117 135 117 135 50 119 c 1,27,-1
 45 119 l 2,28,29
 36 119 36 119 28 125 c 128,-1,30
 20 131 20 131 20 138 c 128,-1,31
 20 145 20 145 30 154 c 128,-1,32
 40 163 40 163 153 196 c 0,33,34
 265 229 265 229 281 234 c 0,35,36
 511 306 511 306 587 306 c 0,20,21
EndSplineSet
Validated: 1
Colour: ffff00
EndChar

StartChar: uniEE7E
Encoding: 61054 61054 12
Width: 797
VWidth: 0
Flags: W
HStem: 22 21G<717.75 737.25> 221 62<102 121.705> 269 52<323 338.928>
VStem: 122 106<177.861 220.743> 340 85<229.826 268.98>
DStem2: 659 245 546 257 0.561947 -0.827173<-214.643 221.774>
AnchorPoint: "Tonal" 233.64 369.2 basechar 0
AnchorPoint: "Podchashie" 374.44 21.5996 basechar 0
AnchorPoint: "Right" 734.04 285.72 basechar 0
LayerCount: 3
Fore
SplineSet
454 368 m 1x98
 451 374 449 379 449 384 c 0
 449 404 477 421 500 421 c 0
 511 421 519 418 526 407 c 1
 634 282 679 226 771 75 c 0
 775 69 776 64 776 59 c 0
 776 39 752 22 729 22 c 0
 718 22 706 25 699 36 c 0
 540 272 514 302 454 368 c 1x98
353 189 m 0
 336 189 316 200 316 224 c 0
 316 233 326 234 337 247 c 0
 339 249 340 252 340 254 c 0
 340 262 331 269 323 269 c 0
 315 269 308 261 300 261 c 0
 299 261 298 261 297 261 c 0
 277 268 272 280 258 295 c 1
 258 296 l 2
 258 314 286 321 316 321 c 0xb8
 372 321 422 286 425 242 c 1
 425 212 381 189 353 189 c 0
122 202 m 0
 122 209 112 221 102 221 c 0
 92 221 83 210 73 210 c 0
 71 210 70 210 68 211 c 0
 45 220 40 235 21 251 c 1
 21 253 l 2
 21 274 58 283 93 283 c 0xd8
 163 283 223 241 228 186 c 1
 228 149 174 121 139 121 c 0
 118 121 92 134 92 165 c 0
 92 176 105 178 117 191 c 0
 121 195 122 199 122 202 c 0
EndSplineSet
Validated: 1
Layer: 2
SplineSet
454 368 m 1,0,1
 449 378 449 378 449 388 c 128,-1,2
 449 398 449 398 465.5 409.5 c 128,-1,3
 482 421 482 421 499.5 421 c 128,-1,4
 517 421 517 421 526 407 c 1,5,6
 613 307 613 307 659 245 c 128,-1,7
 705 183 705 183 771 75 c 0,8,9
 776 68 776 68 776 56 c 128,-1,10
 776 44 776 44 761.5 33 c 128,-1,11
 747 22 747 22 727.5 22 c 128,-1,12
 708 22 708 22 699 36 c 0,13,14
 588 201 588 201 546 257 c 128,-1,15
 504 313 504 313 454 368 c 1,0,1
297 261 m 1,16,17
 276 268 276 268 258 295 c 1,18,-1
 258 296 l 2,19,20
 258 321 258 321 308 321 c 128,-1,21
 358 321 358 321 390.5 298 c 128,-1,22
 423 275 423 275 425 242 c 1,23,24
 425 221 425 221 400.5 205 c 128,-1,25
 376 189 376 189 357.5 189 c 128,-1,26
 339 189 339 189 327.5 198 c 128,-1,27
 316 207 316 207 316 218 c 128,-1,28
 316 229 316 229 320 232 c 0,29,30
 340 247 340 247 340 254 c 0,31,32
 340 260 340 260 334.5 264.5 c 128,-1,33
 329 269 329 269 323 269 c 1,34,-1
 300 261 l 1,35,-1
 297 261 l 1,16,17
102 221 m 1,36,-1
 73 210 l 1,37,38
 59 210 59 210 36 236 c 0,39,40
 28 245 28 245 21 251 c 1,41,-1
 21 253 l 2,42,43
 21 268 21 268 42.5 275.5 c 128,-1,44
 64 283 64 283 93 283 c 0,45,46
 146 283 146 283 185 255 c 128,-1,47
 224 227 224 227 228 186 c 1,48,49
 228 160 228 160 198 140.5 c 128,-1,50
 168 121 168 121 144.5 121 c 128,-1,51
 121 121 121 121 106.5 132.5 c 128,-1,52
 92 144 92 144 92 165 c 0,53,54
 92 172 92 172 102 179 c 128,-1,55
 112 186 112 186 117 191 c 128,-1,56
 122 196 122 196 122 202 c 128,-1,57
 122 208 122 208 115.5 214.5 c 128,-1,58
 109 221 109 221 102 221 c 1,36,-1
EndSplineSet
Validated: 1
Colour: ffff00
EndChar

StartChar: uniEE89
Encoding: 61065 61065 13
Width: 358
VWidth: 0
Flags: W
HStem: 21 21G<184.5 213> 57 47<22.5292 72.1481> 95 63<223 252> 122 61<244.734 332.875>
VStem: 108 89<158.409 229.889>
LayerCount: 3
Fore
SplineSet
144 84 m 25xa8
 103 73 53 57 47 57 c 0
 34 57 20 70 20 84 c 0
 20 91 22 97 22 104 c 1
 56 121 78 121 114 135 c 1
 114 156 108 169 108 185 c 0
 108 215 122 250 158 250 c 0
 165 250 174 248 182 246 c 0
 202 241 191 193 202 158 c 1xd0
 230 165 263 183 293 183 c 0
 307 183 337 165 337 151 c 0
 337 118 223 95 223 95 c 1
 225 81 233 61 233 46 c 0
 233 24 216 21 193 21 c 0
 154 21 163 60 144 84 c 25xa8
EndSplineSet
Validated: 1
Layer: 2
SplineSet
114 135 m 1,0,-1
 108 185 l 1,1,2
 108 211 108 211 120.5 230.5 c 128,-1,3
 133 250 133 250 158 250 c 0,4,5
 166 250 166 250 182 246 c 0,6,7
 191 244 191 244 194 230 c 128,-1,8
 197 216 197 216 197 193.5 c 128,-1,9
 197 171 197 171 202 158 c 1,10,11
 206 159 206 159 240.5 171 c 128,-1,12
 275 183 275 183 289.5 183 c 128,-1,13
 304 183 304 183 320.5 172 c 128,-1,14
 337 161 337 161 337 151 c 0,15,16
 337 136 337 136 308.5 122 c 128,-1,17
 280 108 280 108 252 102 c 2,18,-1
 223 95 l 1,19,20
 224 90 224 90 228.5 72.5 c 128,-1,21
 233 55 233 55 233 46 c 0,22,23
 233 21 233 21 193 21 c 0,24,25
 176 21 176 21 168.5 31 c 128,-1,26
 161 41 161 41 156 58.5 c 128,-1,27
 151 76 151 76 144 84 c 25,28,-1
 47 57 l 1,29,30
 37 57 37 57 29.5 65.5 c 128,-1,31
 22 74 22 74 22 84 c 2,32,-1
 22 104 l 1,33,34
 41 113 41 113 70.5 121 c 128,-1,35
 100 129 100 129 114 135 c 1,0,-1
EndSplineSet
Validated: 1
Colour: ffff00
EndChar

StartChar: uniEE8B
Encoding: 61067 61067 14
Width: 389
VWidth: 0
Flags: W
HStem: 21 54<178.963 228.678> 173 55<21.25 109.625> 228 57<295.431 364.358> 316 69<185.473 228.736>
VStem: 110 67<76.2002 184 255.158 311.418> 232 68<80.082 205.818> 232 54<276 315>
DStem2: 82.5 236 52.5 174.5 0.985914 0.167253<-52.3139 18.4155 98.6653 142.377 207.324 263.215>
LayerCount: 3
Fore
SplineSet
369 255 m 0xe8
 369 221 321 221 295 216 c 1
 297 193 300 169 300 146 c 0xf0
 300 77 279 21 196 21 c 0
 168 21 142 22 130 44 c 0
 112 72 110 96 110 126 c 0
 110 133 110 142 110 149 c 0
 110 158 110 169 110 179 c 0
 110 181 110 183 110 184 c 1
 91 181 70 177 47 174 c 0
 44 173 42 173 40 173 c 0
 29 173 20 181 20 197 c 0
 20 213 31 227 45 228 c 0
 68 234 91 237 110 241 c 1
 112 279 115 316 133 350 c 0
 147 378 182 385 218 385 c 0
 274 385 281 322 286 276 c 1
 302 278 320 285 339 285 c 0
 355 285 369 274 369 255 c 0xe8
175 133 m 0
 175 128 175 121 175 116 c 0
 175 89 188 89 193 75 c 1
 209 75 226 84 228 95 c 0
 232 112 232 147 232 172 c 0
 232 186 232 195 232 206 c 1
 214 202 196 198 177 195 c 1
 177 177 175 156 175 133 c 0
232 265 m 1xe8
 230 299 226 316 212 316 c 0
 188 313 181 299 181 285 c 0
 181 276 179 265 179 255 c 1
 196 258 214 262 232 265 c 1xe8
EndSplineSet
Validated: 1
Layer: 2
SplineSet
286 276 m 1,0,1
 331 285 331 285 341.5 285 c 128,-1,2
 352 285 352 285 360.5 277 c 128,-1,3
 369 269 369 269 369 257 c 128,-1,4
 369 245 369 245 364.5 238.5 c 128,-1,5
 360 232 360 232 350 228 c 128,-1,6
 340 224 340 224 332.5 222 c 128,-1,7
 325 220 325 220 312 218.5 c 128,-1,8
 299 217 299 217 295 216 c 1,9,10
 300 210 300 210 300 146 c 0,11,12
 300 21 300 21 196 21 c 0,13,14
 143 21 143 21 130 44 c 1,15,16
 110 75 110 75 110 126 c 2,17,-1
 110 184 l 1,18,-1
 86 180 l 2,19,20
 61 176 61 176 52.5 174.5 c 128,-1,21
 44 173 44 173 40 173 c 0,22,23
 20 173 20 173 20 197 c 0,24,25
 20 209 20 209 27.5 218.5 c 128,-1,26
 35 228 35 228 45 228 c 1,27,28
 59 232 59 232 82.5 236 c 128,-1,29
 106 240 106 240 110 241 c 1,30,31
 110 314 110 314 133 350 c 1,32,33
 150 385 150 385 218 385 c 0,34,35
 258 385 258 385 272 346 c 0,36,37
 281 319 281 319 286 276 c 1,0,1
177 195 m 1,38,-1
 177 133 l 1,39,-1
 175 116 l 2,40,41
 175 100 175 100 183.5 88.5 c 128,-1,42
 192 77 192 77 193 75 c 1,43,44
 205 75 205 75 216 81 c 128,-1,45
 227 87 227 87 229.5 99.5 c 128,-1,46
 232 112 232 112 232 172 c 2,47,-1
 232 206 l 1,48,49
 196 198 196 198 177 195 c 1,38,-1
179 255 m 1,50,51
 190 255 190 255 232 265 c 1,52,53
 232 316 232 316 212 316 c 1,54,55
 188 313 188 313 181 285 c 0,56,57
 180 281 180 281 180 270.5 c 128,-1,58
 180 260 180 260 179 255 c 1,50,51
EndSplineSet
Validated: 1
Colour: ffff00
EndChar

StartChar: uniEE8D
Encoding: 61069 61069 15
Width: 261
VWidth: 0
Flags: W
VStem: 20 113<342.515 407.833> 36 90<570.861 652.398> 103 86<-190.234 281.07> 117 95<194.065 292>
DStem2: 32.5 396.5 223.5 488.5 0.660028 0.751241<52.156 146.436>
LayerCount: 3
Fore
SplineSet
144 -199 m 0x20
 119 -199 100 -191 100 -170 c 2
 101 93 l 0x20
 101 124 103 142 103 175 c 0
 103 221 112 246 117 292 c 1
 71 295 20 313 20 358 c 0x80
 20 420 96 427 131 506 c 1
 86 533 36 543 36 596 c 0
 36 654 98 686 126 718 c 1
 126 709 128 705 128 696 c 0
 128 686 144 682 144 672 c 0
 144 640 130 624 130 593 c 0x40
 130 575 152 568 170 568 c 0
 200 568 240 566 240 536 c 0
 240 459 133 448 133 371 c 0x80
 133 330 212 341 212 300 c 0
 212 251 189 226 189 179 c 2
 189 93 l 1
 188 -170 l 2
 188 -184 174 -199 144 -199 c 0x20
EndSplineSet
Validated: 1
Layer: 2
SplineSet
126 718 m 1,0,-1
 126 696 l 2,1,2
 126 690 126 690 135 683 c 128,-1,3
 144 676 144 676 144 666 c 128,-1,4
 144 656 144 656 137 632 c 128,-1,5
 130 608 130 608 130 593 c 0,6,7
 130 568 130 568 170 568 c 0,8,9
 240 568 240 568 240 536 c 0,10,11
 240 510 240 510 223.5 488.5 c 128,-1,12
 207 467 207 467 186.5 453.5 c 128,-1,13
 166 440 166 440 149.5 418.5 c 128,-1,14
 133 397 133 397 133 377 c 128,-1,15
 133 357 133 357 145.5 348 c 128,-1,16
 158 339 158 339 172.5 335.5 c 128,-1,17
 187 332 187 332 199.5 323 c 128,-1,18
 212 314 212 314 212 294.5 c 128,-1,19
 212 275 212 275 200.5 238.5 c 128,-1,20
 189 202 189 202 189 179 c 2,21,-1
 189 93 l 1,22,-1
 189 -170 l 2,23,24
 189 -182 189 -182 177 -190.5 c 128,-1,25
 165 -199 165 -199 144 -199 c 0,26,27
 101 -199 101 -199 101 -170 c 2,28,-1
 103 93 l 1,29,-1
 103 175 l 2,30,31
 103 202 103 202 110 241.5 c 128,-1,32
 117 281 117 281 117 292 c 1,33,34
 77 292 77 292 48.5 309.5 c 128,-1,35
 20 327 20 327 20 353 c 128,-1,36
 20 379 20 379 32.5 396.5 c 128,-1,37
 45 414 45 414 62 425.5 c 128,-1,38
 79 437 79 437 99.5 458.5 c 128,-1,39
 120 480 120 480 131 506 c 1,40,41
 121 512 121 512 98 523.5 c 128,-1,42
 75 535 75 535 65 541.5 c 128,-1,43
 55 548 55 548 45.5 562.5 c 128,-1,44
 36 577 36 577 36 599.5 c 128,-1,45
 36 622 36 622 51 643.5 c 128,-1,46
 66 665 66 665 93 688 c 128,-1,47
 120 711 120 711 126 718 c 1,0,-1
EndSplineSet
Validated: 1
Colour: ffff00
EndChar

StartChar: uniEE8F
Encoding: 61071 61071 16
Width: 407
VWidth: 0
Flags: W
HStem: 22 278
DStem2: 28 211 80 161 0.925778 0.378067<-2.64252 246.752> 134 81 167 24 0.926322 0.376734<-5.29346 244.017>
AnchorPoint: "Right" 407.16 239.32 basechar 0
AnchorPoint: "Podchashie" 299 -14.2402 basechar 0
AnchorPoint: "Tonal" 349.08 286.84 basechar 0
LayerCount: 3
Fore
SplineSet
157 22 m 0
 138 22 121 40 121 61 c 0
 121 70 125 78 134 81 c 0
 241 123 255 130 348 167 c 0
 352 169 356 169 360 169 c 0
 378 169 391 153 391 134 c 0
 391 123 386 114 376 109 c 0
 288 74 251 56 167 24 c 0
 164 23 160 22 157 22 c 0
52 153 m 0
 33 153 18 169 18 191 c 0
 18 200 21 208 28 211 c 0
 137 253 151 260 244 297 c 0
 248 299 252 300 256 300 c 0
 272 300 287 284 287 265 c 0
 287 254 282 244 271 239 c 0
 185 204 148 186 63 155 c 0
 59 153 55 153 52 153 c 0
EndSplineSet
Validated: 1
Layer: 2
SplineSet
167 24 m 0,0,1
 161 22 161 22 152 22 c 128,-1,2
 143 22 143 22 132 33.5 c 128,-1,3
 121 45 121 45 121 61 c 0,4,5
 121 76 121 76 134 81 c 0,6,7
 193 104 193 104 272 136 c 0,8,9
 351 169 351 169 362 169 c 128,-1,10
 373 169 373 169 382 158.5 c 128,-1,11
 391 148 391 148 391 132 c 128,-1,12
 391 116 391 116 376 109 c 1,13,14
 340 95 340 95 276.5 68.5 c 128,-1,15
 213 42 213 42 167 24 c 0,0,1
131.5 181 m 128,-1,17
 101 169 101 169 80 161 c 128,-1,18
 59 153 59 153 48.5 153 c 128,-1,19
 38 153 38 153 28 164 c 128,-1,20
 18 175 18 175 18 191 c 128,-1,21
 18 207 18 207 28 211 c 0,22,23
 134 253 134 253 192 276 c 0,24,25
 249 300 249 300 258.5 300 c 128,-1,26
 268 300 268 300 277.5 289.5 c 128,-1,27
 287 279 287 279 287 262.5 c 128,-1,28
 287 246 287 246 271 239 c 0,29,30
 242 227 242 227 202 210 c 128,-1,16
 162 193 162 193 131.5 181 c 128,-1,17
EndSplineSet
Validated: 1
Colour: ffff00
EndChar

StartChar: uniEE93
Encoding: 61075 61075 17
Width: 684
VWidth: 0
Flags: W
HStem: 21 60<119.283 199.569> 82 62<292.121 376.718> 162 59<29.797 111.421> 357 20G<379.75 397.25>
DStem2: 34 221 80 167.5 0.961524 0.274721<-1.48226 241.617> 412 368 363 294 0.638018 -0.770022<-21.5748 406.677>
AnchorPoint: "Right" 632.04 266.04 basechar 0
AnchorPoint: "Podchashie" 302 -16.2402 basechar 0
AnchorPoint: "Tonal" 136.56 330.48 basechar 0
LayerCount: 3
Fore
SplineSet
340 338 m 0
 340 361 366 377 391 377 c 0
 398 377 407 375 412 368 c 0
 481 285 556 201 644 88 c 0
 657 72 664 62 664 42 c 1
 664 26 648 14 632 14 c 0
 600 14 588 33 567 55 c 1
 430 222 410 241 363 294 c 0
 350 308 340 319 340 338 c 0
144 21 m 2
 122 21 110 38 110 60 c 0
 110 70 113 78 122 81 c 0
 235 110 249 116 348 144 c 1
 355 144 l 2
 374 144 386 125 386 109 c 0
 386 96 381 86 367 82 c 0
 277 58 239 44 151 21 c 1
 144 21 l 2
54 162 m 0
 34 162 20 177 20 200 c 0
 20 211 24 220 34 221 c 1
 147 253 159 257 258 285 c 1
 267 285 l 2
 284 285 297 267 297 250 c 0
 297 237 291 227 279 223 c 0
 189 198 149 186 63 163 c 0
 59 162 57 162 54 162 c 0
EndSplineSet
Validated: 1
Layer: 2
SplineSet
363 294 m 0,0,1
 340 319 340 319 340 337 c 128,-1,2
 340 355 340 355 355.5 366 c 128,-1,3
 371 377 371 377 388.5 377 c 128,-1,4
 406 377 406 377 412 368 c 1,5,6
 433 343 433 343 505 259 c 0,7,8
 588 161 588 161 644 88 c 0,9,10
 664 62 664 62 664 46 c 128,-1,11
 664 30 664 30 654 22 c 128,-1,12
 644 14 644 14 633.5 14 c 128,-1,13
 623 14 623 14 615.5 15.5 c 128,-1,14
 608 17 608 17 600.5 22.5 c 128,-1,15
 593 28 593 28 590.5 30 c 128,-1,16
 588 32 588 32 578 43 c 128,-1,17
 568 54 568 54 518.5 114.5 c 128,-1,18
 469 175 469 175 363 294 c 0,0,1
144 21 m 2,19,20
 128 21 128 21 119 32 c 128,-1,21
 110 43 110 43 110 60 c 128,-1,22
 110 77 110 77 122 81 c 0,23,24
 157 90 157 90 348 144 c 1,25,-1
 355 144 l 2,26,27
 368 144 368 144 377 133 c 128,-1,28
 386 122 386 122 386 104.5 c 128,-1,29
 386 87 386 87 367 82 c 0,30,31
 324 70 324 70 260.5 51.5 c 128,-1,32
 197 33 197 33 151 21 c 1,33,-1
 144 21 l 2,19,20
133 182 m 128,-1,35
 101 173 101 173 80 167.5 c 128,-1,36
 59 162 59 162 49 162 c 128,-1,37
 39 162 39 162 29.5 172.5 c 128,-1,38
 20 183 20 183 20 202 c 128,-1,39
 20 221 20 221 34 221 c 1,40,41
 91 237 91 237 150 254 c 128,-1,42
 209 271 209 271 258 285 c 1,43,-1
 267 285 l 2,44,45
 279 285 279 285 288 274 c 128,-1,46
 297 263 297 263 297 246 c 128,-1,47
 297 229 297 229 279 223 c 0,48,49
 247 214 247 214 206 202.5 c 128,-1,34
 165 191 165 191 133 182 c 128,-1,35
EndSplineSet
Validated: 1
Colour: ffff00
EndChar

StartChar: uniEE9A
Encoding: 61082 61082 18
Width: 1305
VWidth: 0
Flags: W
HStem: 21 21G<169.5 180.5> 220 21G<461 558.5>
DStem2: 118 209 258 195 0.932322 0.361628<-94.1177 133.329> 156 79 198 25.5 0.926273 0.376852<-3.9392 245.906> 438 273 463 220 0.921416 0.388577<-27.0517 883.158>
AnchorPoint: "Right" 1334.12 612.32 basechar 0
AnchorPoint: "Podchashie" 909 344 basechar 0
AnchorPoint: "Tonal" 670.72 443.32 basechar 0
LayerCount: 3
Fore
SplineSet
443 221 m 0
 428 221 421 228 421 244 c 0
 421 256 427 268 438 273 c 0
 692 376 868 447 1229 596 c 1
 1236 602 1252 605 1262 605 c 0
 1278 605 1283 598 1285 581 c 1
 1285 567 1269 559 1255 554 c 0
 949 424 734 325 463 220 c 1
 459 221 456 221 452 221 c 0
 449 221 446 221 443 221 c 0
179 21 m 0
 158 21 145 39 145 61 c 0
 145 69 148 76 156 79 c 0
 265 121 277 128 372 165 c 0
 376 167 379 167 383 167 c 0
 401 167 415 148 415 130 c 0
 415 121 409 113 399 107 c 1
 313 72 274 54 191 23 c 0
 186 21 182 21 179 21 c 0
56 118 m 0
 36 118 20 134 20 157 c 0
 20 165 24 172 33 176 c 0
 140 218 137 215 230 253 c 0
 233 255 237 255 240 255 c 0
 260 255 274 236 274 218 c 0
 274 208 269 199 258 195 c 0
 170 160 151 151 66 120 c 0
 63 118 59 118 56 118 c 0
EndSplineSet
Layer: 2
SplineSet
443 221 m 2,0,1
 421 221 421 221 421 243 c 128,-1,2
 421 265 421 265 438 273 c 1,3,4
 919 468 919 468 1229 596 c 1,5,6
 1240 605 1240 605 1257 605 c 128,-1,7
 1274 605 1274 605 1278.5 599.5 c 128,-1,8
 1283 594 1283 594 1285 581 c 1,9,10
 1285 565 1285 565 1255 554 c 1,11,12
 1159 513 1159 513 907 403 c 0,13,14
 654 294 654 294 463 220 c 1,15,16
 459 221 459 221 452 221 c 2,17,-1
 443 221 l 2,0,1
399 107 m 1,18,19
 210 30 210 30 198 25.5 c 128,-1,20
 186 21 186 21 175 21 c 128,-1,21
 164 21 164 21 154.5 32.5 c 128,-1,22
 145 44 145 44 145 59.5 c 128,-1,23
 145 75 145 75 156 79 c 0,24,25
 278 127 278 127 327 147 c 128,-1,26
 376 167 376 167 386 167 c 128,-1,27
 396 167 396 167 405.5 155.5 c 128,-1,28
 415 144 415 144 415 130.5 c 128,-1,29
 415 117 415 117 399 107 c 1,18,19
258 195 m 0,30,31
 107 135 107 135 85 126.5 c 128,-1,32
 63 118 63 118 52 118 c 128,-1,33
 41 118 41 118 30.5 129 c 128,-1,34
 20 140 20 140 20 155 c 0,35,36
 20 171 20 171 33 176 c 0,37,38
 74 192 74 192 118 209 c 0,39,40
 163 225 163 225 198 240 c 128,-1,41
 233 255 233 255 243.5 255 c 128,-1,42
 254 255 254 255 264 243.5 c 128,-1,43
 274 232 274 232 274 216.5 c 128,-1,44
 274 201 274 201 258 195 c 0,30,31
EndSplineSet
Validated: 1
Colour: ffff00
EndChar

StartChar: uniEE9D
Encoding: 61085 61085 19
Width: 1490
VWidth: 0
Flags: W
HStem: 22 60<145.798 220.709> 91 61<327.906 407.746> 128 59<29.7977 103.043> 131 97<766.344 849.25> 185 94<1037.67 1101.14> 189 62<193.273 273.265>
VStem: 750 111<147.957 215.252> 1028 85<197.376 269.567>
DStem2: 456 254 477 199 0.960078 0.279731<-24.9296 1027.46>
AnchorPoint: "Tonal" 889.12 461.72 basechar 0
AnchorPoint: "Podchashie" 971.84 106.2 basechar 0
AnchorPoint: "Right" 1539.44 530.36 basechar 0
LayerCount: 3
Fore
SplineSet
1028 236 m 0xbc
 1028 261 1058 279 1077 279 c 0
 1107 279 1113 251 1113 226 c 0
 1113 203 1095 185 1074 185 c 0
 1049 185 1028 212 1028 236 c 0xbc
750 189 m 0
 750 215 775 228 798 228 c 0
 831 228 861 207 861 173 c 0
 861 147 842 131 817 131 c 0xdc
 784 131 750 157 750 189 c 0
477 199 m 9
 456 207 437 196 437 224 c 0
 437 238 444 250 456 254 c 0
 755 346 1023 412 1414 525 c 1
 1421 529 1435 530 1445 530 c 0
 1463 530 1470 523 1470 507 c 0
 1470 490 1454 486 1438 479 c 1
 1121 377 754 277 477 199 c 9
170 22 m 0
 149 22 136 39 136 61 c 0
 136 70 139 79 149 82 c 0
 260 115 274 121 371 150 c 1
 374 152 378 152 379 152 c 0
 399 152 411 133 411 115 c 0
 411 105 406 94 394 91 c 0
 304 62 265 46 179 22 c 0
 175 20 172 22 170 22 c 0
63 129 m 0
 59 128 56 128 54 128 c 0
 34 128 20 145 20 166 c 0
 20 177 24 186 33 187 c 1
 145 221 140 219 237 249 c 1
 240 251 242 251 246 251 c 0
 263 251 277 231 277 214 c 0
 277 203 272 193 260 189 c 0
 170 161 149 154 63 129 c 0
EndSplineSet
Validated: 1
Layer: 2
SplineSet
1042 201 m 128,-1,1
 1028 217 1028 217 1028 235 c 128,-1,2
 1028 253 1028 253 1044.5 266 c 128,-1,3
 1061 279 1061 279 1077 279 c 0,4,5
 1113 279 1113 279 1113 226 c 0,6,7
 1113 209 1113 209 1101.5 197 c 128,-1,8
 1090 185 1090 185 1073 185 c 128,-1,0
 1056 185 1056 185 1042 201 c 128,-1,1
861 176 m 0,9,10
 861 131 861 131 814 131 c 0,11,12
 792 131 792 131 771 148.5 c 128,-1,13
 750 166 750 166 750 186.5 c 128,-1,14
 750 207 750 207 764.5 217.5 c 128,-1,15
 779 228 779 228 801.5 228 c 128,-1,16
 824 228 824 228 842.5 213 c 128,-1,17
 861 198 861 198 861 176 c 0,9,10
477 199 m 9,18,19
 470 202 470 202 458 202.5 c 128,-1,20
 446 203 446 203 441.5 207 c 128,-1,21
 437 211 437 211 437 229.5 c 128,-1,22
 437 248 437 248 456 254 c 0,23,24
 622 305 622 305 939 392 c 128,-1,25
 1256 479 1256 479 1414 525 c 1,26,27
 1423 530 1423 530 1446.5 530 c 128,-1,28
 1470 530 1470 530 1470 507 c 0,29,30
 1470 496 1470 496 1462 491 c 0,31,32
 1452 485 1452 485 1438 479 c 0,33,34
 1421 472 1421 472 1230 414 c 128,-1,35
 1039 356 1039 356 780 284 c 128,-1,36
 521 212 521 212 477 199 c 9,18,19
170 22 m 2,37,38
 155 22 155 22 145.5 33 c 128,-1,39
 136 44 136 44 136 61 c 128,-1,40
 136 78 136 78 149 82 c 0,41,42
 208 99 208 99 291 125.5 c 128,-1,43
 374 152 374 152 383.5 152 c 128,-1,44
 393 152 393 152 402 140.5 c 128,-1,45
 411 129 411 129 411 112 c 128,-1,46
 411 95 411 95 394 91 c 1,47,48
 363 81 363 81 303 61 c 128,-1,49
 243 41 243 41 179 22 c 1,50,-1
 170 22 l 2,37,38
260 189 m 0,51,52
 65 128 65 128 52 128 c 128,-1,53
 39 128 39 128 29.5 139 c 128,-1,54
 20 150 20 150 20 168 c 128,-1,55
 20 186 20 186 33 187 c 1,56,57
 224 245 224 245 232 248 c 128,-1,58
 240 251 240 251 249 251 c 128,-1,59
 258 251 258 251 267.5 239 c 128,-1,60
 277 227 277 227 277 211 c 128,-1,61
 277 195 277 195 260 189 c 0,51,52
EndSplineSet
Validated: 1
Colour: ffff00
EndChar

StartChar: uniEE9E
Encoding: 61086 61086 20
Width: 1338
VWidth: 0
Flags: W
HStem: 23 21G<112.5 131.5> 104 53<88 103.317> 152 52<288 302.78>
VStem: 104 87<66.0624 103.58>
DStem2: 492 213 513 167 0.976569 0.215202<-20.6724 805.137>
AnchorPoint: "Tonal" 808.64 350.48 basechar 0
AnchorPoint: "Podchashie" 956.48 172.72 basechar 0 {} {150-150 -3}
AnchorPoint: "Right" 1354.8 374.64 basechar 0
LayerCount: 3
Fore
SplineSet
513 167 m 9x9c
 498 171 474 163 474 188 c 0
 474 199 481 211 492 213 c 8
 789 292 909 308 1261 386 c 0
 1266 387 1272 387 1277 387 c 0
 1293 387 1316 379 1316 359 c 0
 1316 343 1296 333 1279 329 c 0
 981 271 802 233 513 167 c 9x9c
318 71 m 0
 300 71 280 82 280 107 c 0
 280 115 290 117 302 129 c 0
 311 138 300 148 291 152 c 16
 290 152 289 152 288 152 c 0
 281 152 274 144 266 144 c 0
 264 144 263 144 261 145 c 8
 242 152 237 164 221 176 c 17
 221 178 l 2
 221 197 251 204 281 204 c 0xac
 337 204 386 169 392 125 c 1
 392 94 346 71 318 71 c 0
117 23 m 0
 101 23 79 34 79 59 c 0
 79 67 89 69 101 81 c 0
 103 83 104 86 104 89 c 0
 104 96 97 104 88 104 c 0
 80 104 73 96 65 96 c 0
 64 96 62 96 61 97 c 8
 42 104 36 116 20 129 c 17
 20 130 l 2
 20 150 50 157 80 157 c 0xcc
 137 157 186 122 191 78 c 1
 191 46 145 23 117 23 c 0
EndSplineSet
Validated: 1
Layer: 2
SplineSet
513 167 m 9,0,1
 510 168 510 168 497.5 168.5 c 128,-1,2
 485 169 485 169 479.5 173 c 128,-1,3
 474 177 474 177 474 188 c 0,4,5
 474 210 474 210 492 213 c 1,6,7
 712 271 712 271 926 315 c 128,-1,8
 1140 359 1140 359 1261 386 c 0,9,10
 1266 387 1266 387 1278.5 387 c 128,-1,11
 1291 387 1291 387 1303.5 380 c 128,-1,12
 1316 373 1316 373 1316 359 c 0,13,14
 1316 338 1316 338 1279 329 c 1,15,16
 896 254 896 254 513 167 c 9,0,1
288 152 m 1,17,-1
 266 144 l 1,18,19
 253 144 253 144 240 158 c 128,-1,20
 227 172 227 172 221 176 c 1,21,-1
 221 178 l 2,22,23
 221 204 221 204 281 204 c 0,24,25
 323 204 323 204 355 181 c 128,-1,26
 387 158 387 158 392 125 c 1,27,28
 392 103 392 103 367 87 c 128,-1,29
 342 71 342 71 322.5 71 c 128,-1,30
 303 71 303 71 291.5 80.5 c 128,-1,31
 280 90 280 90 280 100.5 c 128,-1,32
 280 111 280 111 282.5 113.5 c 128,-1,33
 285 116 285 116 291 120 c 128,-1,34
 297 124 297 124 302 129 c 1,35,36
 311 142 311 142 291 152 c 1,37,-1
 288 152 l 1,17,-1
88 104 m 1,38,-1
 65 96 l 1,39,40
 54 96 54 96 39.5 110.5 c 128,-1,41
 25 125 25 125 20 129 c 1,42,-1
 20 130 l 2,43,44
 20 157 20 157 80 157 c 0,45,46
 123 157 123 157 155 134 c 128,-1,47
 187 111 187 111 191 78 c 1,48,49
 191 56 191 56 166 39.5 c 128,-1,50
 141 23 141 23 122 23 c 128,-1,51
 103 23 103 23 91 32.5 c 128,-1,52
 79 42 79 42 79 52.5 c 128,-1,53
 79 63 79 63 81.5 65.5 c 128,-1,54
 84 68 84 68 90 72 c 128,-1,55
 96 76 96 76 100 80 c 128,-1,56
 104 84 104 84 104 89 c 128,-1,57
 104 94 104 94 99 99 c 128,-1,58
 94 104 94 104 88 104 c 1,38,-1
EndSplineSet
Validated: 1
Colour: ffff00
EndChar

StartChar: uniEE9F
Encoding: 61087 61087 21
Width: 1318
VWidth: 0
Flags: W
HStem: 61 96<737.569 812.405> 115 95<1009.48 1071.65> 162 53<282 296.78> 171 44<453.134 544.914>
VStem: 104 87<78.0342 114.402> 721 111<77.8926 142.045> 999 84<127.376 201.088>
DStem2: 892 314.5 492 170 0.97707 0.212917<-426.248 372.8>
AnchorPoint: "Tonal" 828.12 368.56 basechar 0
AnchorPoint: "Podchashie" 944.28 57.04 basechar 0 {} {150-150 -7}
AnchorPoint: "Right" 1354.92 375.84 basechar 0
LayerCount: 3
Fore
SplineSet
999 168 m 0x47
 999 193 1029 210 1048 210 c 0
 1078 210 1083 180 1083 156 c 0
 1083 134 1066 115 1045 115 c 0
 1020 115 999 143 999 168 c 0x47
721 119 m 0
 721 147 745 157 768 157 c 0
 802 157 832 136 832 105 c 0
 832 76 812 61 788 61 c 0x87
 754 61 721 89 721 119 c 0
475 171 m 0x0f
 463 171 453 176 453 190 c 0
 453 201 460 213 471 215 c 8
 768 295 888 310 1240 388 c 0
 1245 390 1251 390 1256 390 c 0
 1272 390 1295 381 1295 362 c 0
 1295 346 1275 335 1258 332 c 0
 960 274 781 235 492 170 c 1
 489 171 485 171 482 171 c 0
 479 171 477 171 475 171 c 0x0f
312 81 m 0
 294 81 274 92 274 117 c 0x27
 274 125 284 127 296 139 c 0
 305 148 294 158 285 162 c 16
 284 162 283 162 282 162 c 0
 275 162 268 154 260 154 c 0
 258 154 257 154 255 155 c 8
 236 162 231 174 215 187 c 17
 215 188 l 2
 215 208 245 215 275 215 c 0x17
 331 215 380 180 386 136 c 1
 386 104 340 81 312 81 c 0
117 35 m 0
 101 35 79 46 79 71 c 0
 79 79 89 81 101 93 c 0
 103 95 104 98 104 101 c 0
 104 109 96 117 87 117 c 0
 79 117 72 108 65 108 c 0
 64 108 62 108 61 109 c 8
 42 116 36 128 20 141 c 17
 20 143 l 2
 20 162 50 169 80 169 c 0
 137 169 186 134 191 90 c 1
 191 58 145 35 117 35 c 0
EndSplineSet
Validated: 1
Layer: 2
SplineSet
1013 132 m 128,-1,1
 999 149 999 149 999 167 c 128,-1,2
 999 185 999 185 1015.5 197.5 c 128,-1,3
 1032 210 1032 210 1048 210 c 0,4,5
 1083 210 1083 210 1083 156 c 0,6,7
 1083 139 1083 139 1072 127 c 128,-1,8
 1061 115 1061 115 1044 115 c 128,-1,0
 1027 115 1027 115 1013 132 c 128,-1,1
832 106 m 0,9,10
 832 61 832 61 784 61 c 0,11,12
 762 61 762 61 741.5 79 c 128,-1,13
 721 97 721 97 721 119 c 0,14,15
 721 157 721 157 768 157 c 0,16,17
 794 157 794 157 813 142.5 c 128,-1,18
 832 128 832 128 832 106 c 0,9,10
475 171 m 2,19,20
 453 171 453 171 453 190 c 0,21,22
 453 212 453 212 471 215 c 1,23,24
 665 268 665 268 892 314.5 c 128,-1,25
 1119 361 1119 361 1182 375.5 c 128,-1,26
 1245 390 1245 390 1257.5 390 c 128,-1,27
 1270 390 1270 390 1282.5 382.5 c 128,-1,28
 1295 375 1295 375 1295 363 c 128,-1,29
 1295 351 1295 351 1283.5 343 c 128,-1,30
 1272 335 1272 335 1258 332 c 0,31,32
 918 266 918 266 492 170 c 1,33,34
 489 171 489 171 482 171 c 2,35,-1
 475 171 l 2,19,20
282 162 m 1,36,-1
 260 154 l 1,37,38
 247 154 247 154 234 168 c 128,-1,39
 221 182 221 182 215 187 c 1,40,-1
 215 188 l 2,41,42
 215 215 215 215 275 215 c 0,43,44
 317 215 317 215 349 192 c 128,-1,45
 381 169 381 169 386 136 c 1,46,47
 386 114 386 114 361 97.5 c 128,-1,48
 336 81 336 81 316.5 81 c 128,-1,49
 297 81 297 81 285.5 90.5 c 128,-1,50
 274 100 274 100 274 110.5 c 128,-1,51
 274 121 274 121 276.5 123.5 c 128,-1,52
 279 126 279 126 285 130 c 128,-1,53
 291 134 291 134 296 139 c 1,54,55
 305 152 305 152 285 162 c 1,56,-1
 282 162 l 1,36,-1
87 117 m 1,57,-1
 65 108 l 1,58,59
 54 108 54 108 39.5 122.5 c 128,-1,60
 25 137 25 137 20 141 c 1,61,-1
 20 143 l 2,62,63
 20 169 20 169 71.5 169 c 128,-1,64
 123 169 123 169 155 146 c 128,-1,65
 187 123 187 123 191 90 c 1,66,67
 191 68 191 68 166 51.5 c 128,-1,68
 141 35 141 35 122 35 c 128,-1,69
 103 35 103 35 91 44.5 c 128,-1,70
 79 54 79 54 79 64.5 c 128,-1,71
 79 75 79 75 81.5 77.5 c 128,-1,72
 84 80 84 80 94 87 c 0,73,74
 104 93 104 93 104 100 c 128,-1,75
 104 107 104 107 99 112 c 128,-1,76
 94 117 94 117 87 117 c 1,57,-1
EndSplineSet
Validated: 1
Colour: ffff00
EndChar

StartChar: uniEEA6
Encoding: 61094 61094 22
Width: 1099
VWidth: 0
Flags: W
HStem: 21 21G<112.5 131.5> 102 53<88 103.317> 125 44<236.07 327.094>
VStem: 104 87<64.0624 101.58>
DStem2: 678.5 269 1041 286 0.972132 0.234435<139.922 369.603>
AnchorPoint: "Tonal" 569.4 296.16 basechar 0
AnchorPoint: "Podchashie" 692.6 130.72 basechar 0 {} {150-150 1}
AnchorPoint: "Right" 1134.56 334.36 basechar 0
LayerCount: 3
Fore
SplineSet
258 125 m 0xb0
 246 125 236 131 236 145 c 0
 236 156 244 167 254 169 c 8
 552 249 671 264 1023 342 c 0
 1029 344 1034 344 1039 344 c 0
 1055 344 1078 335 1078 316 c 0
 1078 300 1059 289 1041 286 c 0
 744 228 564 189 275 124 c 1
 272 125 268 125 265 125 c 0
 263 125 260 125 258 125 c 0xb0
117 21 m 0
 101 21 79 32 79 57 c 0
 79 65 89 67 101 79 c 0
 103 81 104 84 104 87 c 0
 104 94 97 102 88 102 c 0
 80 102 73 94 65 94 c 0
 64 94 62 94 61 95 c 8
 42 102 36 114 20 127 c 17
 20 128 l 2
 20 148 50 155 80 155 c 0xd0
 137 155 186 120 191 76 c 1
 191 44 145 21 117 21 c 0
EndSplineSet
Validated: 1
Layer: 2
SplineSet
258 125 m 2,0,1
 236 125 236 125 236 145 c 128,-1,2
 236 165 236 165 254 169 c 0,3,4
 455 223 455 223 678.5 269 c 128,-1,5
 902 315 902 315 965.5 329.5 c 128,-1,6
 1029 344 1029 344 1041 344 c 128,-1,7
 1053 344 1053 344 1065.5 336.5 c 128,-1,8
 1078 329 1078 329 1078 317 c 128,-1,9
 1078 305 1078 305 1067 296.5 c 128,-1,10
 1056 288 1056 288 1041 286 c 0,11,12
 694 218 694 218 275 124 c 1,13,14
 272 125 272 125 265 125 c 2,15,-1
 258 125 l 2,0,1
88 102 m 1,16,-1
 65 94 l 1,17,18
 54 94 54 94 39.5 108.5 c 128,-1,19
 25 123 25 123 20 127 c 1,20,-1
 20 128 l 2,21,22
 20 155 20 155 80 155 c 0,23,24
 123 155 123 155 155 132 c 128,-1,25
 187 109 187 109 191 76 c 1,26,27
 191 54 191 54 166 37.5 c 128,-1,28
 141 21 141 21 122 21 c 128,-1,29
 103 21 103 21 91 30.5 c 128,-1,30
 79 40 79 40 79 50.5 c 128,-1,31
 79 61 79 61 81.5 63.5 c 128,-1,32
 84 66 84 66 90 70 c 128,-1,33
 96 74 96 74 100 78 c 128,-1,34
 104 82 104 82 104 87 c 128,-1,35
 104 92 104 92 99 97 c 128,-1,36
 94 102 94 102 88 102 c 1,16,-1
EndSplineSet
Validated: 1
Colour: ffff00
EndChar

StartChar: uniEEB0
Encoding: 61104 61104 23
Width: 1397
VWidth: 0
Flags: W
HStem: 20 21G<156.25 166.75> 89 61<319.346 398.718> 140 61<30.3135 101.414> 201 62<187.639 273.472> 404 60<1246.31 1368.23>
AnchorPoint: "Right" 1427.44 440.64 basechar 0
AnchorPoint: "Podchashie" 920 140 basechar 0 {} {150-150 8}
AnchorPoint: "Tonal" 780.844 412.407 basechar 0
LayerCount: 3
Fore
SplineSet
369 278 m 1x88
 388 283 409 286 427 286 c 0
 453 286 478 279 492 256 c 0
 501 241 502 234 509 219 c 25
 1268 462 l 17
 1273 462 1317 464 1333 464 c 0
 1357 464 1377 461 1377 439 c 0
 1377 438 1377 437 1377 436 c 1
 1377 408 1363 404 1342 404 c 2
 1322 404 l 2
 1312 404 1305 404 1282 399 c 1
 1081 336 902 283 543 158 c 8
 527 153 518 147 501 147 c 27
 428 147 383 263 369 278 c 1x88
166 20 m 0
 145 20 133 37 133 59 c 0
 133 69 136 77 145 80 c 0
 256 113 270 119 367 150 c 1
 376 150 l 2
 395 150 408 131 408 115 c 0
 408 103 402 94 390 89 c 1xc8
 300 62 262 48 175 22 c 1
 172 20 168 20 166 20 c 0
63 141 m 1
 59 141 56 140 54 140 c 0
 34 140 20 159 20 178 c 0
 20 189 24 198 33 201 c 0xa8
 145 235 140 231 237 263 c 1
 246 263 l 2
 263 263 277 243 277 226 c 0
 277 215 272 207 260 201 c 1x98
 170 175 149 168 63 141 c 1
EndSplineSet
Validated: 1
Layer: 2
SplineSet
1268 464 m 1,0,-1
 1333 464 l 1,1,2
 1377 464 1377 464 1377 439 c 2,3,-1
 1377 436 l 2,4,5
 1377 417 1377 417 1368.5 410.5 c 128,-1,6
 1360 404 1360 404 1342 404 c 2,7,-1
 1322 404 l 2,8,9
 1305 404 1305 404 1282 399 c 1,10,11
 813 252 813 252 543 158 c 1,12,13
 508 147 508 147 501 147 c 0,14,15
 469 147 469 147 440.5 175 c 128,-1,16
 412 203 412 203 391 240 c 128,-1,17
 370 277 370 277 369 278 c 1,18,19
 399 286 399 286 427 286 c 0,20,21
 474 286 474 286 492 256 c 0,22,23
 499 244 499 244 502.5 234 c 128,-1,24
 506 224 506 224 509 219 c 1,25,-1
 1268 464 l 1,0,-1
282 55.5 m 128,-1,27
 219 35 219 35 195.5 27.5 c 128,-1,28
 172 20 172 20 161.5 20 c 128,-1,29
 151 20 151 20 142 31 c 128,-1,30
 133 42 133 42 133 59 c 128,-1,31
 133 76 133 76 145 80 c 0,32,33
 188 93 188 93 367 150 c 1,34,-1
 376 150 l 2,35,36
 390 150 390 150 399 139 c 128,-1,37
 408 128 408 128 408 112 c 128,-1,38
 408 96 408 96 390 89 c 1,39,26
 345 76 345 76 282 55.5 c 128,-1,27
63 141 m 1,40,-1
 54 140 l 1,41,42
 40 140 40 140 30 151.5 c 128,-1,43
 20 163 20 163 20 180 c 128,-1,44
 20 197 20 197 33 201 c 0,45,46
 234 262 234 262 237 263 c 1,47,-1
 246 263 l 2,48,49
 258 263 258 263 267.5 251 c 128,-1,50
 277 239 277 239 277 224.5 c 128,-1,51
 277 210 277 210 260 201 c 1,52,53
 186 180 186 180 63 141 c 1,40,-1
EndSplineSet
Validated: 1
Colour: ffff00
EndChar

StartChar: uniEEB5
Encoding: 61109 61109 24
Width: 1522
VWidth: 0
Flags: W
HStem: 22 21G<182 208>
DStem2: 128 217.5 103 101.5 0.58328 -0.812271<-85.19 189.649> 516 235 627.5 196.5 0.959129 0.28297<-1.52199 985.794>
AnchorPoint: "Right" 1571.67 504.2 basechar 0
AnchorPoint: "Podchashie" 987 200 basechar 0
AnchorPoint: "Tonal" 829.964 483.888 basechar 0
LayerCount: 3
Fore
SplineSet
184 289 m 0
 186 304 202 310 217 310 c 0
 240 310 251 302 262 287 c 1
 272 270 373 150 373 96 c 0
 373 76 364 69 351 69 c 0
 336 69 314 82 306 90 c 8
 253 150 233 191 193 261 c 16
 188 270 182 279 184 289 c 0
221 47 m 0
 221 31 209 22 193 22 c 0
 175 22 161 31 149 45 c 8
 93 106 71 150 31 223 c 16
 26 231 20 240 20 249 c 0
 20 268 45 274 59 274 c 0
 86 274 93 265 105 249 c 17
 117 230 221 103 221 47 c 0
372 300 m 1
 391 305 411 310 428 310 c 0
 455 310 485 294 499 272 c 1
 507 256 509 249 516 235 c 25
 868 338 1120 419 1421 502 c 1
 1438 509 1453 511 1465 511 c 0
 1491 511 1502 496 1502 480 c 0
 1502 479 1502 477 1502 476 c 0
 1502 449 1312 395 1282 388 c 1
 1079 324 923 286 550 173 c 0
 534 168 525 162 507 162 c 27
 432 162 386 286 372 300 c 1
EndSplineSet
Validated: 1
Layer: 2
SplineSet
184 286 m 0,0,1
 184 310 184 310 214.5 310 c 128,-1,2
 245 310 245 310 262 287 c 2,3,-1
 293 246 l 2,4,5
 373 138 373 138 373 96 c 0,6,7
 373 69 373 69 351 69 c 0,8,9
 327 69 327 69 306 90 c 1,10,11
 258 145 258 145 232 191 c 0,12,13
 206 238 206 238 195 257.5 c 128,-1,14
 184 277 184 277 184 286 c 0,0,1
221 47 m 0,15,16
 221 22 221 22 195 22 c 128,-1,17
 169 22 169 22 147 47 c 128,-1,18
 125 72 125 72 116.5 83.5 c 128,-1,19
 108 95 108 95 103 101.5 c 128,-1,20
 98 108 98 108 90 121 c 128,-1,21
 82 134 82 134 79 138.5 c 128,-1,22
 76 143 76 143 67 158.5 c 128,-1,23
 58 174 58 174 56 177.5 c 128,-1,24
 54 181 54 181 43.5 200.5 c 128,-1,25
 33 220 33 220 26.5 230.5 c 128,-1,26
 20 241 20 241 20 251.5 c 128,-1,27
 20 262 20 262 32.5 268 c 128,-1,28
 45 274 45 274 58.5 274 c 128,-1,29
 72 274 72 274 83 270 c 0,30,31
 94 265 94 265 100.5 255.5 c 128,-1,32
 107 246 107 246 128 217.5 c 128,-1,33
 149 189 149 189 168 161.5 c 128,-1,34
 187 134 187 134 204 100 c 128,-1,35
 221 66 221 66 221 47 c 0,15,16
372 300 m 1,36,37
 410 310 410 310 429 310 c 128,-1,38
 448 310 448 310 468.5 299 c 128,-1,39
 489 288 489 288 497 274 c 128,-1,40
 505 260 505 260 516 235 c 1,41,42
 621 266 621 266 934 360 c 128,-1,43
 1247 454 1247 454 1421 502 c 1,44,45
 1443 511 1443 511 1463 511 c 128,-1,46
 1483 511 1483 511 1492.5 502 c 128,-1,47
 1502 493 1502 493 1502 480 c 2,48,-1
 1502 476 l 2,49,50
 1502 459 1502 459 1416.5 429 c 128,-1,51
 1331 399 1331 399 1282 388 c 1,52,53
 1183 357 1183 357 961.5 294 c 128,-1,54
 740 231 740 231 627.5 196.5 c 128,-1,55
 515 162 515 162 507 162 c 0,56,57
 474 162 474 162 444.5 192 c 128,-1,58
 415 222 415 222 394 260.5 c 128,-1,59
 373 299 373 299 372 300 c 1,36,37
EndSplineSet
Validated: 1
Colour: ffff00
EndChar

StartChar: uniEEBD
Encoding: 61117 61117 25
Width: 1063
VWidth: 0
Flags: W
HStem: 21 21G<111.25 123.75> 237 99<974.184 1023.41> 237 41<951.161 970.874>
DStem2: 138 72 178 36 0.949296 0.314385<-13.0436 861.095>
AnchorPoint: "Tonal" 442.56 219.6 basechar 0
AnchorPoint: "Podchashie" 644 92 basechar 0
AnchorPoint: "Right" 1113.12 334 basechar 0
LayerCount: 3
Fore
SplineSet
20 100 m 0xa0
 20 110 52 125 69 125 c 0
 101 125 110 88 138 72 c 1
 474 179 105 61 953 332 c 0
 962 334 972 336 985 336 c 0
 1006 336 1043 322 1043 279 c 0
 1043 258 1011 237 976 237 c 0xc0
 964 237 955 241 951 255 c 1
 946 264 948 274 960 278 c 8
 967 279 976 281 974 288 c 16
 971 297 962 295 951 292 c 0
 629 186 288 70 140 24 c 0
 133 22 126 21 119 21 c 0
 106 21 96 26 84 33 c 8
 59 49 20 72 20 100 c 0xa0
EndSplineSet
Validated: 1
Layer: 2
SplineSet
24 84 m 0,0,1
 20 92 20 92 20 99.5 c 128,-1,2
 20 107 20 107 38 116 c 128,-1,3
 56 125 56 125 71.5 125 c 128,-1,4
 87 125 87 125 107.5 101 c 128,-1,5
 128 77 128 77 138 72 c 1,6,7
 542 201 542 201 953 332 c 1,8,9
 971 336 971 336 988 336 c 128,-1,10
 1005 336 1005 336 1024 322 c 128,-1,11
 1043 308 1043 308 1043 279 c 0,12,13
 1043 263 1043 263 1022.5 250 c 128,-1,14
 1002 237 1002 237 979 237 c 128,-1,15
 956 237 956 237 951 255 c 1,16,17
 942 272 942 272 960 278 c 1,18,19
 967 279 967 279 971 281 c 128,-1,20
 975 283 975 283 973 290 c 128,-1,21
 971 297 971 297 951 292 c 1,22,23
 880 269 880 269 528 151 c 0,24,25
 226 50 226 50 178 36 c 0,26,27
 130 21 130 21 117.5 21 c 128,-1,28
 105 21 105 21 84 33 c 1,29,30
 34 65 34 65 24 84 c 0,0,1
EndSplineSet
Validated: 1
Colour: ffff00
EndChar

StartChar: uniEEBF
Encoding: 61119 61119 26
Width: 541
VWidth: 0
Flags: W
HStem: 22 61<399.439 436> 83 34<342.737 367.307> 210 49<105.244 354.1>
VStem: 436 84<83 140.708>
LayerCount: 3
Fore
SplineSet
196 259 m 0
 341 259 520 201 520 67 c 0
 520 39 506 22 455 22 c 1
 397 22 367 83 335 83 c 1
 337 94 330 117 360 117 c 0
 406 117 409 85 434 85 c 1
 436 92 436 97 436 104 c 0
 436 184 307 210 247 210 c 0
 179 210 133 185 59 185 c 19
 42 185 20 185 20 210 c 0
 20 245 130 259 196 259 c 0
EndSplineSet
Validated: 1
Layer: 2
SplineSet
77.5 246.5 m 128,-1,1
 135 259 135 259 204.5 259 c 128,-1,2
 274 259 274 259 345 240 c 128,-1,3
 416 221 416 221 468 175.5 c 128,-1,4
 520 130 520 130 520 67 c 0,5,6
 520 44 520 44 505.5 33 c 128,-1,7
 491 22 491 22 457 22 c 128,-1,8
 423 22 423 22 385.5 52.5 c 128,-1,9
 348 83 348 83 335 83 c 1,10,11
 335 107 335 107 342.5 112 c 128,-1,12
 350 117 350 117 368 117 c 128,-1,13
 386 117 386 117 405 100 c 128,-1,14
 424 83 424 83 434 83 c 1,15,16
 436 90 436 90 436 104 c 0,17,18
 436 141 436 141 400 166 c 0,19,20
 339 210 339 210 247 210 c 0,21,22
 214 210 214 210 155.5 197.5 c 128,-1,23
 97 185 97 185 72 185 c 128,-1,24
 47 185 47 185 40.5 186 c 128,-1,25
 34 187 34 187 27 192.5 c 128,-1,26
 20 198 20 198 20 210 c 0,27,0
 20 234 20 234 77.5 246.5 c 128,-1,1
EndSplineSet
Validated: 1
Colour: ffff00
EndChar

StartChar: uniEE50
Encoding: 61008 61008 27
Width: 0
VWidth: 0
GlyphClass: 4
Flags: W
HStem: 391 102<-163.576 -78.0874>
VStem: -176 113<406.985 476.609>
AnchorPoint: "Tonal" -114.367 387.286 mark 0
LayerCount: 3
Fore
SplineSet
-134 493 m 0
 -97 493 -63 465 -63 445 c 0
 -63 415 -84 391 -114 391 c 27
 -148 391 -176 414 -176 447 c 19
 -176 472 -162 493 -134 493 c 0
EndSplineSet
Validated: 1
Layer: 2
SplineSet
-165 480 m 128,-1,1
 -154 493 -154 493 -130.5 493 c 128,-1,2
 -107 493 -107 493 -85 477 c 128,-1,3
 -63 461 -63 461 -63 441.5 c 128,-1,4
 -63 422 -63 422 -77.5 406.5 c 128,-1,5
 -92 391 -92 391 -116 391 c 128,-1,6
 -140 391 -140 391 -158 407 c 128,-1,7
 -176 423 -176 423 -176 445 c 128,-1,0
 -176 467 -176 467 -165 480 c 128,-1,1
EndSplineSet
Validated: 1
Colour: ffff00
EndChar

StartChar: uniEE51
Encoding: 61009 61009 28
Width: 0
VWidth: 0
GlyphClass: 4
Flags: W
HStem: 324 102<-365.576 -280.955> 394 102<-172.186 -86.9554>
VStem: -378 112<339.985 410.483> -185 113<410.501 480.488>
AnchorPoint: "Tonal" -316.736 318.646 mark 0
LayerCount: 3
Fore
SplineSet
-143 496 m 0x70
 -106 496 -72 470 -72 449 c 0
 -72 419 -93 394 -123 394 c 27
 -157 394 -185 419 -185 451 c 19
 -185 475 -171 496 -143 496 c 0x70
-336 426 m 0xb0
 -299 426 -266 400 -266 378 c 0
 -266 348 -287 324 -317 324 c 27
 -350 324 -378 348 -378 380 c 19
 -378 405 -364 426 -336 426 c 0xb0
EndSplineSet
Validated: 1
Layer: 2
SplineSet
-174 483 m 128,-1,1
 -163 496 -163 496 -139.5 496 c 128,-1,2
 -116 496 -116 496 -94 480.5 c 128,-1,3
 -72 465 -72 465 -72 445.5 c 128,-1,4
 -72 426 -72 426 -86.5 410 c 128,-1,5
 -101 394 -101 394 -125 394 c 128,-1,6
 -149 394 -149 394 -167 410.5 c 128,-1,7
 -185 427 -185 427 -185 448.5 c 128,-1,0
 -185 470 -185 470 -174 483 c 128,-1,1
-367 413 m 128,-1,9
 -356 426 -356 426 -332.5 426 c 128,-1,10
 -309 426 -309 426 -287.5 410.5 c 128,-1,11
 -266 395 -266 395 -266 375 c 128,-1,12
 -266 355 -266 355 -280.5 339.5 c 128,-1,13
 -295 324 -295 324 -318.5 324 c 128,-1,14
 -342 324 -342 324 -360 340 c 128,-1,15
 -378 356 -378 356 -378 378 c 128,-1,8
 -378 400 -378 400 -367 413 c 128,-1,9
EndSplineSet
Validated: 1
Colour: ffff00
EndChar

StartChar: uniEE52
Encoding: 61010 61010 29
Width: 0
VWidth: 0
Flags: W
HStem: 324 102<-530.436 -451.471> 394 102<-342.542 -258.471> 472 102<-162.436 -84.0874>
VStem: -549 113<340.502 409.783> -356 113<410.501 480.96> -181 112<488.502 557.783>
AnchorPoint: "Tonal" -490.112 320.406 mark 0
LayerCount: 3
Fore
SplineSet
-141 574 m 0x3c
 -102 574 -69 546 -69 526 c 0
 -69 496 -92 472 -120 472 c 27
 -153 472 -181 496 -181 528 c 19
 -181 553 -169 574 -141 574 c 0x3c
-315 496 m 0x5c
 -276 496 -243 470 -243 449 c 0
 -243 419 -266 394 -294 394 c 27
 -327 394 -356 419 -356 451 c 19
 -356 475 -343 496 -315 496 c 0x5c
-509 426 m 0x9c
 -470 426 -436 400 -436 378 c 0
 -436 348 -459 324 -488 324 c 27
 -521 324 -549 348 -549 380 c 19
 -549 405 -537 426 -509 426 c 0x9c
EndSplineSet
Validated: 1
Layer: 2
SplineSet
-141 574 m 0,0,1
 -113 574 -113 574 -91 558 c 128,-1,2
 -69 542 -69 542 -69 523 c 128,-1,3
 -69 504 -69 504 -84 488 c 128,-1,4
 -99 472 -99 472 -122 472 c 128,-1,5
 -145 472 -145 472 -163 488 c 128,-1,6
 -181 504 -181 504 -181 528 c 0,7,8
 -181 574 -181 574 -141 574 c 0,0,1
-356 451 m 0,9,10
 -356 496 -356 496 -311 496 c 0,11,12
 -287 496 -287 496 -265 481 c 128,-1,13
 -243 466 -243 466 -243 446 c 128,-1,14
 -243 426 -243 426 -258 410 c 128,-1,15
 -273 394 -273 394 -296 394 c 128,-1,16
 -319 394 -319 394 -337.5 410.5 c 128,-1,17
 -356 427 -356 427 -356 451 c 0,9,10
-509 426 m 0,18,19
 -481 426 -481 426 -458.5 410.5 c 128,-1,20
 -436 395 -436 395 -436 375 c 128,-1,21
 -436 355 -436 355 -451 339.5 c 128,-1,22
 -466 324 -466 324 -489.5 324 c 128,-1,23
 -513 324 -513 324 -531 340 c 128,-1,24
 -549 356 -549 356 -549 380 c 0,25,26
 -549 426 -549 426 -509 426 c 0,18,19
EndSplineSet
Validated: 1
Colour: ffff00
EndChar

StartChar: uniEE58
Encoding: 61016 61016 30
Width: 0
VWidth: 0
Flags: W
HStem: 470 86<-159.4 -80.83> 480 76<-234.91 -130.6>
VStem: -348 278
AnchorPoint: "Tonal" -183.009 426.006 mark 0
LayerCount: 3
Fore
SplineSet
-181 480 m 0x60
 -250 480 -257 407 -294 407 c 0
 -322 407 -348 442 -348 465 c 1
 -260 553 -213 553 -151 558 c 1
 -118 554 -70 563 -70 517 c 0
 -70 493 -83 470 -109 470 c 0xa0
 -136 470 -153 480 -181 480 c 0x60
EndSplineSet
Validated: 1
Layer: 2
SplineSet
-109 470 m 1,0,-1
 -181 480 l 1,1,2
 -211 480 -211 480 -231 462 c 128,-1,3
 -251 444 -251 444 -265 425.5 c 128,-1,4
 -279 407 -279 407 -296.5 407 c 128,-1,5
 -314 407 -314 407 -331 427 c 128,-1,6
 -348 447 -348 447 -348 465 c 1,7,8
 -316 497 -316 497 -290 516 c 0,9,10
 -245 550 -245 550 -151 558 c 1,11,12
 -139 556 -139 556 -124 556 c 0,13,14
 -103 556 -103 556 -86 550 c 0,15,16
 -70 543 -70 543 -70 520.5 c 128,-1,17
 -70 498 -70 498 -80.5 484 c 128,-1,18
 -91 470 -91 470 -109 470 c 1,0,-1
EndSplineSet
Validated: 1
Colour: ffff00
EndChar

StartChar: uniEE76
Encoding: 61046 61046 31
Width: 527
VWidth: 0
Flags: W
HStem: 22 97<157.184 223.988> 189 102<219.814 304.529> 277 102<406.814 491.045>
VStem: 207 113<205.501 275.488> 394 112<293.501 363.488>
LayerCount: 3
Fore
SplineSet
436 379 m 0xbc
 473 379 506 353 506 331 c 0
 506 302 485 277 455 277 c 27
 422 277 394 302 394 333 c 19
 394 358 408 379 436 379 c 0xbc
249 291 m 0xdc
 286 291 320 265 320 243 c 0
 320 214 298 189 269 189 c 27
 235 189 207 214 207 245 c 19
 207 270 221 291 249 291 c 0xdc
131 89 m 9
 177 101 200 119 249 119 c 0
 269 119 284 113 284 85 c 0
 284 60 181 22 112 22 c 0
 84 22 61 29 56 45 c 0
 42 82 26 126 20 170 c 1
 49 187 75 191 89 191 c 0
 121 191 115 150 131 89 c 9
EndSplineSet
Validated: 1
Layer: 2
SplineSet
405 366 m 128,-1,1
 416 379 416 379 439.5 379 c 128,-1,2
 463 379 463 379 484.5 363.5 c 128,-1,3
 506 348 506 348 506 328.5 c 128,-1,4
 506 309 506 309 491.5 293 c 128,-1,5
 477 277 477 277 453.5 277 c 128,-1,6
 430 277 430 277 412 293.5 c 128,-1,7
 394 310 394 310 394 331.5 c 128,-1,0
 394 353 394 353 405 366 c 128,-1,1
218 278 m 128,-1,9
 229 291 229 291 252.5 291 c 128,-1,10
 276 291 276 291 298 275.5 c 128,-1,11
 320 260 320 260 320 240.5 c 128,-1,12
 320 221 320 221 305 205 c 128,-1,13
 290 189 290 189 266.5 189 c 128,-1,14
 243 189 243 189 225 205.5 c 128,-1,15
 207 222 207 222 207 243.5 c 128,-1,8
 207 265 207 265 218 278 c 128,-1,9
131 89 m 9,16,17
 147 93 147 93 181 106 c 0,18,19
 214 119 214 119 249 119 c 128,-1,20
 284 119 284 119 284 85 c 0,21,22
 284 66 284 66 224 44 c 128,-1,23
 164 22 164 22 113.5 22 c 128,-1,24
 63 22 63 22 56 45 c 1,25,26
 26 123 26 123 20 170 c 1,27,28
 56 191 56 191 89 191 c 0,29,30
 107 191 107 191 113 172 c 0,31,32
 116 163 116 163 122 133 c 0,33,34
 126 106 126 106 131 89 c 9,16,17
EndSplineSet
Validated: 1
LCarets2: 1 0
Ligature2: "'ccmp' Znamenny Ligatures 0-1" uniEE75 uniEE51
Colour: ffff00
EndChar

StartChar: uniEE79
Encoding: 61049 61049 32
Width: 484
VWidth: 0
Flags: W
HStem: 21 21G<365 385.5> 200 94<358.533 444.92> 346 83<256.955 342.529>
VStem: 242 116<359.333 417.063> 341 123<212.73 280.592>
DStem2: 93 433 43 359 0.618774 -0.785569<-21.1807 421.253>
LayerCount: 3
Fore
SplineSet
402 294 m 0xe8
 434 294 464 276 464 248 c 0
 464 218 429 200 399 200 c 0
 367 200 341 225 341 251 c 0
 341 274 365 294 402 294 c 0xe8
242 396 m 0xf0
 242 413 263 429 293 429 c 0
 325 429 358 411 358 383 c 0
 358 360 334 346 306 346 c 0
 276 346 242 367 242 396 c 0xf0
20 403 m 0
 20 426 45 441 71 441 c 0
 78 441 86 440 93 433 c 0
 209 285 272 204 406 74 c 0
 409 68 411 63 411 58 c 0
 411 42 397 24 379 21 c 1
 334 22 332 33 311 54 c 1
 202 149 145 232 43 359 c 0
 31 373 20 383 20 403 c 0
EndSplineSet
Validated: 1
Layer: 2
SplineSet
358 281.5 m 128,-1,1
 375 294 375 294 401 294 c 128,-1,2
 427 294 427 294 445.5 281 c 128,-1,3
 464 268 464 268 464 247.5 c 128,-1,4
 464 227 464 227 443.5 213.5 c 128,-1,5
 423 200 423 200 399 200 c 128,-1,6
 375 200 375 200 358 215.5 c 128,-1,7
 341 231 341 231 341 250 c 128,-1,0
 341 269 341 269 358 281.5 c 128,-1,1
262 360.5 m 128,-1,9
 242 375 242 375 242 392 c 128,-1,10
 242 409 242 409 256.5 419 c 128,-1,11
 271 429 271 429 294.5 429 c 128,-1,12
 318 429 318 429 338 416 c 128,-1,13
 358 403 358 403 358 384.5 c 128,-1,14
 358 366 358 366 343 356 c 128,-1,15
 328 346 328 346 305 346 c 128,-1,8
 282 346 282 346 262 360.5 c 128,-1,9
20 403 m 128,-1,17
 20 420 20 420 35.5 430.5 c 128,-1,18
 51 441 51 441 68 441 c 128,-1,19
 85 441 85 441 93 433 c 1,20,21
 166 340 166 340 200 298 c 0,22,23
 290 186 290 186 406 74 c 1,24,25
 411 64 411 64 411 55 c 128,-1,26
 411 46 411 46 401.5 34.5 c 128,-1,27
 392 23 392 23 379 21 c 1,28,29
 351 21 351 21 342.5 26.5 c 128,-1,30
 334 32 334 32 331.5 33.5 c 128,-1,31
 329 35 329 35 321.5 43 c 128,-1,32
 314 51 314 51 293 69.5 c 128,-1,33
 272 88 272 88 234 128.5 c 128,-1,34
 196 169 196 169 177 191 c 128,-1,35
 158 213 158 213 43 359 c 1,36,16
 20 386 20 386 20 403 c 128,-1,17
EndSplineSet
Validated: 1
LCarets2: 1 0
Ligature2: "'ccmp' Znamenny Ligatures 0-1" uniEE78 uniEE5B
Colour: ffff00
EndChar

StartChar: uniEE7D
Encoding: 61053 61053 33
Width: 396
VWidth: 0
Flags: W
HStem: 21 21G<132.75 156.25> 121 62<102 120.735> 127 88<276.509 359.625>
VStem: 122 106<77.8606 120.986> 261 114<143.473 198.497>
LayerCount: 3
Fore
SplineSet
307 215 m 0xb8
 340 215 375 189 375 162 c 0
 375 137 352 127 329 127 c 0
 294 127 261 155 261 181 c 0
 261 197 277 215 307 215 c 0xb8
122 102 m 0
 122 109 112 121 102 121 c 0
 92 121 83 110 73 110 c 0
 72 110 70 110 68 111 c 0
 45 120 40 135 20 151 c 1
 20 153 l 2
 20 174 57 183 93 183 c 0xd8
 163 183 228 141 228 86 c 1
 228 49 174 21 138 21 c 0
 118 21 92 34 92 65 c 0
 92 76 105 78 117 91 c 0
 121 95 122 99 122 102 c 0
EndSplineSet
Validated: 1
Layer: 2
SplineSet
273.5 204.5 m 128,-1,1
 286 215 286 215 309 215 c 128,-1,2
 332 215 332 215 353.5 198.5 c 128,-1,3
 375 182 375 182 375 163 c 0,4,5
 375 127 375 127 329 127 c 0,6,7
 303 127 303 127 282 144 c 128,-1,8
 261 161 261 161 261 177.5 c 128,-1,0
 261 194 261 194 273.5 204.5 c 128,-1,1
102 121 m 1,9,-1
 73 110 l 1,10,11
 61 110 61 110 43 128.5 c 128,-1,12
 25 147 25 147 20 151 c 1,13,-1
 20 153 l 2,14,15
 20 168 20 168 41.5 175.5 c 128,-1,16
 63 183 63 183 93 183 c 0,17,18
 147 183 147 183 187.5 154.5 c 128,-1,19
 228 126 228 126 228 86 c 0,20,21
 228 60 228 60 198 40.5 c 128,-1,22
 168 21 168 21 144.5 21 c 128,-1,23
 121 21 121 21 106.5 32.5 c 128,-1,24
 92 44 92 44 92 65 c 0,25,26
 92 72 92 72 102 79 c 128,-1,27
 112 86 112 86 117 91 c 128,-1,28
 122 96 122 96 122 102 c 128,-1,29
 122 108 122 108 115.5 114.5 c 128,-1,30
 109 121 109 121 102 121 c 1,9,-1
EndSplineSet
Validated: 1
Colour: ffff00
EndChar

StartChar: uniEE7F
Encoding: 61055 61055 34
Width: 805
VWidth: 0
Flags: W
HStem: 21 21G<113.5 151> 121 62<102 121.705> 126 67<566.836 683.399> 201 20G<256 306>
VStem: 122 106<77.1867 120.743> 701.5 83.5<219.41 296.621>
AnchorPoint: "Tonal" 206.92 270.04 basechar 0
AnchorPoint: "Podchashie" 398.76 0 basechar 0
AnchorPoint: "Right" 819.36 360 basechar 0
LayerCount: 3
Fore
SplineSet
744 309 m 27xa8
 767 309 785 293 785 265 c 0
 785 224 785 203 755 172 c 8
 722 135 685 126 634 126 c 19
 553 126 507 156 466 200 c 8
 445 224 428 249 428 274 c 0
 428 291 449 304 468 304 c 0
 475 304 482 302 488 298 c 8
 521 277 523 247 554 223 c 24
 579 205 598 193 628 193 c 27
 655 193 672 200 688 219 c 24
 708 244 695 270 711 297 c 24
 718 309 730 309 744 309 c 27xa8
326 89 m 0
 308 89 292 98 289 121 c 0xc8
 288 123 288 124 288 125 c 0
 288 133 300 135 310 147 c 0
 319 156 308 165 299 168 c 0
 289 172 280 158 269 161 c 0
 250 168 245 181 231 195 c 1
 231 196 l 0
 231 214 259 221 289 221 c 0x98
 345 221 394 186 398 142 c 1
 398 112 354 89 326 89 c 0
138 21 m 0
 117 21 98 32 93 60 c 0
 93 62 92 64 92 65 c 0
 92 76 105 78 117 92 c 0
 130 104 117 114 107 120 c 0
 105 121 104 121 102 121 c 0
 92 121 83 110 73 110 c 0
 71 110 70 110 68 111 c 0
 45 120 40 136 20 151 c 1
 20 153 l 0
 20 174 57 183 93 183 c 0
 163 183 223 141 228 86 c 1
 228 49 174 21 138 21 c 0
EndSplineSet
Validated: 1
Layer: 2
SplineSet
740 309 m 27,0,1
 785 309 785 309 785 262 c 0,2,3
 785 240 785 240 784 228 c 0,4,5
 782 200 782 200 755 172 c 0,6,7
 711 126 711 126 634 126 c 0,8,9
 535 126 535 126 466 200 c 1,10,11
 428 243 428 243 428 274 c 0,12,13
 428 286 428 286 440.5 295 c 128,-1,14
 453 304 453 304 466 304 c 128,-1,15
 479 304 479 304 492 295.5 c 128,-1,16
 505 287 505 287 522 260.5 c 128,-1,17
 539 234 539 234 554 223 c 0,18,19
 596 193 596 193 631 193 c 128,-1,20
 666 193 666 193 688 219 c 0,21,22
 699 232 699 232 701.5 258.5 c 128,-1,23
 704 285 704 285 711 297 c 128,-1,24
 718 309 718 309 740 309 c 27,0,1
326 89 m 0,25,26
 293 89 293 89 289 121 c 0,27,28
 288 123 288 123 288 125.5 c 128,-1,29
 288 128 288 128 291 131 c 128,-1,30
 294 134 294 134 300 138 c 128,-1,31
 306 142 306 142 310.5 148 c 128,-1,32
 315 154 315 154 311 159.5 c 128,-1,33
 307 165 307 165 300.5 167.5 c 128,-1,34
 294 170 294 170 284 165 c 128,-1,35
 274 160 274 160 267 162 c 128,-1,36
 260 164 260 164 254.5 169 c 128,-1,37
 249 174 249 174 242 182.5 c 128,-1,38
 235 191 235 191 231 195 c 1,39,-1
 231 196 l 2,40,41
 231 221 231 221 281 221 c 128,-1,42
 331 221 331 221 363 198 c 128,-1,43
 395 175 395 175 398 142 c 1,44,45
 398 121 398 121 373.5 105 c 128,-1,46
 349 89 349 89 326 89 c 0,25,26
102 121 m 1,47,-1
 73 110 l 1,48,49
 61 110 61 110 43.5 128 c 128,-1,50
 26 146 26 146 20 151 c 1,51,-1
 20 153 l 2,52,53
 20 168 20 168 41.5 175.5 c 128,-1,54
 63 183 63 183 93 183 c 0,55,56
 146 183 146 183 185 155 c 128,-1,57
 224 127 224 127 228 86 c 1,58,59
 228 60 228 60 198 40.5 c 128,-1,60
 168 21 168 21 134 21 c 0,61,62
 93 21 93 21 93 60 c 0,63,64
 93 61 93 61 92 66 c 0,65,66
 92 71 92 71 107 83 c 128,-1,67
 122 95 122 95 122 103 c 128,-1,68
 122 111 122 111 113.5 116 c 128,-1,69
 105 121 105 121 102 121 c 1,47,-1
EndSplineSet
Validated: 1
Colour: ffff00
EndChar

StartChar: uniEE83
Encoding: 61059 61059 35
Width: 636
VWidth: 0
Flags: W
HStem: 22 75<278.443 360.966>
VStem: 274 91<26.3945 92.0371>
DStem2: 131 159.5 50 89 0.966206 0.257772<-101.267 368.116>
AnchorPoint: "Tonal" 263.28 241.72 basechar 0
AnchorPoint: "Podchashie" 342.48 -17 basechar 0
AnchorPoint: "Right" 645.68 270.92 basechar 0
LayerCount: 3
Fore
SplineSet
274 67 m 0
 274 90 293 97 314 97 c 0
 344 97 365 87 365 55 c 0
 365 29 344 22 323 22 c 0
 295 22 274 36 274 67 c 0
587 275 m 0
 605 275 615 263 615 258 c 0
 615 251 610 243 601 236 c 1
 394 184 443 196 290 154 c 8
 205 129 133 108 50 89 c 0
 49 89 47 89 45 89 c 0
 33 89 20 97 20 110 c 0
 20 117 34 129 42 131 c 8
 135 163 235 189 281 203 c 0
 304 210 518 275 587 275 c 0
EndSplineSet
Validated: 1
Layer: 2
SplineSet
274 67 m 0,0,1
 274 97 274 97 314 97 c 0,2,3
 365 97 365 97 365 55 c 0,4,5
 365 22 365 22 319.5 22 c 128,-1,6
 274 22 274 22 274 67 c 0,0,1
587 275 m 0,7,8
 599 275 599 275 607 269 c 128,-1,9
 615 263 615 263 615 255 c 128,-1,10
 615 247 615 247 601 236 c 1,11,12
 456 200 456 200 290 154 c 1,13,14
 136 109 136 109 50 89 c 1,15,-1
 45 89 l 2,16,17
 35 89 35 89 27.5 95 c 128,-1,18
 20 101 20 101 20 108 c 128,-1,19
 20 115 20 115 28 122 c 128,-1,20
 36 129 36 129 59.5 137 c 128,-1,21
 83 145 83 145 131 159.5 c 128,-1,22
 179 174 179 174 223.5 186.5 c 128,-1,23
 268 199 268 199 281 203 c 0,24,25
 518 275 518 275 587 275 c 0,7,8
EndSplineSet
Validated: 1
Colour: ffff00
EndChar

StartChar: uniEE85
Encoding: 61061 61061 36
Width: 636
VWidth: 0
Flags: W
HStem: 22 74<133.844 215.686> 62 76<319.037 401.808> 110 74<484.66 564.686>
VStem: 126 100<28.2715 72.8721> 314 92<67.6113 132.576> 474 101<115.362 160.809>
DStem2: 131 194.5 50 124 0.965768 0.259408<-101.344 368.124>
AnchorPoint: "Tonal" 296.72 298.04 basechar 0
AnchorPoint: "Podchashie" 404.08 -13.4805 basechar 0
AnchorPoint: "Right" 640.2 306.4 basechar 0
LayerCount: 3
Fore
SplineSet
575 148 m 0x3c
 575 120 548 110 520 110 c 0
 510 110 487 110 474 129 c 1
 474 130 474 131 474 133 c 0
 474 141 475 156 482 161 c 1
 499 170 522 184 541 184 c 0
 559 184 575 171 575 148 c 0x3c
314 108 m 0
 314 131 334 138 353 138 c 0x5c
 383 138 406 127 406 96 c 0x9c
 406 69 383 62 364 62 c 0x5c
 334 62 314 76 314 108 c 0
226 60 m 0
 226 32 198 22 172 22 c 0
 161 22 138 22 126 41 c 1
 126 53 l 2
 126 61 127 70 131 73 c 0
 151 83 172 96 193 96 c 0x9c
 209 96 226 85 226 60 c 0
587 310 m 0
 605 310 615 298 615 293 c 0
 615 286 610 279 601 272 c 1
 394 219 443 231 290 189 c 9
 205 164 133 143 50 124 c 1
 45 124 l 2
 33 124 20 133 20 145 c 0
 20 152 34 164 42 166 c 8
 135 198 235 224 281 238 c 0
 304 245 518 310 587 310 c 0
EndSplineSet
Validated: 1
Layer: 2
SplineSet
575 148 m 0,0,1
 575 110 575 110 520 110 c 0,2,3
 487 110 487 110 474 129 c 1,4,5
 474 133 l 2,6,7
 474 155 474 155 482 161 c 1,8,9
 525 184 525 184 540 184 c 128,-1,10
 555 184 555 184 565 174.5 c 128,-1,11
 575 165 575 165 575 148 c 0,0,1
314 108 m 0,12,13
 314 138 314 138 353 138 c 0,14,15
 406 138 406 138 406 96 c 0,16,17
 406 62 406 62 364 62 c 0,18,19
 314 62 314 62 314 108 c 0,12,13
226 60 m 0,20,21
 226 22 226 22 166 22 c 0,22,23
 138 22 138 22 126 41 c 1,24,-1
 126 53 l 2,25,26
 126 69 126 69 131 73 c 1,27,28
 177 96 177 96 191.5 96 c 128,-1,29
 206 96 206 96 216 87 c 128,-1,30
 226 78 226 78 226 60 c 0,20,21
587 310 m 0,31,32
 599 310 599 310 607 304 c 128,-1,33
 615 298 615 298 615 290.5 c 128,-1,34
 615 283 615 283 601 272 c 1,35,36
 473 239 473 239 290 189 c 1,37,38
 136 144 136 144 50 124 c 1,39,-1
 45 124 l 2,40,41
 36 124 36 124 28 130 c 128,-1,42
 20 136 20 136 20 143 c 128,-1,43
 20 150 20 150 28 157 c 128,-1,44
 36 164 36 164 59.5 172 c 128,-1,45
 83 180 83 180 131 194.5 c 128,-1,46
 179 209 179 209 223.5 221.5 c 128,-1,47
 268 234 268 234 281 238 c 0,48,49
 518 310 518 310 587 310 c 0,31,32
EndSplineSet
Validated: 1
Colour: ffff00
EndChar

StartChar: uniEE88
Encoding: 61064 61064 37
Width: 615
VWidth: 0
Flags: W
HStem: 22 21G<193.5 218> 178 64<444.19 487.863>
VStem: 489 105<135.744 177.899>
DStem2: 130 212 130.5 74.5 0.633484 -0.773756<-84.7962 189.046>
AnchorPoint: "Right" 614.92 211.8 basechar 0
AnchorPoint: "Podchashie" 302 -17 basechar 0
AnchorPoint: "Tonal" 136.56 329.72 basechar 0
LayerCount: 3
Fore
SplineSet
504 80 m 0
 483 80 464 90 459 119 c 0
 459 121 458 122 458 124 c 0
 458 134 471 136 485 150 c 0
 488 153 489 156 489 159 c 0
 489 168 478 178 468 178 c 0
 466 177 454 169 443 169 c 0
 440 169 438 169 436 170 c 8
 413 177 406 192 386 208 c 17
 386 210 l 2
 386 233 423 242 459 242 c 0
 529 242 594 199 594 145 c 1
 594 106 540 80 504 80 c 0
184 245 m 0
 184 265 209 270 226 270 c 0
 242 270 251 265 262 252 c 1
 276 238 397 124 397 71 c 0
 397 53 386 48 374 48 c 0
 358 48 341 55 332 64 c 9
 272 115 246 154 198 217 c 16
 191 226 184 235 184 245 c 0
20 240 m 0
 20 258 43 265 57 265 c 0
 84 265 93 259 105 243 c 16
 119 224 233 101 233 46 c 0
 233 31 219 22 203 22 c 0
 188 22 174 31 161 43 c 8
 101 101 78 143 33 212 c 16
 27 222 20 231 20 240 c 0
EndSplineSet
Validated: 1
Layer: 2
SplineSet
459 119 m 2,0,-1
 458 124 l 1,1,2
 458 130 458 130 474 140 c 0,3,4
 489 151 489 151 489 158.5 c 128,-1,5
 489 166 489 166 482 172 c 128,-1,6
 475 178 475 178 468 178 c 1,7,8
 450 169 450 169 444 169 c 128,-1,9
 438 169 438 169 432 171 c 128,-1,10
 426 173 426 173 418.5 178.5 c 128,-1,11
 411 184 411 184 402 193.5 c 128,-1,12
 393 203 393 203 386 208 c 1,13,-1
 386 210 l 2,14,15
 386 242 386 242 459 242 c 0,16,17
 512 242 512 242 553 213.5 c 128,-1,18
 594 185 594 185 594 145 c 0,19,20
 594 118 594 118 564 99 c 128,-1,21
 534 80 534 80 500 80 c 128,-1,22
 466 80 466 80 459 119 c 2,0,-1
184 245 m 0,23,24
 184 270 184 270 226 270 c 0,25,26
 247 270 247 270 262 252 c 1,27,28
 397 117 397 117 397 71 c 0,29,30
 397 48 397 48 372.5 48 c 128,-1,31
 348 48 348 48 332 64 c 1,32,33
 317 76 317 76 304 89.5 c 128,-1,34
 291 103 291 103 282 112 c 128,-1,35
 273 121 273 121 260 137 c 128,-1,36
 247 153 247 153 241.5 160 c 128,-1,37
 236 167 236 167 220 188.5 c 128,-1,38
 204 210 204 210 194 222.5 c 128,-1,39
 184 235 184 235 184 245 c 0,23,24
56.5 175.5 m 128,-1,41
 37 206 37 206 28.5 220 c 128,-1,42
 20 234 20 234 20 243 c 128,-1,43
 20 252 20 252 32 258.5 c 128,-1,44
 44 265 44 265 60 265 c 0,45,46
 88 265 88 265 105 243 c 0,47,48
 108 239 108 239 130 212 c 0,49,50
 154 184 154 184 175 157.5 c 128,-1,51
 196 131 196 131 214.5 98 c 128,-1,52
 233 65 233 65 233 50 c 0,53,54
 233 22 233 22 203 22 c 0,55,56
 184 22 184 22 164 41 c 128,-1,57
 144 60 144 60 130.5 74.5 c 128,-1,58
 117 89 117 89 102 109.5 c 128,-1,59
 87 130 87 130 81.5 137.5 c 128,-1,40
 76 145 76 145 56.5 175.5 c 128,-1,41
EndSplineSet
Validated: 1
Colour: ffff00
EndChar

StartChar: uniEE8E
Encoding: 61070 61070 38
Width: 696
VWidth: 0
Flags: W
HStem: 225 21G<43.25 53.75> 352 20G<253.75 263.25>
VStem: 456 112<343.146 406.781> 473 92<569.972 654.353> 538 87<-189.718 291.618> 552 95<179.753 292>
DStem2: 28 283 80 233 0.925778 0.378067<-2.64252 246.752> 134 153 167 96 0.926322 0.376734<-5.29346 244.017>
LayerCount: 3
Fore
SplineSet
579 -199 m 0xc8
 554 -199 537 -190 537 -169 c 2
 537 93 l 1xc8
 537 125 538 142 538 176 c 0
 538 221 547 246 552 292 c 1
 508 295 456 313 456 359 c 0xe0
 456 420 531 427 567 507 c 1
 521 533 473 544 473 596 c 0
 473 654 533 686 561 718 c 1
 563 709 565 705 565 697 c 0
 565 686 579 683 579 672 c 0
 579 640 565 624 565 593 c 0xd0
 565 575 588 568 607 568 c 0
 635 568 676 566 676 536 c 0
 676 459 568 448 568 371 c 0xe0
 568 331 647 341 647 301 c 0
 647 251 625 227 625 179 c 0
 625 63 625 -53 625 -169 c 0
 625 -183 609 -199 579 -199 c 0xc8
157 94 m 0
 138 94 121 112 121 133 c 0
 121 142 125 150 134 153 c 0
 241 195 255 202 348 239 c 0
 352 241 356 241 360 241 c 0
 378 241 391 225 391 206 c 0
 391 195 386 186 376 181 c 0
 288 146 251 128 167 96 c 0
 164 95 160 94 157 94 c 0
52 225 m 0
 33 225 18 241 18 263 c 0
 18 272 21 280 28 283 c 0
 137 325 151 332 244 369 c 0
 248 371 252 372 256 372 c 0
 272 372 287 356 287 337 c 0
 287 326 282 316 271 311 c 0
 185 276 148 258 63 227 c 0
 59 225 55 225 52 225 c 0
EndSplineSet
Validated: 1
Layer: 2
SplineSet
538 93 m 1,0,-1
 538 176 l 2,1,2
 538 202 538 202 545 241 c 128,-1,3
 552 280 552 280 552 292 c 1,4,5
 513 292 513 292 484.5 309.5 c 128,-1,6
 456 327 456 327 456 356 c 128,-1,7
 456 385 456 385 475.5 404.5 c 128,-1,8
 495 424 495 424 523.5 449 c 128,-1,9
 552 474 552 474 567 507 c 1,10,11
 542 521 542 521 533 525 c 0,12,13
 507 537 507 537 490 551 c 128,-1,14
 473 565 473 565 473 593.5 c 128,-1,15
 473 622 473 622 487 643.5 c 128,-1,16
 501 665 501 665 528 688 c 128,-1,17
 555 711 555 711 561 718 c 1,18,19
 565 700 565 700 565 696 c 128,-1,20
 565 692 565 692 572 685 c 128,-1,21
 579 678 579 678 579 667 c 128,-1,22
 579 656 579 656 572 632 c 128,-1,23
 565 608 565 608 565 593 c 0,24,25
 565 568 565 568 607 568 c 0,26,27
 676 568 676 568 676 536 c 0,28,29
 676 510 676 510 659 488.5 c 128,-1,30
 642 467 642 467 622 453.5 c 128,-1,31
 602 440 602 440 585 418.5 c 128,-1,32
 568 397 568 397 568 378 c 0,33,34
 568 347 568 347 608 336 c 0,35,36
 647 325 647 325 647 300.5 c 128,-1,37
 647 276 647 276 636 239.5 c 128,-1,38
 625 203 625 203 625 179 c 2,39,-1
 625 -169 l 2,40,41
 625 -181 625 -181 612.5 -190 c 128,-1,42
 600 -199 600 -199 579 -199 c 0,43,44
 537 -199 537 -199 537 -169 c 2,45,-1
 538 93 l 1,0,-1
167 96 m 0,46,47
 161 94 161 94 152 94 c 128,-1,48
 143 94 143 94 132 105.5 c 128,-1,49
 121 117 121 117 121 133 c 0,50,51
 121 148 121 148 134 153 c 0,52,53
 193 176 193 176 272 208 c 0,54,55
 351 241 351 241 362 241 c 128,-1,56
 373 241 373 241 382 230.5 c 128,-1,57
 391 220 391 220 391 204 c 128,-1,58
 391 188 391 188 376 181 c 1,59,60
 340 167 340 167 276.5 140.5 c 128,-1,61
 213 114 213 114 167 96 c 0,46,47
131.5 253 m 128,-1,63
 101 241 101 241 80 233 c 128,-1,64
 59 225 59 225 48.5 225 c 128,-1,65
 38 225 38 225 28 236 c 128,-1,66
 18 247 18 247 18 263 c 128,-1,67
 18 279 18 279 28 283 c 0,68,69
 134 325 134 325 192 348 c 0,70,71
 249 372 249 372 258.5 372 c 128,-1,72
 268 372 268 372 277.5 361.5 c 128,-1,73
 287 351 287 351 287 334.5 c 128,-1,74
 287 318 287 318 271 311 c 0,75,76
 242 299 242 299 202 282 c 128,-1,62
 162 265 162 265 131.5 253 c 128,-1,63
EndSplineSet
Validated: 1
Colour: ffff00
EndChar

StartChar: uniEE82
Encoding: 61058 61058 39
Width: 636
VWidth: 0
Flags: W
HStem: 21 86<271.799 305.904>
VStem: 262 48<83.157 105.452> 334 45<79.0648 119.135>
DStem2: 183 177 50 91 0.965768 0.259408<-155.585 314.143>
AnchorPoint: "Podchashie" 312.56 -21.5195 basechar 0
AnchorPoint: "Right" 638.76 268.4 basechar 0
AnchorPoint: "Tonal" 291.44 281.2 basechar 0
LayerCount: 3
Fore
SplineSet
262 63 m 0
 262 86 274 107 295 107 c 0
 313 107 307 100 313 84 c 0
 316 75 327 79 332 84 c 25
 337 91 330 100 335 107 c 25
 346 118 357 118 371 125 c 17
 377 122 379 116 379 109 c 0
 379 99 376 87 371 75 c 0
 357 42 327 21 298 21 c 0
 274 21 262 40 262 63 c 0
587 278 m 0
 605 278 615 265 615 260 c 0
 615 253 610 246 601 239 c 1
 394 186 443 198 290 156 c 9
 205 132 133 110 50 91 c 0
 49 91 47 91 45 91 c 0
 33 91 20 100 20 112 c 0
 20 119 34 132 42 133 c 8
 135 165 235 191 281 206 c 0
 304 213 518 278 587 278 c 0
EndSplineSet
Validated: 1
Layer: 2
SplineSet
262 63 m 128,-1,1
 262 81 262 81 271 94 c 128,-1,2
 280 107 280 107 291.5 107 c 128,-1,3
 303 107 303 107 306 105.5 c 128,-1,4
 309 104 309 104 310 96 c 128,-1,5
 311 88 311 88 313.5 83 c 128,-1,6
 316 78 316 78 322 79 c 0,7,8
 336 81 336 81 334 92.5 c 128,-1,9
 332 104 332 104 336.5 108.5 c 128,-1,10
 341 113 341 113 358 120 c 2,11,-1
 371 125 l 1,12,13
 379 121 379 121 379 107.5 c 128,-1,14
 379 94 379 94 370 72.5 c 128,-1,15
 361 51 361 51 340.5 36 c 128,-1,16
 320 21 320 21 300.5 21 c 128,-1,17
 281 21 281 21 271.5 33 c 128,-1,0
 262 45 262 45 262 63 c 128,-1,1
587 278 m 0,18,19
 599 278 599 278 607 271.5 c 128,-1,20
 615 265 615 265 615 257.5 c 128,-1,21
 615 250 615 250 601 239 c 1,22,23
 473 206 473 206 287.5 154.5 c 128,-1,24
 102 103 102 103 50 91 c 1,25,-1
 45 91 l 2,26,27
 36 91 36 91 28 97 c 128,-1,28
 20 103 20 103 20 110 c 128,-1,29
 20 117 20 117 28 124.5 c 128,-1,30
 36 132 36 132 66 142 c 128,-1,31
 96 152 96 152 183 177 c 128,-1,32
 270 202 270 202 281 206 c 0,33,34
 518 278 518 278 587 278 c 0,18,19
EndSplineSet
Validated: 1
Colour: ffff00
EndChar

StartChar: uniEE90
Encoding: 61072 61072 40
Width: 659
VWidth: 0
Flags: W
HStem: 20 21G<146.25 154.75> 166 62<463.626 533.617>
VStem: 534 105<123.18 165.645>
DStem2: 28 209 70.5 155.5 0.926179 0.377085<-3.4772 247.238> 132 79 167 22 0.929246 0.369462<-4.3603 245.457>
AnchorPoint: "Right" 659.04 214.32 basechar 0
AnchorPoint: "Podchashie" 299 -18 basechar 0
AnchorPoint: "Tonal" 384.48 328.72 basechar 0
LayerCount: 3
Fore
SplineSet
534 146 m 0
 534 154 523 166 512 166 c 0
 502 166 495 155 485 155 c 0
 483 155 482 155 480 156 c 8
 457 165 450 181 431 197 c 17
 431 198 l 2
 431 221 468 228 503 228 c 0
 574 228 633 186 639 132 c 1
 639 95 584 66 549 66 c 0
 529 66 503 79 503 109 c 0
 503 121 515 122 530 137 c 0
 533 140 534 143 534 146 c 0
156 20 m 0
 137 20 121 38 121 60 c 0
 121 68 124 76 132 79 c 0
 241 121 255 128 348 165 c 0
 352 167 356 167 359 167 c 0
 376 167 391 152 391 133 c 0
 391 122 386 112 375 107 c 0
 288 72 251 54 167 22 c 0
 163 21 159 20 156 20 c 0
51 151 m 0
 31 151 17 169 17 191 c 0
 17 199 20 206 28 209 c 0
 137 251 149 258 244 295 c 0
 248 297 252 298 256 298 c 0
 272 298 287 282 287 263 c 0
 287 252 282 242 271 237 c 0
 185 202 146 184 63 153 c 0
 59 151 55 151 51 151 c 0
EndSplineSet
Validated: 1
Layer: 2
SplineSet
529 136 m 128,-1,1
 534 141 534 141 534 146.5 c 128,-1,2
 534 152 534 152 527 159 c 128,-1,3
 520 166 520 166 513.5 166 c 128,-1,4
 507 166 507 166 498.5 160.5 c 128,-1,5
 490 155 490 155 486 155 c 128,-1,6
 482 155 482 155 476 157.5 c 128,-1,7
 470 160 470 160 462.5 166.5 c 128,-1,8
 455 173 455 173 446.5 182 c 128,-1,9
 438 191 438 191 431 197 c 1,10,-1
 431 198 l 2,11,12
 431 228 431 228 503 228 c 0,13,14
 556 228 556 228 595 200.5 c 128,-1,15
 634 173 634 173 639 132 c 1,16,17
 639 106 639 106 608.5 86 c 128,-1,18
 578 66 578 66 555 66 c 128,-1,19
 532 66 532 66 517.5 77 c 128,-1,20
 503 88 503 88 503 109 c 0,21,22
 503 117 503 117 513.5 124 c 128,-1,0
 524 131 524 131 529 136 c 128,-1,1
167 22 m 0,23,24
 159 20 159 20 150.5 20 c 128,-1,25
 142 20 142 20 131.5 32 c 128,-1,26
 121 44 121 44 121 59.5 c 128,-1,27
 121 75 121 75 132 79 c 0,28,29
 238 121 238 121 294 144 c 0,30,31
 351 167 351 167 361.5 167 c 128,-1,32
 372 167 372 167 381.5 157 c 128,-1,33
 391 147 391 147 391 130.5 c 128,-1,34
 391 114 391 114 375 107 c 0,35,36
 217 41 217 41 167 22 c 0,23,24
271 237 m 0,37,38
 82 160 82 160 70.5 155.5 c 128,-1,39
 59 151 59 151 47.5 151 c 128,-1,40
 36 151 36 151 26.5 162.5 c 128,-1,41
 17 174 17 174 17 189.5 c 128,-1,42
 17 205 17 205 28 209 c 0,43,44
 167 264 167 264 208.5 281 c 128,-1,45
 250 298 250 298 259 298 c 128,-1,46
 268 298 268 298 277.5 287.5 c 128,-1,47
 287 277 287 277 287 260.5 c 128,-1,48
 287 244 287 244 271 237 c 0,37,38
EndSplineSet
Validated: 1
Colour: ffff00
EndChar

StartChar: uniEE91
Encoding: 61073 61073 41
Width: 775
VWidth: 0
Flags: W
HStem: 22 21G<147.5 156.5> 141 47<438 500.053> 205 62<659.107 750.214>
VStem: 526 87<243.408 313.889> 584 65<106.623 163.514>
DStem2: 28 211 80 161 0.925778 0.378067<-2.64252 246.752> 134 81 167 24 0.937673 0.34752<-3.36234 244.03 330.113 419.624>
AnchorPoint: "Right" 801.76 293.76 basechar 0
AnchorPoint: "Podchashie" 299 -14.2402 basechar 0
AnchorPoint: "Tonal" 415.16 381.76 basechar 0
LayerCount: 3
Fore
SplineSet
559 169 m 25xb0
 519 156 469 141 463 141 c 0
 451 141 436 154 436 169 c 0
 436 174 438 179 438 188 c 1xd0
 473 206 496 206 530 220 c 1
 530 225 l 2
 530 243 526 254 526 269 c 0
 526 299 538 334 574 334 c 0
 581 334 589 332 598 331 c 1
 618 324 607 276 618 243 c 1
 647 250 679 267 709 267 c 0
 725 267 755 248 755 234 c 0
 755 200 639 179 639 179 c 1
 639 165 649 144 649 128 c 0
 649 109 632 105 609 105 c 0
 570 105 579 144 559 169 c 25xb0
157 22 m 0
 138 22 121 40 121 61 c 0
 121 70 125 78 134 81 c 0
 241 123 255 130 348 167 c 0
 352 169 356 169 360 169 c 0
 378 169 391 153 391 134 c 0
 391 123 386 114 376 109 c 0
 288 74 251 56 167 24 c 0
 164 23 160 22 157 22 c 0
52 153 m 0
 33 153 18 169 18 191 c 0
 18 200 21 208 28 211 c 0
 137 253 151 260 244 297 c 0
 248 299 252 300 256 300 c 0
 272 300 287 284 287 265 c 0
 287 254 282 244 271 239 c 0
 185 204 148 186 63 155 c 0
 59 153 55 153 52 153 c 0
EndSplineSet
Validated: 1
Layer: 2
SplineSet
639 179 m 1,0,-1
 649 128 l 1,1,2
 649 105 649 105 609 105 c 0,3,4
 591 105 591 105 584 114 c 0,5,6
 576 124 576 124 571 141 c 128,-1,7
 566 158 566 158 559 169 c 25,8,9
 473 141 473 141 463.5 141 c 128,-1,10
 454 141 454 141 445 149.5 c 128,-1,11
 436 158 436 158 436 169 c 1,12,-1
 438 188 l 1,13,14
 457 198 457 198 486.5 206 c 128,-1,15
 516 214 516 214 530 220 c 1,16,-1
 529 238 l 24,17,-1
 526 269 l 1,18,19
 526 295 526 295 537.5 314.5 c 128,-1,20
 549 334 549 334 574 334 c 1,21,-1
 598 331 l 1,22,23
 607 328 607 328 610 314 c 128,-1,24
 613 300 613 300 613 278 c 128,-1,25
 613 256 613 256 618 243 c 1,26,27
 623 244 623 244 657 255.5 c 128,-1,28
 691 267 691 267 706.5 267 c 128,-1,29
 722 267 722 267 738.5 255.5 c 128,-1,30
 755 244 755 244 755 234 c 0,31,32
 755 219 755 219 726 205 c 128,-1,33
 697 191 697 191 668 185 c 2,34,-1
 639 179 l 1,0,-1
167 24 m 0,35,36
 161 22 161 22 152 22 c 128,-1,37
 143 22 143 22 132 33.5 c 128,-1,38
 121 45 121 45 121 61 c 0,39,40
 121 76 121 76 134 81 c 0,41,42
 193 104 193 104 272 136 c 0,43,44
 351 169 351 169 362 169 c 128,-1,45
 373 169 373 169 382 158.5 c 128,-1,46
 391 148 391 148 391 132 c 128,-1,47
 391 116 391 116 376 109 c 1,48,49
 340 95 340 95 276.5 68.5 c 128,-1,50
 213 42 213 42 167 24 c 0,35,36
131.5 181 m 128,-1,52
 101 169 101 169 80 161 c 128,-1,53
 59 153 59 153 48.5 153 c 128,-1,54
 38 153 38 153 28 164 c 128,-1,55
 18 175 18 175 18 191 c 128,-1,56
 18 207 18 207 28 211 c 0,57,58
 134 253 134 253 192 276 c 0,59,60
 249 300 249 300 258.5 300 c 128,-1,61
 268 300 268 300 277.5 289.5 c 128,-1,62
 287 279 287 279 287 262.5 c 128,-1,63
 287 246 287 246 271 239 c 0,64,65
 242 227 242 227 202 210 c 128,-1,51
 162 193 162 193 131.5 181 c 128,-1,52
EndSplineSet
Validated: 1
Colour: ffff00
EndChar

StartChar: uniEE92
Encoding: 61074 61074 42
Width: 964
VWidth: 0
Flags: W
HStem: 22 21G<146.25 154.75> 198 62<429.626 499.617> 206 46<627.531 688.899> 270.5 60.5<851.152 940.573>
VStem: 500 105<155.18 197.645> 715 88<307.409 391.792> 761 79<179.799 232.638>
DStem2: 28 211 70.5 157.5 0.926179 0.377085<-3.4772 247.238> 132 81 167 24 0.929246 0.369462<-4.3603 245.457>
AnchorPoint: "Right" 981.38 327.92 basechar 0
AnchorPoint: "Podchashie" 299 -16 basechar 0
AnchorPoint: "Tonal" 425.16 362.48 basechar 0
LayerCount: 3
Fore
SplineSet
749 233 m 25xb4
 710 221 658 206 654 206 c 0
 642 206 627 218 627 233 c 0
 627 240 629 245 627 252 c 1
 662 270 685 270 719 284 c 1
 719 286 719 288 719 290 c 0
 719 307 715 318 715 333 c 0
 715 365 727 400 763 400 c 0
 771 400 778 398 787 395 c 0
 808 390 798 342 807 307 c 1xb8
 837 316 870 331 898 331 c 0
 914 331 944 314 944 300 c 0
 944 266 828 243 828 243 c 1
 831 229 840 210 840 194 c 0
 840 173 821 170 800 170 c 0
 761 170 768 208 749 233 c 25xb4
500 178 m 0
 500 186 489 198 478 198 c 0
 468 198 461 187 451 187 c 0
 449 187 448 187 446 188 c 8
 423 197 416 213 397 229 c 17
 397 230 l 2
 397 253 434 260 469 260 c 0xd0
 540 260 599 218 605 164 c 1
 605 127 550 98 515 98 c 0
 495 98 469 111 469 141 c 0
 469 153 481 154 496 169 c 0
 499 172 500 175 500 178 c 0
156 22 m 0
 137 22 121 40 121 62 c 0
 121 70 124 78 132 81 c 0
 241 123 255 130 348 167 c 0
 352 169 356 169 359 169 c 0
 376 169 391 154 391 135 c 0
 391 124 386 114 375 109 c 0
 288 74 251 56 167 24 c 0
 163 23 159 22 156 22 c 0
51 153 m 0
 31 153 17 171 17 193 c 0
 17 201 20 208 28 211 c 0
 137 253 149 260 244 297 c 0
 248 299 252 300 256 300 c 0
 272 300 287 284 287 265 c 0
 287 254 282 244 271 239 c 0
 185 204 146 186 63 155 c 0
 59 153 55 153 51 153 c 0
EndSplineSet
Validated: 1
Layer: 2
SplineSet
715 333 m 1,0,1
 715 400 715 400 766 400 c 0,2,3
 794 400 794 400 799 380 c 0,4,5
 802 367 802 367 803 343 c 0,6,7
 804 320 804 320 807 307 c 1,8,9
 814 309 814 309 835.5 316.5 c 128,-1,10
 857 324 857 324 871 327.5 c 128,-1,11
 885 331 885 331 898 331 c 128,-1,12
 911 331 911 331 927.5 320.5 c 128,-1,13
 944 310 944 310 944 300 c 0,14,15
 944 285 944 285 915 270.5 c 128,-1,16
 886 256 886 256 857 250 c 2,17,-1
 828 243 l 1,18,19
 828 241 828 241 834 222 c 128,-1,20
 840 203 840 203 840 194 c 0,21,22
 840 170 840 170 800 170 c 0,23,24
 783 170 783 170 775 179.5 c 128,-1,25
 767 189 767 189 761 207 c 128,-1,26
 755 225 755 225 749 233 c 25,27,28
 661 206 661 206 652.5 206 c 128,-1,29
 644 206 644 206 635.5 214 c 128,-1,30
 627 222 627 222 627 233 c 2,31,-1
 627 252 l 1,32,33
 646 262 646 262 675.5 270 c 128,-1,34
 705 278 705 278 719 284 c 1,35,-1
 719 290 l 1,36,-1
 715 333 l 1,0,1
495 168 m 128,-1,38
 500 173 500 173 500 178.5 c 128,-1,39
 500 184 500 184 493 191 c 128,-1,40
 486 198 486 198 479.5 198 c 128,-1,41
 473 198 473 198 464.5 192.5 c 128,-1,42
 456 187 456 187 452 187 c 128,-1,43
 448 187 448 187 442 189.5 c 128,-1,44
 436 192 436 192 428.5 198.5 c 128,-1,45
 421 205 421 205 412.5 214 c 128,-1,46
 404 223 404 223 397 229 c 1,47,-1
 397 230 l 2,48,49
 397 260 397 260 469 260 c 0,50,51
 522 260 522 260 561 232.5 c 128,-1,52
 600 205 600 205 605 164 c 1,53,54
 605 138 605 138 574.5 118 c 128,-1,55
 544 98 544 98 521 98 c 128,-1,56
 498 98 498 98 483.5 109 c 128,-1,57
 469 120 469 120 469 141 c 0,58,59
 469 149 469 149 479.5 156 c 128,-1,37
 490 163 490 163 495 168 c 128,-1,38
167 24 m 0,60,61
 159 22 159 22 150.5 22 c 128,-1,62
 142 22 142 22 131.5 34 c 128,-1,63
 121 46 121 46 121 61.5 c 128,-1,64
 121 77 121 77 132 81 c 0,65,66
 238 123 238 123 294 146 c 0,67,68
 351 169 351 169 361.5 169 c 128,-1,69
 372 169 372 169 381.5 159 c 128,-1,70
 391 149 391 149 391 132.5 c 128,-1,71
 391 116 391 116 375 109 c 0,72,73
 217 43 217 43 167 24 c 0,60,61
271 239 m 0,74,75
 82 162 82 162 70.5 157.5 c 128,-1,76
 59 153 59 153 47.5 153 c 128,-1,77
 36 153 36 153 26.5 164.5 c 128,-1,78
 17 176 17 176 17 191.5 c 128,-1,79
 17 207 17 207 28 211 c 0,80,81
 167 266 167 266 208.5 283 c 128,-1,82
 250 300 250 300 259 300 c 128,-1,83
 268 300 268 300 277.5 289.5 c 128,-1,84
 287 279 287 279 287 262.5 c 128,-1,85
 287 246 287 246 271 239 c 0,74,75
EndSplineSet
Validated: 1
Colour: ffff00
EndChar

StartChar: uniEE94
Encoding: 61076 61076 43
Width: 841
VWidth: 0
Flags: W
HStem: 21 60<119.313 199.569> 82 62<292.121 382.864> 162 59<29.797 109.113> 223 62<201.083 287.718 694 713.863> 361 20G<371.25 387.75>
VStem: 715 105<181.17 222.518>
DStem2: 405 372 356 298 0.608703 -0.793398<-18.7803 388.907>
AnchorPoint: "Right" 858.56 278.6 basechar 0
AnchorPoint: "Podchashie" 302 -18 basechar 0
AnchorPoint: "Tonal" 136.56 328.72 basechar 0
LayerCount: 3
Fore
SplineSet
715 205 m 0
 715 213 704 223 694 223 c 0
 684 223 675 213 666 213 c 2
 662 213 l 9
 639 222 632 238 613 254 c 17
 613 256 l 2
 613 279 650 287 685 287 c 0
 755 287 820 243 820 191 c 0
 820 152 766 125 731 125 c 0
 709 125 690 136 685 164 c 0
 684 166 684 167 684 169 c 0
 684 180 697 180 711 196 c 0
 714 199 715 202 715 205 c 0
333 342 m 0
 333 365 357 381 384 381 c 0
 391 381 398 379 405 372 c 0
 474 289 547 205 635 92 c 1
 650 76 655 66 655 46 c 0
 655 30 641 18 623 18 c 0
 591 18 579 37 558 59 c 1
 423 226 403 245 356 298 c 0
 343 312 333 323 333 342 c 0
142 21 m 2
 125 21 109 36 109 58 c 0
 109 68 112 78 122 81 c 0
 235 110 249 116 348 144 c 1
 355 144 l 2
 372 144 386 125 386 109 c 0
 386 96 379 86 367 82 c 0
 277 58 237 44 151 21 c 1
 142 21 l 2
54 162 m 0
 34 162 20 177 20 200 c 0
 20 211 24 220 33 221 c 1
 145 253 159 257 258 285 c 1
 265 285 l 2
 284 285 297 267 297 250 c 0
 297 237 291 227 277 223 c 0
 188 198 149 186 61 163 c 0
 59 162 56 162 54 162 c 0
EndSplineSet
Validated: 1
Layer: 2
SplineSet
694 223 m 1,0,-1
 666 213 l 1,1,-1
 662 213 l 1,2,3
 648 219 648 219 634 233.5 c 128,-1,4
 620 248 620 248 613 254 c 1,5,-1
 613 256 l 2,6,7
 613 287 613 287 685 287 c 0,8,9
 738 287 738 287 779 258.5 c 128,-1,10
 820 230 820 230 820 191 c 0,11,12
 820 164 820 164 790 144.5 c 128,-1,13
 760 125 760 125 731 125 c 0,14,15
 692 125 692 125 685 164 c 0,16,17
 684 166 684 166 684 170.5 c 128,-1,18
 684 175 684 175 700 186 c 0,19,20
 715 197 715 197 715 204 c 128,-1,21
 715 211 715 211 708 217 c 128,-1,22
 701 223 701 223 694 223 c 1,0,-1
356 298 m 0,23,24
 333 323 333 323 333 341 c 128,-1,25
 333 359 333 359 348 370 c 128,-1,26
 363 381 363 381 379.5 381 c 128,-1,27
 396 381 396 381 405 372 c 1,28,29
 594 145 594 145 635 92 c 1,30,31
 655 71 655 71 655 52 c 0,32,33
 655 18 655 18 623 18 c 0,34,35
 603 18 603 18 593.5 25 c 128,-1,36
 584 32 584 32 581.5 34 c 128,-1,37
 579 36 579 36 569 47 c 128,-1,38
 559 58 559 58 507 122 c 128,-1,39
 455 186 455 186 356 298 c 0,23,24
142 21 m 2,40,41
 129 21 129 21 119 31.5 c 128,-1,42
 109 42 109 42 109 59.5 c 128,-1,43
 109 77 109 77 122 81 c 0,44,45
 157 90 157 90 348 144 c 1,46,-1
 355 144 l 2,47,48
 367 144 367 144 376.5 133 c 128,-1,49
 386 122 386 122 386 105 c 128,-1,50
 386 88 386 88 367 82 c 1,51,52
 321 70 321 70 257 51 c 128,-1,53
 193 32 193 32 151 21 c 1,54,-1
 142 21 l 2,40,41
277 223 m 0,55,56
 96 172 96 172 77.5 167 c 128,-1,57
 59 162 59 162 49 162 c 128,-1,58
 39 162 39 162 29.5 172.5 c 128,-1,59
 20 183 20 183 20 202 c 128,-1,60
 20 221 20 221 33 221 c 1,61,62
 159 257 159 257 258 285 c 1,63,-1
 265 285 l 2,64,65
 279 285 279 285 288 274 c 128,-1,66
 297 263 297 263 297 246 c 128,-1,67
 297 229 297 229 277 223 c 0,55,56
EndSplineSet
Validated: 1
Colour: ffff00
EndChar

StartChar: uniEE96
Encoding: 61078 61078 44
Width: 835
VWidth: 0
Flags: W
HStem: 19 21G<146.25 154.75> 189 62<435.383 505.617> 217 63<640.396 709.245>
VStem: 506 105<146.871 188.645> 710 105<174.163 216.693>
DStem2: 28 208 69.5 154 0.926135 0.377191<-4.36726 247.238> 132 78 167 21 0.929246 0.369462<-4.3603 246.785>
AnchorPoint: "Right" 834.96 256.44 basechar 0
AnchorPoint: "Podchashie" 299 -19 basechar 0
AnchorPoint: "Tonal" 399.32 306.6 basechar 0
LayerCount: 3
Fore
SplineSet
710 198 m 0xb0
 710 205 699 217 688 217 c 0xb0
 679 217 671 206 661 206 c 0
 660 206 658 207 656 207 c 8
 634 216 627 232 609 248 c 17
 609 251 l 2xd0
 609 273 646 280 679 280 c 0
 750 280 810 237 815 183 c 1
 815 146 760 118 725 118 c 0
 704 118 685 128 679 156 c 0
 679 157 679 157 679 158 c 0
 679 172 691 173 706 188 c 0
 709 191 710 195 710 198 c 0xb0
506 169 m 0
 506 177 495 189 484 189 c 0
 475 189 467 178 457 178 c 0
 456 178 454 179 452 179 c 8
 429 188 422 204 403 220 c 17
 403 221 l 2
 403 244 440 251 475 251 c 0xd0
 546 251 605 209 611 155 c 1
 611 118 556 89 521 89 c 0
 500 89 480 100 475 128 c 1
 475 133 l 2
 475 144 487 146 502 160 c 0
 504 163 506 166 506 169 c 0
156 19 m 0
 137 19 121 36 121 58 c 0
 121 67 124 75 132 78 c 0
 241 120 255 127 348 164 c 0
 352 166 356 167 359 167 c 0
 377 167 391 148 391 131 c 0
 391 121 386 111 375 106 c 0
 288 71 251 53 167 21 c 0
 163 20 159 19 156 19 c 0
52 149 m 0
 31 149 17 168 17 190 c 0
 17 198 20 205 28 208 c 0
 137 250 149 257 244 294 c 0
 248 296 252 297 256 297 c 0
 273 297 287 278 287 261 c 0
 287 251 282 241 271 236 c 0
 185 201 146 183 63 152 c 0
 59 150 55 149 52 149 c 0
EndSplineSet
Validated: 1
Layer: 2
SplineSet
675 211.5 m 128,-1,1
 666 206 666 206 661.5 206.5 c 128,-1,2
 657 207 657 207 651.5 209 c 128,-1,3
 646 211 646 211 639 217.5 c 128,-1,4
 632 224 632 224 623.5 233.5 c 128,-1,5
 615 243 615 243 609 248 c 1,6,-1
 609 251 l 2,7,8
 609 280 609 280 670.5 280 c 128,-1,9
 732 280 732 280 771.5 252 c 128,-1,10
 811 224 811 224 815 183 c 1,11,12
 815 157 815 157 784.5 137.5 c 128,-1,13
 754 118 754 118 720.5 118 c 128,-1,14
 687 118 687 118 679 156 c 1,15,-1
 679 158 l 2,16,17
 679 168 679 168 690 175.5 c 128,-1,18
 701 183 701 183 705.5 187.5 c 128,-1,19
 710 192 710 192 710 198 c 128,-1,20
 710 204 710 204 703 210.5 c 128,-1,21
 696 217 696 217 690 217 c 128,-1,0
 684 217 684 217 675 211.5 c 128,-1,1
471 183.5 m 128,-1,23
 462 178 462 178 457.5 178.5 c 128,-1,24
 453 179 453 179 447.5 181 c 128,-1,25
 442 183 442 183 434.5 189.5 c 128,-1,26
 427 196 427 196 418.5 205 c 128,-1,27
 410 214 410 214 403 220 c 1,28,-1
 403 221 l 2,29,30
 403 251 403 251 475 251 c 0,31,32
 528 251 528 251 567 223.5 c 128,-1,33
 606 196 606 196 611 155 c 1,34,35
 611 129 611 129 580.5 109 c 128,-1,36
 550 89 550 89 521 89 c 0,37,38
 482 89 482 89 475 128 c 1,39,-1
 475 133 l 2,40,41
 475 141 475 141 490 151 c 0,42,43
 506 161 506 161 506 168 c 128,-1,44
 506 175 506 175 499 182 c 128,-1,45
 492 189 492 189 486 189 c 128,-1,22
 480 189 480 189 471 183.5 c 128,-1,23
167 21 m 0,46,47
 159 19 159 19 150.5 19 c 128,-1,48
 142 19 142 19 131.5 30.5 c 128,-1,49
 121 42 121 42 121 58 c 128,-1,50
 121 74 121 74 132 78 c 0,51,52
 238 120 238 120 296 144 c 0,53,54
 353 167 353 167 362.5 167 c 128,-1,55
 372 167 372 167 381.5 155.5 c 128,-1,56
 391 144 391 144 391 128.5 c 128,-1,57
 391 113 391 113 375 106 c 0,58,59
 217 40 217 40 167 21 c 0,46,47
271 236 m 0,60,61
 82 159 82 159 69.5 154 c 128,-1,62
 57 149 57 149 47 149 c 128,-1,63
 37 149 37 149 27 161 c 128,-1,64
 17 173 17 173 17 188.5 c 128,-1,65
 17 204 17 204 28 208 c 0,66,67
 167 263 167 263 208.5 280 c 128,-1,68
 250 297 250 297 259 297 c 128,-1,69
 268 297 268 297 277.5 285.5 c 128,-1,70
 287 274 287 274 287 258.5 c 128,-1,71
 287 243 287 243 271 236 c 0,60,61
EndSplineSet
Validated: 1
Colour: ffff00
EndChar

StartChar: uniEE98
Encoding: 61080 61080 45
Width: 761
VWidth: 0
Flags: W
HStem: 22 60<118.283 203.426> 78 62<284.113 377.233> 119 66<521.987 638.922> 119 59<29.7982 120.589>
VStem: 656.5 84.5<212.409 289.106>
DStem2: 137.5 204 178.5 149 0.968611 0.248582<-93.617 133.39>
AnchorPoint: "Right" 814.72 236.44 basechar 0
AnchorPoint: "Podchashie" 302 -17 basechar 0
AnchorPoint: "Tonal" 556 371.96 basechar 0
LayerCount: 3
Fore
SplineSet
700 302 m 27x24
 725 302 741 284 741 258 c 0
 741 217 741 196 711 164 c 8
 677 127 640 119 589 119 c 19
 510 119 463 148 422 192 c 9
 401 217 384 240 384 266 c 0
 384 284 405 296 424 296 c 0
 431 296 438 295 443 291 c 8
 477 270 479 238 510 215 c 24
 535 196 554 185 584 185 c 27
 611 185 628 192 644 212 c 24
 663 236 651 263 667 289 c 24
 676 302 686 302 700 302 c 27x24
142 22 m 2x84
 122 22 109 37 109 60 c 0
 109 71 112 81 122 83 c 0x84
 235 110 249 115 348 140 c 1
 355 140 l 2
 374 140 386 122 386 104 c 0
 386 92 381 82 367 78 c 0x44
 276 55 237 43 149 22 c 1
 142 22 l 2x84
54 119 m 2x14
 34 119 20 134 20 155 c 0
 20 166 24 177 34 178 c 1x14
 147 207 161 210 260 236 c 1
 267 236 l 2
 286 236 298 217 298 201 c 0
 298 189 293 178 279 175 c 0x0c
 188 152 149 140 61 119 c 1
 54 119 l 2x14
EndSplineSet
Validated: 1
Layer: 2
SplineSet
698 302 m 19,0,1
 741 302 741 302 741 260 c 1,2,-1
 741 222 l 2,3,4
 741 192 741 192 711 164 c 0,5,6
 663 119 663 119 589 119 c 0,7,8
 490 119 490 119 422 192 c 1,9,10
 384 237 384 237 384 266 c 0,11,12
 384 279 384 279 396.5 287.5 c 128,-1,13
 409 296 409 296 423 296 c 128,-1,14
 437 296 437 296 443 291 c 1,15,16
 461 280 461 280 478.5 253 c 128,-1,17
 496 226 496 226 510 215 c 0,18,19
 549 185 549 185 585.5 185 c 128,-1,20
 622 185 622 185 644 212 c 0,21,22
 654 225 654 225 656.5 251 c 128,-1,23
 659 277 659 277 667.5 289.5 c 128,-1,24
 676 302 676 302 698 302 c 19,0,1
142 22 m 2,25,26
 127 22 127 22 118 32.5 c 128,-1,27
 109 43 109 43 109 61.5 c 128,-1,28
 109 80 109 80 118 82 c 128,-1,29
 127 84 127 84 348 140 c 1,30,-1
 355 140 l 2,31,32
 369 140 369 140 377.5 129 c 128,-1,33
 386 118 386 118 386 100.5 c 128,-1,34
 386 83 386 83 367 78 c 0,35,36
 334 70 334 70 266.5 52 c 128,-1,37
 199 34 199 34 149 22 c 1,38,-1
 142 22 l 2,25,26
54 119 m 2,39,40
 39 119 39 119 29.5 129 c 128,-1,41
 20 139 20 139 20 158 c 128,-1,42
 20 177 20 177 34 178 c 1,43,44
 76 189 76 189 137.5 204 c 128,-1,45
 199 219 199 219 260 236 c 1,46,-1
 267 236 l 2,47,48
 280 236 280 236 289 225 c 128,-1,49
 298 214 298 214 298 196.5 c 128,-1,50
 298 179 298 179 279 175 c 0,51,52
 246 167 246 167 178.5 149 c 128,-1,53
 111 131 111 131 61 119 c 1,54,-1
 54 119 l 2,39,40
EndSplineSet
Validated: 1
Colour: ffff00
EndChar

StartChar: uniEE97
Encoding: 61079 61079 46
Width: 989
VWidth: 0
Flags: W
HStem: 101 66<315.269 387.246 751.872 866.34> 186 62<436.626 506.617>
VStem: 507 105<143.18 185.645> 885.5 83.5<194.409 271.106>
DStem2: 28 207 70.5 153.5 0.926179 0.377085<-3.4772 247.238> 132 77 167 20 0.929246 0.369462<-4.3603 245.457>
AnchorPoint: "Right" 1002.94 286.88 basechar 0
AnchorPoint: "Podchashie" 299 -20 basechar 0
AnchorPoint: "Tonal" 427.48 310.88 basechar 0
LayerCount: 3
Fore
SplineSet
928 284 m 27
 953 284 969 268 969 240 c 0
 969 199 969 178 939 146 c 9
 906 109 869 101 818 101 c 19
 738 101 691 130 650 174 c 9
 629 199 612 224 612 248 c 0
 612 266 633 278 652 278 c 0
 659 278 666 277 672 273 c 8
 705 252 707 222 738 197 c 25
 765 180 782 167 812 167 c 27
 839 167 856 174 872 194 c 25
 893 218 879 245 895 271 c 24
 904 284 916 284 928 284 c 27
507 166 m 0
 507 174 496 186 485 186 c 0
 475 186 468 175 458 175 c 0
 456 175 455 175 453 176 c 8
 430 185 423 201 404 217 c 17
 404 218 l 2
 404 241 441 248 476 248 c 0
 547 248 606 206 612 152 c 1
 612 115 557 86 522 86 c 0
 502 86 476 99 476 129 c 0
 476 141 488 142 503 157 c 0
 506 160 507 163 507 166 c 0
156 18 m 0
 137 18 121 36 121 58 c 0
 121 66 124 74 132 77 c 0
 241 119 255 126 348 163 c 0
 352 165 355 165 359 165 c 0
 377 165 391 147 391 129 c 0
 391 119 386 110 375 105 c 0
 288 70 251 52 167 20 c 0
 163 19 159 18 156 18 c 0
51 149 m 0
 31 149 17 167 17 189 c 0
 17 197 20 204 28 207 c 0
 137 249 149 256 244 293 c 0
 248 295 252 296 256 296 c 0
 272 296 287 280 287 261 c 0
 287 250 282 240 271 235 c 0
 185 200 146 182 63 151 c 0
 59 149 55 149 51 149 c 0
EndSplineSet
Validated: 1
Layer: 2
SplineSet
969 244 m 1,0,-1
 968 204 l 2,1,2
 968 174 968 174 939 146 c 0,3,4
 892 101 892 101 818 101 c 0,5,6
 718 101 718 101 650 174 c 1,7,8
 612 219 612 219 612 248 c 0,9,10
 612 261 612 261 624.5 269.5 c 128,-1,11
 637 278 637 278 650.5 278 c 128,-1,12
 664 278 664 278 676.5 270 c 128,-1,13
 689 262 689 262 706.5 235.5 c 128,-1,14
 724 209 724 209 732 202.5 c 128,-1,15
 740 196 740 196 747.5 191 c 128,-1,16
 755 186 755 186 757 185 c 128,-1,17
 759 184 759 184 765 180.5 c 128,-1,18
 771 177 771 177 781 172 c 128,-1,19
 791 167 791 167 812 167 c 0,20,21
 850 167 850 167 872 194 c 0,22,23
 883 207 883 207 885.5 233 c 128,-1,24
 888 259 888 259 896 271.5 c 128,-1,25
 904 284 904 284 926 284 c 19,26,27
 969 284 969 284 969 244 c 1,0,-1
502 156 m 128,-1,29
 507 161 507 161 507 166.5 c 128,-1,30
 507 172 507 172 500 179 c 128,-1,31
 493 186 493 186 486.5 186 c 128,-1,32
 480 186 480 186 471.5 180.5 c 128,-1,33
 463 175 463 175 459 175 c 128,-1,34
 455 175 455 175 449 177.5 c 128,-1,35
 443 180 443 180 435.5 186.5 c 128,-1,36
 428 193 428 193 419.5 202 c 128,-1,37
 411 211 411 211 404 217 c 1,38,-1
 404 218 l 2,39,40
 404 248 404 248 476 248 c 0,41,42
 529 248 529 248 568 220.5 c 128,-1,43
 607 193 607 193 612 152 c 1,44,45
 612 126 612 126 581.5 106 c 128,-1,46
 551 86 551 86 528 86 c 128,-1,47
 505 86 505 86 490.5 97 c 128,-1,48
 476 108 476 108 476 129 c 0,49,50
 476 137 476 137 486.5 144 c 128,-1,28
 497 151 497 151 502 156 c 128,-1,29
167 20 m 0,51,52
 159 18 159 18 150.5 18 c 128,-1,53
 142 18 142 18 131.5 30 c 128,-1,54
 121 42 121 42 121 57.5 c 128,-1,55
 121 73 121 73 132 77 c 0,56,57
 238 119 238 119 294.5 142 c 128,-1,58
 351 165 351 165 361.5 165 c 128,-1,59
 372 165 372 165 381.5 154 c 128,-1,60
 391 143 391 143 391 127.5 c 128,-1,61
 391 112 391 112 375 105 c 0,62,63
 217 39 217 39 167 20 c 0,51,52
271 235 m 0,64,65
 82 158 82 158 70.5 153.5 c 128,-1,66
 59 149 59 149 47.5 149 c 128,-1,67
 36 149 36 149 26.5 160.5 c 128,-1,68
 17 172 17 172 17 187.5 c 128,-1,69
 17 203 17 203 28 207 c 0,70,71
 167 262 167 262 208.5 279 c 128,-1,72
 250 296 250 296 259 296 c 128,-1,73
 268 296 268 296 277.5 285.5 c 128,-1,74
 287 275 287 275 287 258.5 c 128,-1,75
 287 242 287 242 271 235 c 0,64,65
EndSplineSet
Validated: 1
Colour: ffff00
EndChar

StartChar: uniEE9C
Encoding: 61084 61084 47
Width: 1294
VWidth: 0
Flags: W
HStem: 20 21G<169.5 180.5> 116 46<729.5 788.503> 180 61<950.857 1040.32> 222 21G<449.5 552>
VStem: 816 88<217.439 287.889>
DStem2: 31 175 92 128 0.926602 0.376044<-2.02833 225.857> 156 78 205 27.5 0.926743 0.375696<-3.8612 244.498> 427 275 451 222 0.924382 0.381468<-25.9696 882.749>
AnchorPoint: "Right" 1315.36 614.56 basechar 0
AnchorPoint: "Podchashie" 922.96 -12.2803 basechar 0
AnchorPoint: "Tonal" 713.52 475.24 basechar 0
LayerCount: 3
Fore
SplineSet
851 143 m 25xe8
 810 131 760 116 755 116 c 0
 742 116 728 128 728 143 c 0
 728 150 729 155 729 162 c 1
 763 180 786 180 821 194 c 1
 821 215 816 227 816 243 c 0xd8
 816 273 830 308 865 308 c 0
 872 308 879 305 890 305 c 1
 909 299 898 252 909 217 c 1
 937 224 970 241 1000 241 c 0
 1014 241 1044 224 1044 209 c 0
 1044 176 930 153 930 153 c 1
 932 139 941 120 941 104 c 0
 941 83 921 79 900 79 c 0
 861 79 870 118 851 143 c 25xe8
432 223 m 0
 418 223 411 231 411 246 c 0
 411 258 417 270 427 275 c 0
 682 378 858 449 1217 598 c 1
 1224 604 1240 607 1250 607 c 0
 1268 607 1273 600 1273 583 c 0
 1273 569 1257 561 1245 556 c 0
 939 426 724 327 451 222 c 1
 448 223 444 223 441 223 c 0
 438 223 435 223 432 223 c 0
179 20 m 0
 159 20 144 36 144 58 c 0
 144 67 147 75 156 78 c 0
 263 120 277 127 372 164 c 0
 376 166 379 166 381 166 c 0
 401 166 415 147 415 129 c 0
 415 120 409 112 399 106 c 1
 313 71 274 53 189 22 c 0
 186 20 182 20 179 20 c 0
56 117 m 0
 36 117 20 133 20 156 c 0
 20 164 24 171 31 175 c 1
 140 217 137 214 230 252 c 0
 233 254 237 254 240 254 c 0
 258 254 272 235 272 217 c 0
 272 207 269 198 256 194 c 1
 170 159 151 150 66 119 c 0
 63 117 59 117 56 117 c 0
EndSplineSet
Validated: 1
Layer: 2
SplineSet
865 308 m 1,0,-1
 890 305 l 1,1,2
 898 302 898 302 901 288.5 c 128,-1,3
 904 275 904 275 904 253 c 128,-1,4
 904 231 904 231 909 217 c 1,5,6
 911 218 911 218 946.5 229.5 c 128,-1,7
 982 241 982 241 997 241 c 128,-1,8
 1012 241 1012 241 1028 230.5 c 128,-1,9
 1044 220 1044 220 1044 209 c 0,10,11
 1044 194 1044 194 1015.5 180 c 128,-1,12
 987 166 987 166 958 160 c 2,13,-1
 930 153 l 1,14,15
 931 148 931 148 936 130.5 c 128,-1,16
 941 113 941 113 941 104 c 0,17,18
 941 79 941 79 900 79 c 0,19,20
 883 79 883 79 875.5 89 c 128,-1,21
 868 99 868 99 863 116.5 c 128,-1,22
 858 134 858 134 851 143 c 25,23,24
 759 116 759 116 752 116 c 128,-1,25
 745 116 745 116 737 124 c 128,-1,26
 729 132 729 132 729 143 c 2,27,-1
 729 162 l 1,28,29
 748 172 748 172 778 180.5 c 128,-1,30
 808 189 808 189 821 194 c 1,31,-1
 816 243 l 1,32,33
 816 269 816 269 828.5 288.5 c 128,-1,34
 841 308 841 308 865 308 c 1,0,-1
432 223 m 2,35,36
 411 223 411 223 411 245 c 128,-1,37
 411 267 411 267 427 275 c 1,38,39
 866 452 866 452 1217 598 c 1,40,41
 1228 607 1228 607 1245.5 607 c 128,-1,42
 1263 607 1263 607 1268 601.5 c 128,-1,43
 1273 596 1273 596 1273 582 c 128,-1,44
 1273 568 1273 568 1245 556 c 0,45,46
 1153 517 1153 517 903 408 c 128,-1,47
 653 299 653 299 451 222 c 1,48,49
 448 223 448 223 441 223 c 2,50,-1
 432 223 l 2,35,36
399 106 m 1,51,52
 224 35 224 35 205 27.5 c 128,-1,53
 186 20 186 20 175 20 c 128,-1,54
 164 20 164 20 154 31 c 128,-1,55
 144 42 144 42 144 58 c 0,56,57
 144 73 144 73 156 78 c 0,58,59
 208 98 208 98 291 132 c 128,-1,60
 374 166 374 166 384.5 166 c 128,-1,61
 395 166 395 166 405 154.5 c 128,-1,62
 415 143 415 143 415 129.5 c 128,-1,63
 415 116 415 116 399 106 c 1,51,52
256 194 m 1,64,65
 121 139 121 139 92 128 c 128,-1,66
 63 117 63 117 52 117 c 128,-1,67
 41 117 41 117 30.5 128 c 128,-1,68
 20 139 20 139 20 154 c 128,-1,69
 20 169 20 169 31 175 c 1,70,71
 216 246 216 246 224.5 250 c 128,-1,72
 233 254 233 254 243 254 c 128,-1,73
 253 254 253 254 262.5 242.5 c 128,-1,74
 272 231 272 231 272 215 c 128,-1,75
 272 199 272 199 256 194 c 1,64,65
EndSplineSet
Validated: 1
Colour: ffff00
EndChar

StartChar: uniEEA2
Encoding: 61090 61090 48
Width: 1339
VWidth: 0
Flags: W
HStem: 21 21G<182 208>
DStem2: 294.5 247 277.5 127.5 0.59051 -0.80703<-80.1943 180.471> 786 333.5 932 333.5 0.921416 0.388577<-366.309 547.89>
AnchorPoint: "Right" 1388.68 546.64 basechar 0
AnchorPoint: "Tonal" 767.4 446.32 basechar 0
AnchorPoint: "Podchashie" 907 209 basechar 0
LayerCount: 3
Fore
SplineSet
1295 538 m 0
 1311 538 1318 531 1318 513 c 1
 1318 499 1302 492 1288 487 c 0
 982 357 767 258 496 152 c 1
 492 153 488 154 484 154 c 0
 481 154 479 153 476 153 c 0
 468 153 462 154 458 161 c 0
 456 166 455 172 455 177 c 0
 455 189 461 200 472 205 c 0
 725 309 901 379 1262 529 c 1
 1269 534 1285 538 1295 538 c 0
195 278 m 0
 197 293 213 299 228 299 c 0
 251 299 262 291 273 276 c 1
 283 259 384 139 384 84 c 0
 384 65 375 58 362 58 c 0
 347 58 325 70 317 79 c 8
 264 139 244 179 204 250 c 16
 199 259 193 267 195 278 c 0
221 45 m 0
 221 30 209 21 193 21 c 0
 175 21 161 30 149 44 c 8
 93 105 71 149 31 221 c 16
 26 230 20 239 20 248 c 0
 20 267 45 272 59 272 c 0
 86 272 93 264 105 248 c 17
 117 228 221 102 221 45 c 0
EndSplineSet
Validated: 1
Layer: 2
SplineSet
476 153 m 1,0,1
 455 153 455 153 455 175 c 128,-1,2
 455 197 455 197 472 205 c 0,3,4
 522 226 522 226 786 333.5 c 128,-1,5
 1050 441 1050 441 1262 529 c 1,6,7
 1275 538 1275 538 1295 538 c 0,8,9
 1318 538 1318 538 1318 513 c 0,10,11
 1318 498 1318 498 1288 487 c 1,12,13
 1187 444 1187 444 932 333.5 c 128,-1,14
 677 223 677 223 496 153 c 1,15,16
 488 155 488 155 484 154 c 2,17,-1
 476 153 l 1,0,1
195 278 m 0,18,19
 198 299 198 299 227 299 c 128,-1,20
 256 299 256 299 273 276 c 0,21,22
 275 273 275 273 294.5 247 c 128,-1,23
 314 221 314 221 333 194 c 128,-1,24
 352 167 352 167 368 135 c 128,-1,25
 384 103 384 103 384 80.5 c 128,-1,26
 384 58 384 58 360 58 c 128,-1,27
 336 58 336 58 321 75 c 128,-1,28
 306 92 306 92 296.5 103 c 128,-1,29
 287 114 287 114 277.5 127.5 c 128,-1,30
 268 141 268 141 263 148 c 128,-1,31
 258 155 258 155 248 172.5 c 128,-1,32
 238 190 238 190 235 195 c 128,-1,33
 232 200 232 200 219.5 222.5 c 128,-1,34
 207 245 207 245 200 257 c 128,-1,35
 193 269 193 269 195 278 c 0,18,19
221 45 m 0,36,37
 221 21 221 21 195 21 c 128,-1,38
 169 21 169 21 142 51 c 128,-1,39
 115 81 115 81 101.5 101.5 c 128,-1,40
 88 122 88 122 84 127.5 c 128,-1,41
 80 133 80 133 70.5 150 c 128,-1,42
 61 167 61 167 58 171 c 0,43,44
 20 233 20 233 20 248 c 0,45,46
 20 272 20 272 54 272 c 128,-1,47
 88 272 88 272 101 253 c 0,48,49
 109 241 109 241 128 216 c 0,50,51
 149 187 149 187 168 160 c 0,52,53
 221 82 221 82 221 45 c 0,36,37
EndSplineSet
Validated: 1
Colour: ffff00
EndChar

StartChar: uniEEA3
Encoding: 61091 61091 49
Width: 1320
VWidth: 0
Flags: W
HStem: 22 21G<182 208> 56 95<773.703 858.952> 118 52<439.159 476.843> 165 95<1034.94 1100.17>
VStem: 762 115<68.7593 136.561> 1025 86<178.407 250.832>
DStem2: 285.5 247 268.5 127.5 0.59051 -0.80703<-79.0868 180.343> 453 170 477 118 0.922248 0.386599<-24.1983 887.172>
AnchorPoint: "Tonal" 810 390.2 basechar 0
AnchorPoint: "Podchashie" 978.96 55.7998 basechar 0
AnchorPoint: "Right" 1347.44 514.16 basechar 0
LayerCount: 3
Fore
SplineSet
1025 207 m 1x9c
 1025 234 1046 260 1074 260 c 0
 1095 260 1111 232 1111 205 c 0
 1111 188 1097 165 1074 165 c 0
 1053 165 1030 184 1025 207 c 1x9c
877 100 m 0
 877 73 854 56 826 56 c 0
 798 56 768 73 762 100 c 1
 762 135 782 151 819 151 c 0xcc
 847 151 877 133 877 100 c 0
1276 503 m 0
 1292 503 1299 496 1299 478 c 0
 1299 464 1283 455 1269 450 c 0
 963 320 748 223 477 117 c 1
 472 118 467 118 462 118 c 0
 461 118 460 118 459 118 c 0
 451 118 443 119 439 126 c 0
 437 131 436 137 436 142 c 0
 436 154 442 165 453 170 c 0xac
 706 274 882 344 1243 494 c 1
 1250 499 1266 503 1276 503 c 0
195 250 m 16
 190 259 188 267 188 274 c 0
 188 289 197 299 218 299 c 0
 243 299 253 290 264 276 c 1
 274 259 375 139 375 84 c 0
 375 65 366 58 353 58 c 0
 338 58 316 70 308 79 c 8
 255 139 235 179 195 250 c 16
221 46 m 0
 221 31 209 22 193 22 c 0
 175 22 161 31 149 45 c 8
 93 106 71 150 31 222 c 16
 26 231 20 240 20 249 c 0
 20 268 45 273 59 273 c 0
 86 273 93 265 105 249 c 17
 117 229 221 103 221 46 c 0
EndSplineSet
Validated: 1
Layer: 2
SplineSet
1025 207 m 1,0,1
 1025 228 1025 228 1039.5 244 c 128,-1,2
 1054 260 1054 260 1071.5 260 c 128,-1,3
 1089 260 1089 260 1100 243 c 128,-1,4
 1111 226 1111 226 1111 208.5 c 128,-1,5
 1111 191 1111 191 1100.5 178 c 128,-1,6
 1090 165 1090 165 1074 165 c 128,-1,7
 1058 165 1058 165 1043.5 177.5 c 128,-1,8
 1029 190 1029 190 1025 207 c 1,0,1
859.5 137 m 128,-1,10
 877 123 877 123 877 101.5 c 128,-1,11
 877 80 877 80 862.5 68 c 128,-1,12
 848 56 848 56 826 56 c 128,-1,13
 804 56 804 56 785 68 c 128,-1,14
 766 80 766 80 762 100 c 1,15,16
 762 151 762 151 819 151 c 0,17,9
 842 151 842 151 859.5 137 c 128,-1,10
1276 503 m 0,18,19
 1299 503 1299 503 1299 478 c 0,20,21
 1299 461 1299 461 1269 450 c 1,22,23
 1185 414 1185 414 947 311.5 c 128,-1,24
 709 209 709 209 477 118 c 1,25,26
 472 119 472 119 462 118 c 2,27,-1
 459 118 l 2,28,29
 444 118 444 118 439 126 c 1,30,31
 436 133 436 133 436 147.5 c 128,-1,32
 436 162 436 162 453 170 c 0,33,34
 503 191 503 191 767 298.5 c 128,-1,35
 1031 406 1031 406 1243 494 c 1,36,37
 1256 503 1256 503 1276 503 c 0,18,19
210 222 m 2,38,-1
 193 254 l 18,39,40
 188 263 188 263 188 274 c 0,41,42
 188 299 188 299 217 299 c 128,-1,43
 246 299 246 299 264 276 c 0,44,45
 266 273 266 273 285.5 247 c 128,-1,46
 305 221 305 221 324 194 c 128,-1,47
 343 167 343 167 359 135 c 128,-1,48
 375 103 375 103 375 79.5 c 128,-1,49
 375 56 375 56 351 56 c 128,-1,50
 327 56 327 56 312 74 c 128,-1,51
 297 92 297 92 287.5 103 c 128,-1,52
 278 114 278 114 268.5 127.5 c 128,-1,53
 259 141 259 141 254 148 c 128,-1,54
 249 155 249 155 239 172.5 c 128,-1,55
 229 190 229 190 226 195 c 128,-1,56
 223 200 223 200 210 222 c 2,38,-1
221 46 m 0,57,58
 221 22 221 22 195 22 c 128,-1,59
 169 22 169 22 142 52 c 128,-1,60
 115 82 115 82 101.5 102.5 c 128,-1,61
 88 123 88 123 84 128.5 c 128,-1,62
 80 134 80 134 70.5 151 c 128,-1,63
 61 168 61 168 58 172 c 0,64,65
 20 234 20 234 20 249 c 0,66,67
 20 273 20 273 54 273 c 128,-1,68
 88 273 88 273 101 254 c 0,69,70
 109 242 109 242 128 217 c 0,71,72
 149 188 149 188 168 161 c 0,73,74
 221 83 221 83 221 46 c 0,57,58
EndSplineSet
Validated: 1
Colour: ffff00
EndChar

StartChar: uniEEA4
Encoding: 61092 61092 50
Width: 1315
VWidth: 0
Flags: W
HStem: 21 21G<182 208> 55 46<793 822> 119 62<1018.23 1104.48>
VStem: 881 87<156.409 227.858>
DStem2: 129 214 100 106 0.584415 -0.811455<-86.5628 186.898> 762 314.5 452 134 0.923143 0.384457<-366.23 547.925>
AnchorPoint: "Tonal" 748.68 379.8 basechar 0
AnchorPoint: "Podchashie" 982.6 -29.2803 basechar 0
AnchorPoint: "Right" 1344.68 526.68 basechar 0
LayerCount: 3
Fore
SplineSet
1064 180 m 0xb0
 1079 180 1109 163 1109 148 c 0
 1109 115 993 92 993 92 c 1xb0
 997 78 1005 59 1005 43 c 0
 1005 22 986 18 963 18 c 0
 926 18 933 57 914 82 c 25
 879 71 822 55 822 55 c 2
 821 55 820 55 818 55 c 0
 806 55 791 67 791 82 c 0
 791 89 793 94 793 101 c 1xd0
 828 119 851 119 884 133 c 1
 884 136 884 138 884 141 c 0
 884 157 881 168 881 182 c 0
 881 212 893 249 928 249 c 0
 937 249 944 247 953 244 c 0
 974 238 963 191 972 156 c 1
 1002 164 1035 180 1064 180 c 0xb0
452 134 m 1
 437 134 431 142 431 158 c 0
 431 170 437 181 448 186 c 0
 701 290 877 360 1238 510 c 1
 1245 515 1261 519 1271 519 c 0
 1287 519 1294 512 1294 494 c 0
 1294 480 1274 477 1260 472 c 0
 954 342 723 240 452 134 c 1
187 277 m 0
 189 292 205 298 220 298 c 0
 243 298 254 290 265 275 c 0
 277 258 377 138 377 83 c 0
 377 64 367 57 354 57 c 0
 339 57 317 69 309 78 c 8
 258 138 236 178 198 249 c 17
 191 258 185 266 187 277 c 0
221 45 m 0
 221 30 209 21 193 21 c 0
 175 21 161 30 149 44 c 8
 94 105 71 149 31 221 c 16
 26 230 20 239 20 248 c 0
 20 267 45 272 59 272 c 0
 86 272 93 264 105 248 c 17
 117 228 221 102 221 45 c 0
EndSplineSet
Validated: 1
Layer: 2
SplineSet
972 156 m 1,0,1
 1058 181 1058 181 1067 181 c 0,2,3
 1075 181 1075 181 1092 170 c 128,-1,4
 1109 159 1109 159 1109 148 c 0,5,6
 1109 133 1109 133 1080 119 c 128,-1,7
 1051 105 1051 105 1022 98 c 2,8,-1
 993 92 l 1,9,10
 1005 50 1005 50 1005 43 c 0,11,12
 1005 18 1005 18 963 18 c 0,13,14
 947 18 947 18 939 28 c 128,-1,15
 931 38 931 38 926 55.5 c 128,-1,16
 921 73 921 73 914 82 c 1,17,-1
 822 55 l 1,18,-1
 818 55 l 2,19,20
 808 55 808 55 799.5 63 c 128,-1,21
 791 71 791 71 791 82 c 1,22,-1
 793 101 l 1,23,24
 812 111 812 111 841 119 c 128,-1,25
 870 127 870 127 884 133 c 1,26,-1
 881 141 l 1,27,-1
 881 182 l 2,28,29
 881 208 881 208 892.5 228.5 c 128,-1,30
 904 249 904 249 932 249 c 128,-1,31
 960 249 960 249 965 228 c 0,32,33
 968 215 968 215 968 192 c 128,-1,34
 968 169 968 169 972 156 c 1,0,1
452 134 m 1,35,36
 431 134 431 134 431 156 c 128,-1,37
 431 178 431 178 448 186 c 0,38,39
 498 207 498 207 762 314.5 c 128,-1,40
 1026 422 1026 422 1238 510 c 1,41,42
 1251 519 1251 519 1271 519 c 0,43,44
 1294 519 1294 519 1294 494 c 0,45,46
 1294 482 1294 482 1278 478 c 0,47,48
 1276 477 1276 477 1260 472 c 1,49,50
 671 218 671 218 452 134 c 1,35,36
187 277 m 0,51,52
 190 298 190 298 219 298 c 128,-1,53
 248 298 248 298 265 275 c 1,54,55
 283 257 283 257 320 201 c 128,-1,56
 357 145 357 145 367 121.5 c 128,-1,57
 377 98 377 98 377 83 c 0,58,59
 377 57 377 57 354 57 c 0,60,61
 328 57 328 57 309 78 c 0,62,63
 256 140 256 140 198 249 c 1,64,65
 185 266 185 266 187 277 c 0,51,52
221 45 m 0,66,67
 221 21 221 21 195 21 c 128,-1,68
 169 21 169 21 146 47 c 128,-1,69
 123 73 123 73 100 106 c 128,-1,70
 77 139 77 139 48.5 190 c 128,-1,71
 20 241 20 241 20 248 c 0,72,73
 20 272 20 272 54 272 c 128,-1,74
 88 272 88 272 98.5 256.5 c 128,-1,75
 109 241 109 241 129 214 c 128,-1,76
 149 187 149 187 168 160 c 0,77,78
 221 82 221 82 221 45 c 0,66,67
EndSplineSet
Validated: 1
Colour: ffff00
EndChar

StartChar: uniEEA5
Encoding: 61093 61093 51
Width: 1157
VWidth: 0
Flags: W
HStem: 23 21G<183 199.5>
DStem2: 290 150 295 98 0.928493 0.371349<-26.667 884.531>
AnchorPoint: "Tonal" 576.8 350.6 basechar 0
AnchorPoint: "Podchashie" 721.12 155.24 basechar 0
AnchorPoint: "Right" 1185.64 488.92 basechar 0
LayerCount: 3
Fore
SplineSet
295 98 m 1
 280 98 273 105 273 121 c 0
 273 134 279 145 290 150 c 0
 545 254 721 324 1080 474 c 1
 1087 479 1103 483 1114 483 c 0
 1131 483 1136 476 1136 458 c 0
 1136 444 1121 437 1108 432 c 0
 802 301 567 204 295 98 c 1
54 263 m 0
 78 263 87 256 100 241 c 1
 110 223 210 104 210 49 c 0
 210 30 200 23 189 23 c 0
 172 23 151 35 144 44 c 8
 91 104 70 144 31 215 c 17
 26 222 20 230 20 239 c 0
 20 257 38 263 54 263 c 0
EndSplineSet
Validated: 1
Layer: 2
SplineSet
295 98 m 1,0,1
 273 98 273 98 273 120 c 128,-1,2
 273 142 273 142 290 150 c 0,3,4
 899 399 899 399 1080 474 c 1,5,6
 1093 483 1093 483 1110 483 c 128,-1,7
 1127 483 1127 483 1131.5 477.5 c 128,-1,8
 1136 472 1136 472 1136 457.5 c 128,-1,9
 1136 443 1136 443 1108 432 c 0,10,11
 661 241 661 241 295 98 c 1,0,1
20 239 m 0,12,13
 20 263 20 263 50 263 c 0,14,15
 89 263 89 263 100 241 c 0,16,17
 101 239 101 239 131 198 c 0,18,19
 210 92 210 92 210 49 c 0,20,21
 210 23 210 23 189 23 c 0,22,23
 177 23 177 23 163.5 30 c 128,-1,24
 150 37 150 37 144 44 c 0,25,26
 99 97 99 97 78 132.5 c 128,-1,27
 57 168 57 168 31 215 c 1,28,29
 20 230 20 230 20 239 c 0,12,13
EndSplineSet
Validated: 1
Colour: ffff00
EndChar

StartChar: uniEEB1
Encoding: 61105 61105 52
Width: 1416
VWidth: 0
Flags: W
HStem: 20 21G<156.25 166.75> 87 97<794.423 877.076> 89 61<319.346 398.718> 142 93<1067 1138.35> 201 62<236.361 273.746> 410 59<1265.23 1395.61>
VStem: 778 113<104.034 170.97> 1058 85<149.324 226.771>
AnchorPoint: "Right" 1439.73 444.48 basechar 0
AnchorPoint: "Podchashie" 635.72 10 basechar 0
AnchorPoint: "Tonal" 799.844 417.647 basechar 0
LayerCount: 3
Fore
SplineSet
1058 193 m 0x8b80
 1058 218 1086 235 1107 235 c 0
 1136 235 1143 207 1143 182 c 0
 1143 160 1123 142 1102 142 c 0
 1077 142 1058 168 1058 193 c 0x8b80
778 146 m 0
 778 172 803 184 828 184 c 0
 859 184 891 163 891 130 c 0
 891 103 870 87 845 87 c 0xc380
 812 87 778 114 778 146 c 0
388 283 m 1
 407 288 428 292 446 292 c 0
 472 292 497 285 511 262 c 0
 520 246 521 239 528 225 c 25
 1287 468 l 17
 1292 468 1336 469 1352 469 c 0
 1376 469 1396 466 1396 444 c 0
 1396 443 1396 440 1396 438 c 0
 1396 410 1382 410 1361 410 c 2
 1341 410 l 2
 1331 410 1324 410 1301 404 c 1
 1100 341 921 288 562 163 c 8
 546 157 537 153 520 153 c 27
 448 153 402 269 388 283 c 1
166 20 m 0
 145 20 133 37 133 59 c 0
 133 69 136 78 145 80 c 0
 256 113 270 119 367 150 c 1
 376 150 l 2
 395 150 408 131 408 115 c 0
 408 103 402 94 390 89 c 1xa380
 300 62 262 48 175 22 c 1
 172 20 168 20 166 20 c 0
63 142 m 1x8b80
 59 142 56 140 54 140 c 0
 34 140 20 159 20 179 c 0
 20 189 24 198 33 201 c 0x9380
 145 235 140 231 237 263 c 1
 246 263 l 2
 263 263 277 244 277 226 c 0
 277 216 272 207 260 201 c 1x8780
 170 175 149 168 63 142 c 1x8b80
EndSplineSet
Validated: 1
Layer: 2
SplineSet
1071 158 m 128,-1,1
 1058 174 1058 174 1058 192.5 c 128,-1,2
 1058 211 1058 211 1074 223 c 128,-1,3
 1090 235 1090 235 1107 235 c 0,4,5
 1143 235 1143 235 1143 182 c 0,6,7
 1143 166 1143 166 1130.5 154 c 128,-1,8
 1118 142 1118 142 1101 142 c 128,-1,0
 1084 142 1084 142 1071 158 c 128,-1,1
799 104.5 m 128,-1,10
 778 122 778 122 778 143 c 128,-1,11
 778 164 778 164 793 174 c 128,-1,12
 808 184 808 184 830.5 184 c 128,-1,13
 853 184 853 184 872 169 c 128,-1,14
 891 154 891 154 891 132 c 128,-1,15
 891 110 891 110 877.5 98.5 c 128,-1,16
 864 87 864 87 842 87 c 128,-1,9
 820 87 820 87 799 104.5 c 128,-1,10
1287 469 m 1,17,-1
 1352 469 l 2,18,19
 1396 469 1396 469 1396 444 c 2,20,-1
 1396 438 l 2,21,22
 1396 414 1396 414 1380 411 c 0,23,24
 1375 410 1375 410 1361 410 c 2,25,-1
 1341 410 l 2,26,27
 1324 410 1324 410 1301 404 c 1,28,29
 832 257 832 257 562 163 c 0,30,31
 535 153 535 153 520 153 c 0,32,33
 488 153 488 153 459.5 181 c 128,-1,34
 431 209 431 209 410 245.5 c 128,-1,35
 389 282 389 282 388 283 c 1,36,37
 422 292 422 292 446 292 c 0,38,39
 493 292 493 292 511 262 c 0,40,41
 516 253 516 253 520.5 241.5 c 128,-1,42
 525 230 525 230 528 225 c 1,43,-1
 1287 469 l 1,17,-1
282 55.5 m 128,-1,45
 219 35 219 35 195.5 27.5 c 128,-1,46
 172 20 172 20 161.5 20 c 128,-1,47
 151 20 151 20 142 31 c 128,-1,48
 133 42 133 42 133 59.5 c 128,-1,49
 133 77 133 77 145 80 c 0,50,51
 188 93 188 93 367 150 c 1,52,-1
 376 150 l 2,53,54
 390 150 390 150 399 139 c 128,-1,55
 408 128 408 128 408 112 c 128,-1,56
 408 96 408 96 390 89 c 1,57,44
 345 76 345 76 282 55.5 c 128,-1,45
260 201 m 1,58,-1
 54 140 l 1,59,60
 39 140 39 140 29.5 151.5 c 128,-1,61
 20 163 20 163 20 180 c 128,-1,62
 20 197 20 197 33 201 c 0,63,64
 234 262 234 262 237 263 c 1,65,-1
 246 263 l 2,66,67
 258 263 258 263 267.5 251.5 c 128,-1,68
 277 240 277 240 277 225 c 128,-1,69
 277 210 277 210 260 201 c 1,58,-1
EndSplineSet
Validated: 1
Colour: ffff00
EndChar

StartChar: uni0001
Encoding: 1 1 54
Width: 500
Flags: W
HStem: 0 19<66 435> 748 22<66 435>
VStem: 37 22<34 733> 442 22<34 733>
DStem2: 66 748 59 733 0.465951 -0.884811<10.0105 395.419 421.078 806.952> 59 34 66 19 0.465951 0.884811<0 385.408 411.068 796.942>
LayerCount: 3
Fore
SplineSet
37 770 m 1
 464 770 l 1
 464 0 l 1
 37 0 l 1
 37 770 l 1
66 748 m 1
 250 398 l 1
 435 748 l 1
 66 748 l 1
258 383 m 1
 442 34 l 1
 442 733 l 1
 258 383 l 1
435 19 m 1
 250 369 l 1
 66 19 l 1
 435 19 l 1
59 733 m 1
 59 34 l 1
 243 383 l 1
 59 733 l 1
EndSplineSet
Validated: 1
Layer: 2
SplineSet
37 770 m 1,0,-1
 464 770 l 1,1,-1
 464 0 l 1,2,-1
 37 0 l 1,3,-1
 37 770 l 1,0,-1
66 748 m 1,4,-1
 250 398 l 1,5,-1
 435 748 l 1,6,-1
 66 748 l 1,4,-1
258 383 m 1,7,-1
 442 34 l 1,8,-1
 442 733 l 1,9,-1
 258 383 l 1,7,-1
435 19 m 1,10,-1
 250 369 l 1,11,-1
 66 19 l 1,12,-1
 435 19 l 1,10,-1
59 733 m 1,13,-1
 59 34 l 1,14,-1
 243 383 l 1,15,-1
 59 733 l 1,13,-1
EndSplineSet
Validated: 1
EndChar

StartChar: uni0002
Encoding: 2 2 55
Width: 500
Flags: W
HStem: 0 19<66 435> 748 22<66 435>
VStem: 37 22<34 733> 442 22<34 733>
DStem2: 66 748 59 733 0.465951 -0.884811<10.0105 395.419 421.078 806.952> 59 34 66 19 0.465951 0.884811<0 385.408 411.068 796.942>
LayerCount: 3
Fore
SplineSet
37 770 m 1
 464 770 l 1
 464 0 l 1
 37 0 l 1
 37 770 l 1
66 748 m 1
 250 398 l 1
 435 748 l 1
 66 748 l 1
258 383 m 1
 442 34 l 1
 442 733 l 1
 258 383 l 1
435 19 m 1
 250 369 l 1
 66 19 l 1
 435 19 l 1
59 733 m 1
 59 34 l 1
 243 383 l 1
 59 733 l 1
EndSplineSet
Validated: 1
Layer: 2
SplineSet
37 770 m 5,0,-1
 464 770 l 1,1,-1
 464 0 l 1,2,-1
 37 0 l 1,3,-1
 37 770 l 5,0,-1
66 748 m 5,4,-1
 250 398 l 1,5,-1
 435 748 l 1,6,-1
 66 748 l 5,4,-1
258 383 m 5,7,-1
 442 34 l 1,8,-1
 442 733 l 1,9,-1
 258 383 l 5,7,-1
435 19 m 5,10,-1
 250 369 l 1,11,-1
 66 19 l 1,12,-1
 435 19 l 5,10,-1
59 733 m 5,13,-1
 59 34 l 1,14,-1
 243 383 l 1,15,-1
 59 733 l 5,13,-1
EndSplineSet
Validated: 1
EndChar

StartChar: uni0003
Encoding: 3 3 56
Width: 500
Flags: W
HStem: 0 19<66 435> 748 22<66 435>
VStem: 37 22<34 733> 442 22<34 733>
DStem2: 66 748 59 733 0.465951 -0.884811<10.0105 395.419 421.078 806.952> 59 34 66 19 0.465951 0.884811<0 385.408 411.068 796.942>
LayerCount: 3
Fore
SplineSet
37 770 m 1
 464 770 l 1
 464 0 l 1
 37 0 l 1
 37 770 l 1
66 748 m 1
 250 398 l 1
 435 748 l 1
 66 748 l 1
258 383 m 1
 442 34 l 1
 442 733 l 1
 258 383 l 1
435 19 m 1
 250 369 l 1
 66 19 l 1
 435 19 l 1
59 733 m 1
 59 34 l 1
 243 383 l 1
 59 733 l 1
EndSplineSet
Validated: 1
Layer: 2
SplineSet
37 770 m 5,0,-1
 464 770 l 1,1,-1
 464 0 l 1,2,-1
 37 0 l 1,3,-1
 37 770 l 5,0,-1
66 748 m 5,4,-1
 250 398 l 1,5,-1
 435 748 l 1,6,-1
 66 748 l 5,4,-1
258 383 m 5,7,-1
 442 34 l 1,8,-1
 442 733 l 1,9,-1
 258 383 l 5,7,-1
435 19 m 5,10,-1
 250 369 l 1,11,-1
 66 19 l 1,12,-1
 435 19 l 5,10,-1
59 733 m 5,13,-1
 59 34 l 1,14,-1
 243 383 l 1,15,-1
 59 733 l 5,13,-1
EndSplineSet
Validated: 1
EndChar

StartChar: uni0004
Encoding: 4 4 57
Width: 500
Flags: W
HStem: 0 19<66 435> 748 22<66 435>
VStem: 37 22<34 733> 442 22<34 733>
DStem2: 66 748 59 733 0.465951 -0.884811<10.0105 395.419 421.078 806.952> 59 34 66 19 0.465951 0.884811<0 385.408 411.068 796.942>
LayerCount: 3
Fore
SplineSet
37 770 m 1
 464 770 l 1
 464 0 l 1
 37 0 l 1
 37 770 l 1
66 748 m 1
 250 398 l 1
 435 748 l 1
 66 748 l 1
258 383 m 1
 442 34 l 1
 442 733 l 1
 258 383 l 1
435 19 m 1
 250 369 l 1
 66 19 l 1
 435 19 l 1
59 733 m 1
 59 34 l 1
 243 383 l 1
 59 733 l 1
EndSplineSet
Validated: 1
Layer: 2
SplineSet
37 770 m 5,0,-1
 464 770 l 1,1,-1
 464 0 l 1,2,-1
 37 0 l 1,3,-1
 37 770 l 5,0,-1
66 748 m 5,4,-1
 250 398 l 1,5,-1
 435 748 l 1,6,-1
 66 748 l 5,4,-1
258 383 m 5,7,-1
 442 34 l 1,8,-1
 442 733 l 1,9,-1
 258 383 l 5,7,-1
435 19 m 5,10,-1
 250 369 l 1,11,-1
 66 19 l 1,12,-1
 435 19 l 5,10,-1
59 733 m 5,13,-1
 59 34 l 1,14,-1
 243 383 l 1,15,-1
 59 733 l 5,13,-1
EndSplineSet
Validated: 1
EndChar

StartChar: uni0005
Encoding: 5 5 58
Width: 500
Flags: W
HStem: 0 19<66 435> 748 22<66 435>
VStem: 37 22<34 733> 442 22<34 733>
DStem2: 66 748 59 733 0.465951 -0.884811<10.0105 395.419 421.078 806.952> 59 34 66 19 0.465951 0.884811<0 385.408 411.068 796.942>
LayerCount: 3
Fore
SplineSet
37 770 m 1
 464 770 l 1
 464 0 l 1
 37 0 l 1
 37 770 l 1
66 748 m 1
 250 398 l 1
 435 748 l 1
 66 748 l 1
258 383 m 1
 442 34 l 1
 442 733 l 1
 258 383 l 1
435 19 m 1
 250 369 l 1
 66 19 l 1
 435 19 l 1
59 733 m 1
 59 34 l 1
 243 383 l 1
 59 733 l 1
EndSplineSet
Validated: 1
Layer: 2
SplineSet
37 770 m 5,0,-1
 464 770 l 1,1,-1
 464 0 l 1,2,-1
 37 0 l 1,3,-1
 37 770 l 5,0,-1
66 748 m 5,4,-1
 250 398 l 1,5,-1
 435 748 l 1,6,-1
 66 748 l 5,4,-1
258 383 m 5,7,-1
 442 34 l 1,8,-1
 442 733 l 1,9,-1
 258 383 l 5,7,-1
435 19 m 5,10,-1
 250 369 l 1,11,-1
 66 19 l 1,12,-1
 435 19 l 5,10,-1
59 733 m 5,13,-1
 59 34 l 1,14,-1
 243 383 l 1,15,-1
 59 733 l 5,13,-1
EndSplineSet
Validated: 1
EndChar

StartChar: uni0006
Encoding: 6 6 59
Width: 500
Flags: W
HStem: 0 19<66 435> 748 22<66 435>
VStem: 37 22<34 733> 442 22<34 733>
DStem2: 66 748 59 733 0.465951 -0.884811<10.0105 395.419 421.078 806.952> 59 34 66 19 0.465951 0.884811<0 385.408 411.068 796.942>
LayerCount: 3
Fore
SplineSet
37 770 m 1
 464 770 l 1
 464 0 l 1
 37 0 l 1
 37 770 l 1
66 748 m 1
 250 398 l 1
 435 748 l 1
 66 748 l 1
258 383 m 1
 442 34 l 1
 442 733 l 1
 258 383 l 1
435 19 m 1
 250 369 l 1
 66 19 l 1
 435 19 l 1
59 733 m 1
 59 34 l 1
 243 383 l 1
 59 733 l 1
EndSplineSet
Validated: 1
Layer: 2
SplineSet
37 770 m 5,0,-1
 464 770 l 1,1,-1
 464 0 l 1,2,-1
 37 0 l 1,3,-1
 37 770 l 5,0,-1
66 748 m 5,4,-1
 250 398 l 1,5,-1
 435 748 l 1,6,-1
 66 748 l 5,4,-1
258 383 m 5,7,-1
 442 34 l 1,8,-1
 442 733 l 1,9,-1
 258 383 l 5,7,-1
435 19 m 5,10,-1
 250 369 l 1,11,-1
 66 19 l 1,12,-1
 435 19 l 5,10,-1
59 733 m 5,13,-1
 59 34 l 1,14,-1
 243 383 l 1,15,-1
 59 733 l 5,13,-1
EndSplineSet
Validated: 1
EndChar

StartChar: uni0007
Encoding: 7 7 60
Width: 500
Flags: W
HStem: 0 19<66 435> 748 22<66 435>
VStem: 37 22<34 733> 442 22<34 733>
DStem2: 66 748 59 733 0.465951 -0.884811<10.0105 395.419 421.078 806.952> 59 34 66 19 0.465951 0.884811<0 385.408 411.068 796.942>
LayerCount: 3
Fore
SplineSet
37 770 m 1
 464 770 l 1
 464 0 l 1
 37 0 l 1
 37 770 l 1
66 748 m 1
 250 398 l 1
 435 748 l 1
 66 748 l 1
258 383 m 1
 442 34 l 1
 442 733 l 1
 258 383 l 1
435 19 m 1
 250 369 l 1
 66 19 l 1
 435 19 l 1
59 733 m 1
 59 34 l 1
 243 383 l 1
 59 733 l 1
EndSplineSet
Validated: 1
Layer: 2
SplineSet
37 770 m 5,0,-1
 464 770 l 1,1,-1
 464 0 l 1,2,-1
 37 0 l 1,3,-1
 37 770 l 5,0,-1
66 748 m 5,4,-1
 250 398 l 1,5,-1
 435 748 l 1,6,-1
 66 748 l 5,4,-1
258 383 m 5,7,-1
 442 34 l 1,8,-1
 442 733 l 1,9,-1
 258 383 l 5,7,-1
435 19 m 5,10,-1
 250 369 l 1,11,-1
 66 19 l 1,12,-1
 435 19 l 5,10,-1
59 733 m 5,13,-1
 59 34 l 1,14,-1
 243 383 l 1,15,-1
 59 733 l 5,13,-1
EndSplineSet
Validated: 1
EndChar

StartChar: uni000B
Encoding: 11 11 64
Width: 500
Flags: W
LayerCount: 3
Fore
SplineSet
37 770 m 1
 464 770 l 1
 464 0 l 1
 37 0 l 1
 37 770 l 1
66 748 m 1
 250 398 l 1
 435 748 l 1
 66 748 l 1
258 383 m 1
 442 34 l 1
 442 733 l 1
 258 383 l 1
435 19 m 1
 250 369 l 1
 66 19 l 1
 435 19 l 1
59 733 m 1
 59 34 l 1
 243 383 l 1
 59 733 l 1
EndSplineSet
Validated: 1
EndChar

StartChar: uni000C
Encoding: 12 12 65
Width: 500
Flags: W
LayerCount: 3
Fore
SplineSet
37 770 m 1
 464 770 l 1
 464 0 l 1
 37 0 l 1
 37 770 l 1
66 748 m 1
 250 398 l 1
 435 748 l 1
 66 748 l 1
258 383 m 1
 442 34 l 1
 442 733 l 1
 258 383 l 1
435 19 m 1
 250 369 l 1
 66 19 l 1
 435 19 l 1
59 733 m 1
 59 34 l 1
 243 383 l 1
 59 733 l 1
EndSplineSet
Validated: 1
EndChar

StartChar: uni000E
Encoding: 14 14 67
Width: 500
Flags: W
HStem: 0 19<66 435> 748 22<66 435>
VStem: 37 22<34 733> 442 22<34 733>
DStem2: 66 748 59 733 0.465951 -0.884811<10.0105 395.419 421.078 806.952> 59 34 66 19 0.465951 0.884811<0 385.408 411.068 796.942>
LayerCount: 3
Fore
SplineSet
37 770 m 1
 464 770 l 1
 464 0 l 1
 37 0 l 1
 37 770 l 1
66 748 m 1
 250 398 l 1
 435 748 l 1
 66 748 l 1
258 383 m 1
 442 34 l 1
 442 733 l 1
 258 383 l 1
435 19 m 1
 250 369 l 1
 66 19 l 1
 435 19 l 1
59 733 m 1
 59 34 l 1
 243 383 l 1
 59 733 l 1
EndSplineSet
Validated: 1
Layer: 2
SplineSet
37 770 m 5,0,-1
 464 770 l 1,1,-1
 464 0 l 1,2,-1
 37 0 l 1,3,-1
 37 770 l 5,0,-1
66 748 m 5,4,-1
 250 398 l 1,5,-1
 435 748 l 1,6,-1
 66 748 l 5,4,-1
258 383 m 5,7,-1
 442 34 l 1,8,-1
 442 733 l 1,9,-1
 258 383 l 5,7,-1
435 19 m 5,10,-1
 250 369 l 1,11,-1
 66 19 l 1,12,-1
 435 19 l 5,10,-1
59 733 m 5,13,-1
 59 34 l 1,14,-1
 243 383 l 1,15,-1
 59 733 l 5,13,-1
EndSplineSet
Validated: 1
EndChar

StartChar: uni000F
Encoding: 15 15 68
Width: 500
Flags: W
HStem: 0 19<66 435> 748 22<66 435>
VStem: 37 22<34 733> 442 22<34 733>
DStem2: 66 748 59 733 0.465951 -0.884811<10.0105 395.419 421.078 806.952> 59 34 66 19 0.465951 0.884811<0 385.408 411.068 796.942>
LayerCount: 3
Fore
SplineSet
37 770 m 1
 464 770 l 1
 464 0 l 1
 37 0 l 1
 37 770 l 1
66 748 m 1
 250 398 l 1
 435 748 l 1
 66 748 l 1
258 383 m 1
 442 34 l 1
 442 733 l 1
 258 383 l 1
435 19 m 1
 250 369 l 1
 66 19 l 1
 435 19 l 1
59 733 m 1
 59 34 l 1
 243 383 l 1
 59 733 l 1
EndSplineSet
Validated: 1
Layer: 2
SplineSet
37 770 m 5,0,-1
 464 770 l 1,1,-1
 464 0 l 1,2,-1
 37 0 l 1,3,-1
 37 770 l 5,0,-1
66 748 m 5,4,-1
 250 398 l 1,5,-1
 435 748 l 1,6,-1
 66 748 l 5,4,-1
258 383 m 5,7,-1
 442 34 l 1,8,-1
 442 733 l 1,9,-1
 258 383 l 5,7,-1
435 19 m 5,10,-1
 250 369 l 1,11,-1
 66 19 l 1,12,-1
 435 19 l 5,10,-1
59 733 m 5,13,-1
 59 34 l 1,14,-1
 243 383 l 1,15,-1
 59 733 l 5,13,-1
EndSplineSet
Validated: 1
EndChar

StartChar: uni0010
Encoding: 16 16 69
Width: 500
Flags: W
HStem: 0 19<66 435> 748 22<66 435>
VStem: 37 22<34 733> 442 22<34 733>
DStem2: 66 748 59 733 0.465951 -0.884811<10.0105 395.419 421.078 806.952> 59 34 66 19 0.465951 0.884811<0 385.408 411.068 796.942>
LayerCount: 3
Fore
SplineSet
37 770 m 1
 464 770 l 1
 464 0 l 1
 37 0 l 1
 37 770 l 1
66 748 m 1
 250 398 l 1
 435 748 l 1
 66 748 l 1
258 383 m 1
 442 34 l 1
 442 733 l 1
 258 383 l 1
435 19 m 1
 250 369 l 1
 66 19 l 1
 435 19 l 1
59 733 m 1
 59 34 l 1
 243 383 l 1
 59 733 l 1
EndSplineSet
Validated: 1
Layer: 2
SplineSet
37 770 m 5,0,-1
 464 770 l 1,1,-1
 464 0 l 1,2,-1
 37 0 l 1,3,-1
 37 770 l 5,0,-1
66 748 m 5,4,-1
 250 398 l 1,5,-1
 435 748 l 1,6,-1
 66 748 l 5,4,-1
258 383 m 5,7,-1
 442 34 l 1,8,-1
 442 733 l 1,9,-1
 258 383 l 5,7,-1
435 19 m 5,10,-1
 250 369 l 1,11,-1
 66 19 l 1,12,-1
 435 19 l 5,10,-1
59 733 m 5,13,-1
 59 34 l 1,14,-1
 243 383 l 1,15,-1
 59 733 l 5,13,-1
EndSplineSet
Validated: 1
EndChar

StartChar: uni0011
Encoding: 17 17 70
Width: 500
Flags: W
HStem: 0 19<66 435> 748 22<66 435>
VStem: 37 22<34 733> 442 22<34 733>
DStem2: 66 748 59 733 0.465951 -0.884811<10.0105 395.419 421.078 806.952> 59 34 66 19 0.465951 0.884811<0 385.408 411.068 796.942>
LayerCount: 3
Fore
SplineSet
37 770 m 1
 464 770 l 1
 464 0 l 1
 37 0 l 1
 37 770 l 1
66 748 m 1
 250 398 l 1
 435 748 l 1
 66 748 l 1
258 383 m 1
 442 34 l 1
 442 733 l 1
 258 383 l 1
435 19 m 1
 250 369 l 1
 66 19 l 1
 435 19 l 1
59 733 m 1
 59 34 l 1
 243 383 l 1
 59 733 l 1
EndSplineSet
Validated: 1
Layer: 2
SplineSet
37 770 m 5,0,-1
 464 770 l 1,1,-1
 464 0 l 1,2,-1
 37 0 l 1,3,-1
 37 770 l 5,0,-1
66 748 m 5,4,-1
 250 398 l 1,5,-1
 435 748 l 1,6,-1
 66 748 l 5,4,-1
258 383 m 5,7,-1
 442 34 l 1,8,-1
 442 733 l 1,9,-1
 258 383 l 5,7,-1
435 19 m 5,10,-1
 250 369 l 1,11,-1
 66 19 l 1,12,-1
 435 19 l 5,10,-1
59 733 m 5,13,-1
 59 34 l 1,14,-1
 243 383 l 1,15,-1
 59 733 l 5,13,-1
EndSplineSet
Validated: 1
EndChar

StartChar: uni0012
Encoding: 18 18 71
Width: 500
Flags: W
HStem: 0 19<66 435> 748 22<66 435>
VStem: 37 22<34 733> 442 22<34 733>
DStem2: 66 748 59 733 0.465951 -0.884811<10.0105 395.419 421.078 806.952> 59 34 66 19 0.465951 0.884811<0 385.408 411.068 796.942>
LayerCount: 3
Fore
SplineSet
37 770 m 1
 464 770 l 1
 464 0 l 1
 37 0 l 1
 37 770 l 1
66 748 m 1
 250 398 l 1
 435 748 l 1
 66 748 l 1
258 383 m 1
 442 34 l 1
 442 733 l 1
 258 383 l 1
435 19 m 1
 250 369 l 1
 66 19 l 1
 435 19 l 1
59 733 m 1
 59 34 l 1
 243 383 l 1
 59 733 l 1
EndSplineSet
Validated: 1
Layer: 2
SplineSet
37 770 m 5,0,-1
 464 770 l 1,1,-1
 464 0 l 1,2,-1
 37 0 l 1,3,-1
 37 770 l 5,0,-1
66 748 m 5,4,-1
 250 398 l 1,5,-1
 435 748 l 1,6,-1
 66 748 l 5,4,-1
258 383 m 5,7,-1
 442 34 l 1,8,-1
 442 733 l 1,9,-1
 258 383 l 5,7,-1
435 19 m 5,10,-1
 250 369 l 1,11,-1
 66 19 l 1,12,-1
 435 19 l 5,10,-1
59 733 m 5,13,-1
 59 34 l 1,14,-1
 243 383 l 1,15,-1
 59 733 l 5,13,-1
EndSplineSet
Validated: 1
EndChar

StartChar: uni0013
Encoding: 19 19 72
Width: 500
Flags: W
HStem: 0 19<66 435> 748 22<66 435>
VStem: 37 22<34 733> 442 22<34 733>
DStem2: 66 748 59 733 0.465951 -0.884811<10.0105 395.419 421.078 806.952> 59 34 66 19 0.465951 0.884811<0 385.408 411.068 796.942>
LayerCount: 3
Fore
SplineSet
37 770 m 1
 464 770 l 1
 464 0 l 1
 37 0 l 1
 37 770 l 1
66 748 m 1
 250 398 l 1
 435 748 l 1
 66 748 l 1
258 383 m 1
 442 34 l 1
 442 733 l 1
 258 383 l 1
435 19 m 1
 250 369 l 1
 66 19 l 1
 435 19 l 1
59 733 m 1
 59 34 l 1
 243 383 l 1
 59 733 l 1
EndSplineSet
Validated: 1
Layer: 2
SplineSet
37 770 m 5,0,-1
 464 770 l 1,1,-1
 464 0 l 1,2,-1
 37 0 l 1,3,-1
 37 770 l 5,0,-1
66 748 m 5,4,-1
 250 398 l 1,5,-1
 435 748 l 1,6,-1
 66 748 l 5,4,-1
258 383 m 5,7,-1
 442 34 l 1,8,-1
 442 733 l 1,9,-1
 258 383 l 5,7,-1
435 19 m 5,10,-1
 250 369 l 1,11,-1
 66 19 l 1,12,-1
 435 19 l 5,10,-1
59 733 m 5,13,-1
 59 34 l 1,14,-1
 243 383 l 1,15,-1
 59 733 l 5,13,-1
EndSplineSet
Validated: 1
EndChar

StartChar: uni0014
Encoding: 20 20 73
Width: 500
Flags: W
HStem: 0 19<66 435> 748 22<66 435>
VStem: 37 22<34 733> 442 22<34 733>
DStem2: 66 748 59 733 0.465951 -0.884811<10.0105 395.419 421.078 806.952> 59 34 66 19 0.465951 0.884811<0 385.408 411.068 796.942>
LayerCount: 3
Fore
SplineSet
37 770 m 1
 464 770 l 1
 464 0 l 1
 37 0 l 1
 37 770 l 1
66 748 m 1
 250 398 l 1
 435 748 l 1
 66 748 l 1
258 383 m 1
 442 34 l 1
 442 733 l 1
 258 383 l 1
435 19 m 1
 250 369 l 1
 66 19 l 1
 435 19 l 1
59 733 m 1
 59 34 l 1
 243 383 l 1
 59 733 l 1
EndSplineSet
Validated: 1
Layer: 2
SplineSet
37 770 m 5,0,-1
 464 770 l 1,1,-1
 464 0 l 1,2,-1
 37 0 l 1,3,-1
 37 770 l 5,0,-1
66 748 m 5,4,-1
 250 398 l 1,5,-1
 435 748 l 1,6,-1
 66 748 l 5,4,-1
258 383 m 5,7,-1
 442 34 l 1,8,-1
 442 733 l 1,9,-1
 258 383 l 5,7,-1
435 19 m 5,10,-1
 250 369 l 1,11,-1
 66 19 l 1,12,-1
 435 19 l 5,10,-1
59 733 m 5,13,-1
 59 34 l 1,14,-1
 243 383 l 1,15,-1
 59 733 l 5,13,-1
EndSplineSet
Validated: 1
EndChar

StartChar: uni0015
Encoding: 21 21 74
Width: 500
Flags: W
HStem: 0 19<66 435> 748 22<66 435>
VStem: 37 22<34 733> 442 22<34 733>
DStem2: 66 748 59 733 0.465951 -0.884811<10.0105 395.419 421.078 806.952> 59 34 66 19 0.465951 0.884811<0 385.408 411.068 796.942>
LayerCount: 3
Fore
SplineSet
37 770 m 1
 464 770 l 1
 464 0 l 1
 37 0 l 1
 37 770 l 1
66 748 m 1
 250 398 l 1
 435 748 l 1
 66 748 l 1
258 383 m 1
 442 34 l 1
 442 733 l 1
 258 383 l 1
435 19 m 1
 250 369 l 1
 66 19 l 1
 435 19 l 1
59 733 m 1
 59 34 l 1
 243 383 l 1
 59 733 l 1
EndSplineSet
Validated: 1
Layer: 2
SplineSet
37 770 m 5,0,-1
 464 770 l 1,1,-1
 464 0 l 1,2,-1
 37 0 l 1,3,-1
 37 770 l 5,0,-1
66 748 m 5,4,-1
 250 398 l 1,5,-1
 435 748 l 1,6,-1
 66 748 l 5,4,-1
258 383 m 5,7,-1
 442 34 l 1,8,-1
 442 733 l 1,9,-1
 258 383 l 5,7,-1
435 19 m 5,10,-1
 250 369 l 1,11,-1
 66 19 l 1,12,-1
 435 19 l 5,10,-1
59 733 m 5,13,-1
 59 34 l 1,14,-1
 243 383 l 1,15,-1
 59 733 l 5,13,-1
EndSplineSet
Validated: 1
EndChar

StartChar: uni0016
Encoding: 22 22 75
Width: 500
Flags: W
HStem: 0 19<66 435> 748 22<66 435>
VStem: 37 22<34 733> 442 22<34 733>
DStem2: 66 748 59 733 0.465951 -0.884811<10.0105 395.419 421.078 806.952> 59 34 66 19 0.465951 0.884811<0 385.408 411.068 796.942>
LayerCount: 3
Fore
SplineSet
37 770 m 1
 464 770 l 1
 464 0 l 1
 37 0 l 1
 37 770 l 1
66 748 m 1
 250 398 l 1
 435 748 l 1
 66 748 l 1
258 383 m 1
 442 34 l 1
 442 733 l 1
 258 383 l 1
435 19 m 1
 250 369 l 1
 66 19 l 1
 435 19 l 1
59 733 m 1
 59 34 l 1
 243 383 l 1
 59 733 l 1
EndSplineSet
Validated: 1
Layer: 2
SplineSet
37 770 m 5,0,-1
 464 770 l 1,1,-1
 464 0 l 1,2,-1
 37 0 l 1,3,-1
 37 770 l 5,0,-1
66 748 m 5,4,-1
 250 398 l 1,5,-1
 435 748 l 1,6,-1
 66 748 l 5,4,-1
258 383 m 5,7,-1
 442 34 l 1,8,-1
 442 733 l 1,9,-1
 258 383 l 5,7,-1
435 19 m 5,10,-1
 250 369 l 1,11,-1
 66 19 l 1,12,-1
 435 19 l 5,10,-1
59 733 m 5,13,-1
 59 34 l 1,14,-1
 243 383 l 1,15,-1
 59 733 l 5,13,-1
EndSplineSet
Validated: 1
EndChar

StartChar: uni0017
Encoding: 23 23 76
Width: 500
Flags: W
HStem: 0 19<66 435> 748 22<66 435>
VStem: 37 22<34 733> 442 22<34 733>
DStem2: 66 748 59 733 0.465951 -0.884811<10.0105 395.419 421.078 806.952> 59 34 66 19 0.465951 0.884811<0 385.408 411.068 796.942>
LayerCount: 3
Fore
SplineSet
37 770 m 1
 464 770 l 1
 464 0 l 1
 37 0 l 1
 37 770 l 1
66 748 m 1
 250 398 l 1
 435 748 l 1
 66 748 l 1
258 383 m 1
 442 34 l 1
 442 733 l 1
 258 383 l 1
435 19 m 1
 250 369 l 1
 66 19 l 1
 435 19 l 1
59 733 m 1
 59 34 l 1
 243 383 l 1
 59 733 l 1
EndSplineSet
Validated: 1
Layer: 2
SplineSet
37 770 m 5,0,-1
 464 770 l 1,1,-1
 464 0 l 1,2,-1
 37 0 l 1,3,-1
 37 770 l 5,0,-1
66 748 m 5,4,-1
 250 398 l 1,5,-1
 435 748 l 1,6,-1
 66 748 l 5,4,-1
258 383 m 5,7,-1
 442 34 l 1,8,-1
 442 733 l 1,9,-1
 258 383 l 5,7,-1
435 19 m 5,10,-1
 250 369 l 1,11,-1
 66 19 l 1,12,-1
 435 19 l 5,10,-1
59 733 m 5,13,-1
 59 34 l 1,14,-1
 243 383 l 1,15,-1
 59 733 l 5,13,-1
EndSplineSet
Validated: 1
EndChar

StartChar: uni0018
Encoding: 24 24 77
Width: 500
Flags: W
HStem: 0 19<66 435> 748 22<66 435>
VStem: 37 22<34 733> 442 22<34 733>
DStem2: 66 748 59 733 0.465951 -0.884811<10.0105 395.419 421.078 806.952> 59 34 66 19 0.465951 0.884811<0 385.408 411.068 796.942>
LayerCount: 3
Fore
SplineSet
37 770 m 1
 464 770 l 1
 464 0 l 1
 37 0 l 1
 37 770 l 1
66 748 m 1
 250 398 l 1
 435 748 l 1
 66 748 l 1
258 383 m 1
 442 34 l 1
 442 733 l 1
 258 383 l 1
435 19 m 1
 250 369 l 1
 66 19 l 1
 435 19 l 1
59 733 m 1
 59 34 l 1
 243 383 l 1
 59 733 l 1
EndSplineSet
Validated: 1
Layer: 2
SplineSet
37 770 m 5,0,-1
 464 770 l 1,1,-1
 464 0 l 1,2,-1
 37 0 l 1,3,-1
 37 770 l 5,0,-1
66 748 m 5,4,-1
 250 398 l 1,5,-1
 435 748 l 1,6,-1
 66 748 l 5,4,-1
258 383 m 5,7,-1
 442 34 l 1,8,-1
 442 733 l 1,9,-1
 258 383 l 5,7,-1
435 19 m 5,10,-1
 250 369 l 1,11,-1
 66 19 l 1,12,-1
 435 19 l 5,10,-1
59 733 m 5,13,-1
 59 34 l 1,14,-1
 243 383 l 1,15,-1
 59 733 l 5,13,-1
EndSplineSet
Validated: 1
EndChar

StartChar: uni0019
Encoding: 25 25 78
Width: 500
Flags: W
HStem: 0 19<66 435> 748 22<66 435>
VStem: 37 22<34 733> 442 22<34 733>
DStem2: 66 748 59 733 0.465951 -0.884811<10.0105 395.419 421.078 806.952> 59 34 66 19 0.465951 0.884811<0 385.408 411.068 796.942>
LayerCount: 3
Fore
SplineSet
37 770 m 1
 464 770 l 1
 464 0 l 1
 37 0 l 1
 37 770 l 1
66 748 m 1
 250 398 l 1
 435 748 l 1
 66 748 l 1
258 383 m 1
 442 34 l 1
 442 733 l 1
 258 383 l 1
435 19 m 1
 250 369 l 1
 66 19 l 1
 435 19 l 1
59 733 m 1
 59 34 l 1
 243 383 l 1
 59 733 l 1
EndSplineSet
Validated: 1
Layer: 2
SplineSet
37 770 m 5,0,-1
 464 770 l 1,1,-1
 464 0 l 1,2,-1
 37 0 l 1,3,-1
 37 770 l 5,0,-1
66 748 m 5,4,-1
 250 398 l 1,5,-1
 435 748 l 1,6,-1
 66 748 l 5,4,-1
258 383 m 5,7,-1
 442 34 l 1,8,-1
 442 733 l 1,9,-1
 258 383 l 5,7,-1
435 19 m 5,10,-1
 250 369 l 1,11,-1
 66 19 l 1,12,-1
 435 19 l 5,10,-1
59 733 m 5,13,-1
 59 34 l 1,14,-1
 243 383 l 1,15,-1
 59 733 l 5,13,-1
EndSplineSet
Validated: 1
EndChar

StartChar: uni001A
Encoding: 26 26 79
Width: 500
Flags: W
HStem: 0 19<66 435> 748 22<66 435>
VStem: 37 22<34 733> 442 22<34 733>
DStem2: 66 748 59 733 0.465951 -0.884811<10.0105 395.419 421.078 806.952> 59 34 66 19 0.465951 0.884811<0 385.408 411.068 796.942>
LayerCount: 3
Fore
SplineSet
37 770 m 1
 464 770 l 1
 464 0 l 1
 37 0 l 1
 37 770 l 1
66 748 m 1
 250 398 l 1
 435 748 l 1
 66 748 l 1
258 383 m 1
 442 34 l 1
 442 733 l 1
 258 383 l 1
435 19 m 1
 250 369 l 1
 66 19 l 1
 435 19 l 1
59 733 m 1
 59 34 l 1
 243 383 l 1
 59 733 l 1
EndSplineSet
Validated: 1
Layer: 2
SplineSet
37 770 m 5,0,-1
 464 770 l 1,1,-1
 464 0 l 1,2,-1
 37 0 l 1,3,-1
 37 770 l 5,0,-1
66 748 m 5,4,-1
 250 398 l 1,5,-1
 435 748 l 1,6,-1
 66 748 l 5,4,-1
258 383 m 5,7,-1
 442 34 l 1,8,-1
 442 733 l 1,9,-1
 258 383 l 5,7,-1
435 19 m 5,10,-1
 250 369 l 1,11,-1
 66 19 l 1,12,-1
 435 19 l 5,10,-1
59 733 m 5,13,-1
 59 34 l 1,14,-1
 243 383 l 1,15,-1
 59 733 l 5,13,-1
EndSplineSet
Validated: 1
EndChar

StartChar: uni001B
Encoding: 27 27 80
Width: 500
Flags: W
HStem: 0 19<66 435> 748 22<66 435>
VStem: 37 22<34 733> 442 22<34 733>
DStem2: 66 748 59 733 0.465951 -0.884811<10.0105 395.419 421.078 806.952> 59 34 66 19 0.465951 0.884811<0 385.408 411.068 796.942>
LayerCount: 3
Fore
SplineSet
37 770 m 1
 464 770 l 1
 464 0 l 1
 37 0 l 1
 37 770 l 1
66 748 m 1
 250 398 l 1
 435 748 l 1
 66 748 l 1
258 383 m 1
 442 34 l 1
 442 733 l 1
 258 383 l 1
435 19 m 1
 250 369 l 1
 66 19 l 1
 435 19 l 1
59 733 m 1
 59 34 l 1
 243 383 l 1
 59 733 l 1
EndSplineSet
Validated: 1
Layer: 2
SplineSet
37 770 m 5,0,-1
 464 770 l 1,1,-1
 464 0 l 1,2,-1
 37 0 l 1,3,-1
 37 770 l 5,0,-1
66 748 m 5,4,-1
 250 398 l 1,5,-1
 435 748 l 1,6,-1
 66 748 l 5,4,-1
258 383 m 5,7,-1
 442 34 l 1,8,-1
 442 733 l 1,9,-1
 258 383 l 5,7,-1
435 19 m 5,10,-1
 250 369 l 1,11,-1
 66 19 l 1,12,-1
 435 19 l 5,10,-1
59 733 m 5,13,-1
 59 34 l 1,14,-1
 243 383 l 1,15,-1
 59 733 l 5,13,-1
EndSplineSet
Validated: 1
EndChar

StartChar: uni001C
Encoding: 28 28 81
Width: 500
Flags: W
HStem: 0 19<66 435> 748 22<66 435>
VStem: 37 22<34 733> 442 22<34 733>
DStem2: 66 748 59 733 0.465951 -0.884811<10.0105 395.419 421.078 806.952> 59 34 66 19 0.465951 0.884811<0 385.408 411.068 796.942>
LayerCount: 3
Fore
SplineSet
37 770 m 1
 464 770 l 1
 464 0 l 1
 37 0 l 1
 37 770 l 1
66 748 m 1
 250 398 l 1
 435 748 l 1
 66 748 l 1
258 383 m 1
 442 34 l 1
 442 733 l 1
 258 383 l 1
435 19 m 1
 250 369 l 1
 66 19 l 1
 435 19 l 1
59 733 m 1
 59 34 l 1
 243 383 l 1
 59 733 l 1
EndSplineSet
Validated: 1
Layer: 2
SplineSet
37 770 m 5,0,-1
 464 770 l 1,1,-1
 464 0 l 1,2,-1
 37 0 l 1,3,-1
 37 770 l 5,0,-1
66 748 m 5,4,-1
 250 398 l 1,5,-1
 435 748 l 1,6,-1
 66 748 l 5,4,-1
258 383 m 5,7,-1
 442 34 l 1,8,-1
 442 733 l 1,9,-1
 258 383 l 5,7,-1
435 19 m 5,10,-1
 250 369 l 1,11,-1
 66 19 l 1,12,-1
 435 19 l 5,10,-1
59 733 m 5,13,-1
 59 34 l 1,14,-1
 243 383 l 1,15,-1
 59 733 l 5,13,-1
EndSplineSet
Validated: 1
EndChar

StartChar: uni001E
Encoding: 30 30 83
Width: 500
Flags: W
HStem: 0 19<66 435> 748 22<66 435>
VStem: 37 22<34 733> 442 22<34 733>
DStem2: 66 748 59 733 0.465951 -0.884811<10.0105 395.419 421.078 806.952> 59 34 66 19 0.465951 0.884811<0 385.408 411.068 796.942>
LayerCount: 3
Fore
SplineSet
37 770 m 1
 464 770 l 1
 464 0 l 1
 37 0 l 1
 37 770 l 1
66 748 m 1
 250 398 l 1
 435 748 l 1
 66 748 l 1
258 383 m 1
 442 34 l 1
 442 733 l 1
 258 383 l 1
435 19 m 1
 250 369 l 1
 66 19 l 1
 435 19 l 1
59 733 m 1
 59 34 l 1
 243 383 l 1
 59 733 l 1
EndSplineSet
Validated: 1
Layer: 2
SplineSet
37 770 m 5,0,-1
 464 770 l 1,1,-1
 464 0 l 1,2,-1
 37 0 l 1,3,-1
 37 770 l 5,0,-1
66 748 m 5,4,-1
 250 398 l 1,5,-1
 435 748 l 1,6,-1
 66 748 l 5,4,-1
258 383 m 5,7,-1
 442 34 l 1,8,-1
 442 733 l 1,9,-1
 258 383 l 5,7,-1
435 19 m 5,10,-1
 250 369 l 1,11,-1
 66 19 l 1,12,-1
 435 19 l 5,10,-1
59 733 m 5,13,-1
 59 34 l 1,14,-1
 243 383 l 1,15,-1
 59 733 l 5,13,-1
EndSplineSet
Validated: 1
EndChar

StartChar: uni001F
Encoding: 31 31 84
Width: 500
Flags: W
HStem: 0 19<66 435> 748 22<66 435>
VStem: 37 22<34 733> 442 22<34 733>
DStem2: 66 748 59 733 0.465951 -0.884811<10.0105 395.419 421.078 806.952> 59 34 66 19 0.465951 0.884811<0 385.408 411.068 796.942>
LayerCount: 3
Fore
SplineSet
37 770 m 1
 464 770 l 1
 464 0 l 1
 37 0 l 1
 37 770 l 1
66 748 m 1
 250 398 l 1
 435 748 l 1
 66 748 l 1
258 383 m 1
 442 34 l 1
 442 733 l 1
 258 383 l 1
435 19 m 1
 250 369 l 1
 66 19 l 1
 435 19 l 1
59 733 m 1
 59 34 l 1
 243 383 l 1
 59 733 l 1
EndSplineSet
Validated: 1
Layer: 2
SplineSet
37 770 m 5,0,-1
 464 770 l 1,1,-1
 464 0 l 1,2,-1
 37 0 l 1,3,-1
 37 770 l 5,0,-1
66 748 m 5,4,-1
 250 398 l 1,5,-1
 435 748 l 1,6,-1
 66 748 l 5,4,-1
258 383 m 5,7,-1
 442 34 l 1,8,-1
 442 733 l 1,9,-1
 258 383 l 5,7,-1
435 19 m 5,10,-1
 250 369 l 1,11,-1
 66 19 l 1,12,-1
 435 19 l 5,10,-1
59 733 m 5,13,-1
 59 34 l 1,14,-1
 243 383 l 1,15,-1
 59 733 l 5,13,-1
EndSplineSet
Validated: 1
EndChar

StartChar: asterisk
Encoding: 42 42 86
Width: 443
VWidth: 1760
Flags: W
HStem: 440 123<150.167 179.718 266.16 295.875>
VStem: 150 30<475.344 522.45> 266 30<473.768 524.027>
LayerCount: 3
Fore
SplineSet
274.56 563.2 m 0
 309.76 563.2 323.84 587.84 355.52 587.84 c 0
 362.56 587.84 367.84 582.56 367.84 577.28 c 0
 367.84 563.2 344.96 547.36 336.16 542.08 c 0
 323.84 533.28 295.68 513.92 295.68 499.84 c 0
 295.68 480.48 325.6 462.88 337.92 454.08 c 0
 350.24 445.28 373.12 432.96 373.12 418.88 c 0
 373.12 411.84 366.08 406.56 357.28 406.56 c 0
 325.6 406.56 297.44 434.72 267.52 434.72 c 0
 244.64 434.72 246.4 346.72 223.52 346.72 c 0
 193.6 346.72 198.88 440 176 440 c 0
 165.44 440 139.04 422.4 130.24 420.64 c 0
 123.2 417.12 102.08 406.56 89.7598 406.56 c 0
 82.7197 406.56 75.6797 410.08 75.6797 415.36 c 0
 75.6797 427.68 102.08 447.04 109.12 452.32 c 0
 121.44 464.64 149.6 480.48 149.6 496.32 c 0
 149.6 517.44 121.44 535.04 105.6 545.6 c 0
 98.5596 552.64 72.1602 570.24 72.1602 582.56 c 0
 72.1602 582.56 72.1602 584.32 72.1602 586.08 c 0
 73.9199 589.6 80.96 591.36 86.2402 591.36 c 0
 123.2 591.36 137.28 563.2 176 563.2 c 0
 200.64 563.2 200.64 598.4 205.92 621.28 c 0
 209.44 637.12 214.72 665.28 228.8 665.28 c 256
 255.2 665.28 246.4 573.76 264 564.96 c 0
 267.52 563.2 271.04 563.2 274.56 563.2 c 0
179.52 501.6 m 0
 179.52 478.72 197.12 464.64 221.76 464.64 c 0
 242.88 464.64 265.76 476.96 265.76 499.84 c 0
 265.76 520.96 246.4 545.6 221.76 545.6 c 0
 198.88 545.6 179.52 524.48 179.52 501.6 c 0
EndSplineSet
Validated: 1
Layer: 2
SplineSet
89 435.5 m 128,-1,1
 102 446 102 446 107 450 c 0,2,3
 112 455 112 455 131 470 c 0,4,5
 150 486 150 486 150 495 c 0,6,7
 150 516 150 516 111 542 c 128,-1,8
 72 568 72 568 72 583 c 2,9,-1
 72 586 l 1,10,11
 75 591 75 591 90 591 c 0,12,13
 106 591 106 591 131 577 c 128,-1,14
 156 563 156 563 170 563 c 0,15,16
 181 563 181 563 188 567 c 0,17,18
 193 570 193 570 196 577 c 0,19,20
 199 585 199 585 200 591 c 0,21,22
 203 597 203 597 203 607 c 128,-1,23
 203 617 203 617 206 620 c 0,24,25
 206 622 206 622 207 624 c 0,26,27
 217 665 217 665 229 665 c 0,28,29
 243 665 243 665 250 616.5 c 128,-1,30
 257 568 257 568 262 566 c 0,31,32
 268 563 268 563 279 563 c 0,33,34
 291 563 291 563 303 569 c 0,35,36
 317 576 317 576 330 582 c 0,37,38
 342 588 342 588 355 588 c 128,-1,39
 368 588 368 588 368 575 c 0,40,41
 368 560 368 560 336 542 c 0,42,43
 296 519 296 519 296 498 c 128,-1,44
 296 477 296 477 332 458 c 0,45,46
 338 455 338 455 338 454 c 0,47,48
 338 455 338 455 346 450 c 0,49,50
 373 431 373 431 373 422.5 c 0,51,52
 373 416 373 416 369 410 c 0,53,54
 367 407 367 407 353 407 c 0,55,56
 343 407 343 407 312 421 c 128,-1,57
 281 435 281 435 268 435 c 0,58,59
 258 435 258 435 252 413 c 0,60,61
 240 369 240 369 240 369 c 0,62,63
 233 347 233 347 223 347 c 0,64,65
 205 347 205 347 197 393.5 c 128,-1,66
 189 440 189 440 176 440 c 0,67,68
 168 440 168 440 152 431 c 0,69,70
 132 420 132 420 131 420 c 0,71,72
 128 420 128 420 127 419 c 0,73,74
 125 417 125 417 113 412 c 128,-1,75
 101 407 101 407 88 407 c 0,76,77
 76 407 76 407 76 416 c 128,-1,0
 76 425 76 425 89 435.5 c 128,-1,1
185 523 m 0,78,79
 180 513 180 513 180 499 c 0,80,81
 180 486 180 486 192 475 c 0,82,83
 203 465 203 465 221 465 c 128,-1,84
 239 465 239 465 252 474 c 0,85,86
 266 484 266 484 266 497 c 0,87,88
 266 509 266 509 260 521 c 0,89,90
 247 546 247 546 222 546 c 0,91,92
 196 546 196 546 185 523 c 0,78,79
EndSplineSet
EndChar

StartChar: parenleft
Encoding: 40 40 87
Width: 323
VWidth: 1760
Flags: W
VStem: 48 86<110.211 397.788>
LayerCount: 3
Fore
SplineSet
259.866 -1.75977 m 1
 197.351 36.2549 53.7354 157.062 53.7354 360.659 c 0
 53.7354 575.238 193.127 674.08 262.4 718.854 c 1
 270.003 705.338 l 1
 182.989 635.219 126.389 570.17 126.389 363.193 c 0
 126.389 147.77 182.989 80.1846 270.003 11.7559 c 1
 259.866 -1.75977 l 1
EndSplineSet
Validated: 1
Layer: 2
SplineSet
292 -177 m 1,0,1
 231 -139 231 -139 185 -87.5 c 128,-1,2
 139 -36 139 -36 112 9.5 c 128,-1,3
 85 55 85 55 66.5 119 c 128,-1,4
 48 183 48 183 48 253.5 c 128,-1,5
 48 324 48 324 66.5 388.5 c 128,-1,6
 85 453 85 453 110 495.5 c 128,-1,7
 135 538 135 538 173.5 577.5 c 128,-1,8
 212 617 212 617 237 636 c 128,-1,9
 262 655 262 655 295 676 c 1,10,-1
 304 660 l 1,11,12
 260 624 260 624 233 595 c 128,-1,13
 206 566 206 566 181 520 c 0,14,15
 134 432 134 432 134 251 c 128,-1,16
 134 70 134 70 181 -20 c 0,17,18
 206 -67 206 -67 233 -97 c 128,-1,19
 260 -127 260 -127 304 -161 c 1,20,-1
 292 -177 l 1,0,1
EndSplineSet
EndChar

StartChar: parenright
Encoding: 41 41 88
Width: 323
VWidth: 1760
Flags: W
VStem: 199 86<101.212 388.789>
LayerCount: 3
Fore
SplineSet
63.3604 -1.75977 m 1
 54.5596 12.3203 l 1
 140.8 80.96 197.12 147.84 197.12 362.56 c 0
 197.12 570.24 140.8 635.36 54.5596 705.76 c 1
 61.5996 718.08 l 1
 130.24 674.08 269.28 575.52 269.28 360.8 c 0
 269.28 156.64 126.72 36.96 63.3604 -1.75977 c 1
EndSplineSet
Validated: 1
Layer: 2
Refer: 87 40 N -1 0 0 -1 333 499 2
EndChar

StartChar: uniEA60
Encoding: 60000 60000 89
Width: 375
VWidth: 0
Flags: W
HStem: 21 97<157.184 223.988> 218 88<255.657 340.255>
VStem: 239 116<235.488 289.997>
LayerCount: 3
Fore
SplineSet
286.34 305.84 m 0
 319.779 305.84 354.98 281.2 354.98 254.8 c 0
 354.98 228.4 330.34 217.84 307.461 217.84 c 0
 272.26 217.84 238.82 247.76 238.82 272.4 c 0
 238.82 288.24 254.66 305.84 286.34 305.84 c 0
131.461 87.5996 m 9
 177.221 99.9199 200.1 117.52 249.381 117.52 c 0
 268.74 117.52 284.58 112.24 284.58 84.0801 c 0
 284.58 59.4404 180.74 20.7197 112.1 20.7197 c 0
 83.9395 20.7197 61.0605 27.7598 55.7793 43.5996 c 0
 41.6992 80.5596 25.8594 124.56 20.5801 168.56 c 1
 48.7402 186.16 75.1406 189.68 89.2207 189.68 c 0
 120.9 189.68 115.621 149.2 131.461 87.5996 c 9
EndSplineSet
Validated: 1
Layer: 2
SplineSet
355 255 m 0,0,1
 355 218 355 218 304 218 c 0,2,3
 282 218 282 218 260 236 c 0,4,5
 239 253 239 253 239 269 c 0,6,7
 239 283 239 283 252 295 c 0,8,9
 264 306 264 306 288 306 c 128,-1,10
 312 306 312 306 333.5 290 c 128,-1,11
 355 274 355 274 355 255 c 0,0,1
131 88 m 9,12,13
 147 92 147 92 181 105 c 128,-1,14
 215 118 215 118 241 118 c 0,15,16
 265 118 265 118 275 111 c 128,-1,17
 285 104 285 104 285 85 c 0,18,19
 285 65 285 65 224 43 c 128,-1,20
 163 21 163 21 113 21 c 128,-1,21
 63 21 63 21 56 44 c 1,22,23
 26 121 26 121 21 169 c 1,24,25
 54 190 54 190 89 190 c 0,26,27
 106 190 106 190 113 171 c 0,28,29
 117 160 117 160 123 132 c 0,30,31
 131 88 131 88 131 88 c 9,12,13
EndSplineSet
Validated: 1
LCarets2: 1 0
Ligature2: "'ccmp' Znamenny Ligatures 0-1" uniEE75 uniEE5A
Ligature2: "'ccmp' Znamenny Ligatures 0-1" uniEE75 uniEE50
Colour: ffff
EndChar

StartChar: uniEA99
Encoding: 60057 60057 90
Width: 432
VWidth: 0
Flags: W
HStem: 21 21G<358.5 385.5> 302 85<290.924 378.498>
VStem: 277 118<315.172 372.925>
LayerCount: 3
Fore
SplineSet
277.36 349.84 m 0
 277.36 365.68 293.2 386.8 326.64 386.8 c 0
 356.56 386.8 395.28 367.44 395.28 339.28 c 0
 395.28 316.4 368.88 302.32 342.48 302.32 c 0
 310.8 302.32 277.36 323.44 277.36 349.84 c 0
310.8 54.1602 m 0
 206.96 156.24 145.36 231.92 43.2803 358.64 c 0
 30.96 372.72 20.4004 383.28 20.4004 402.64 c 0
 20.4004 425.52 45.04 441.36 71.4404 441.36 c 0
 78.4805 441.36 85.5195 439.6 92.5596 432.56 c 0
 208.72 284.72 272.08 203.76 405.84 73.5195 c 0
 409.36 68.2402 411.12 62.96 411.12 57.6797 c 0
 411.12 41.8398 397.04 24.2402 379.44 20.7197 c 1
 333.68 22.4805 331.92 33.04 310.8 54.1602 c 0
EndSplineSet
Validated: 1
Layer: 2
SplineSet
379 313 m 128,-1,1
 363 302 363 302 340 302 c 128,-1,2
 317 302 317 302 297 316.5 c 128,-1,3
 277 331 277 331 277 347.5 c 128,-1,4
 277 364 277 364 290.5 375.5 c 128,-1,5
 304 387 304 387 327.5 387 c 128,-1,6
 351 387 351 387 373 373 c 128,-1,7
 395 359 395 359 395 341.5 c 128,-1,0
 395 324 395 324 379 313 c 128,-1,1
41 361 m 0,8,9
 20 388 20 388 20 403 c 0,10,11
 20 419 20 419 36 430 c 128,-1,12
 52 441 52 441 68 441 c 128,-1,13
 84 441 84 441 93 433 c 1,14,15
 175 327 175 327 199 298 c 0,16,17
 294 183 294 183 406 74 c 1,18,19
 411 66 411 66 411 56 c 128,-1,20
 411 46 411 46 401.5 34.5 c 128,-1,21
 392 23 392 23 379 21 c 1,22,23
 338 21 338 21 330 35 c 0,24,25
 327 40 327 40 324 41 c 0,26,27
 321 43 321 43 276 88 c 0,28,29
 173 191 173 191 41 361 c 0,8,9
EndSplineSet
Validated: 1
Ligature2: "'ccmp' Znamenny Ligatures 0-1" u1CF5C u1CF3C
Ligature2: "'ccmp' Znamenny Ligatures 0-1" uniEE78 uniEE5A
Colour: ffff
EndChar

StartChar: uniEB0D
Encoding: 60173 60173 91
Width: 562
VWidth: 0
Flags: W
HStem: 22 21G<147.25 157.75> 147 81<449.924 524.983> 282 76<380.346 457.099>
VStem: 369 99<294.92 346.065> 436 106<156.799 217.686>
DStem2: 28 210 71.5 157 0.92645 0.376417<-2.53507 246.276> 134 80 189 32 0.926413 0.37651<-4.39054 245.827>
LayerCount: 3
Fore
SplineSet
542 186 m 0xe8
 542 157 512 147 487 147 c 0
 457 147 436 172 436 193 c 0
 436 212 454 228 486 228 c 0
 512 228 542 209 542 186 c 0xe8
410 358 m 0
 438 358 468 335 468 312 c 0
 468 291 449 282 427 282 c 0
 398 282 369 307 369 328 c 0xf0
 369 342 383 358 410 358 c 0
156 22 m 0
 138 22 121 39 121 60 c 0
 121 69 125 77 134 80 c 0
 241 122 255 129 348 166 c 0
 352 168 356 169 360 169 c 0
 378 169 391 153 391 133 c 0
 391 122 386 113 376 108 c 0
 288 73 251 55 167 24 c 0
 163 22 160 22 156 22 c 0
52 152 m 0
 33 152 18 168 18 190 c 0
 18 199 21 207 28 210 c 0
 137 253 151 260 244 297 c 0
 248 299 252 299 255 299 c 0
 273 299 287 280 287 263 c 0
 287 253 282 243 271 238 c 0
 185 203 148 186 63 154 c 0
 59 152 55 152 52 152 c 0
EndSplineSet
Validated: 1
Layer: 2
SplineSet
524 215.5 m 128,-1,1
 542 203 542 203 542 184.5 c 128,-1,2
 542 166 542 166 525.5 156.5 c 128,-1,3
 509 147 509 147 487.5 147 c 128,-1,4
 466 147 466 147 451 161.5 c 128,-1,5
 436 176 436 176 436 192 c 128,-1,6
 436 208 436 208 449.5 218 c 128,-1,7
 463 228 463 228 484.5 228 c 128,-1,0
 506 228 506 228 524 215.5 c 128,-1,1
380 349 m 128,-1,9
 391 358 391 358 411 358 c 128,-1,10
 431 358 431 358 449.5 343.5 c 128,-1,11
 468 329 468 329 468 312 c 0,12,13
 468 282 468 282 427 282 c 0,14,15
 406 282 406 282 387.5 297 c 128,-1,16
 369 312 369 312 369 326 c 128,-1,8
 369 340 369 340 380 349 c 128,-1,9
282 69.5 m 128,-1,18
 215 42 215 42 189 32 c 128,-1,19
 163 22 163 22 152.5 22 c 128,-1,20
 142 22 142 22 131.5 33 c 128,-1,21
 121 44 121 44 121 60 c 0,22,23
 121 75 121 75 134 80 c 0,24,25
 193 103 193 103 273 136 c 0,26,27
 354 169 354 169 363.5 169 c 128,-1,28
 373 169 373 169 382 158.5 c 128,-1,29
 391 148 391 148 391 132 c 128,-1,30
 391 116 391 116 376 108 c 1,31,17
 349 97 349 97 282 69.5 c 128,-1,18
271 238 m 0,32,33
 84 162 84 162 71.5 157 c 128,-1,34
 59 152 59 152 48.5 152 c 128,-1,35
 38 152 38 152 28 163 c 128,-1,36
 18 174 18 174 18 190 c 128,-1,37
 18 206 18 206 28 210 c 0,38,39
 87 233 87 233 167 266 c 0,40,41
 248 299 248 299 258 299 c 128,-1,42
 268 299 268 299 277.5 287.5 c 128,-1,43
 287 276 287 276 287 260.5 c 128,-1,44
 287 245 287 245 271 238 c 0,32,33
EndSplineSet
Validated: 1
Ligature2: "'ccmp' Znamenny Ligatures 0-1" u1CF86 u1CF31
Ligature2: "'ccmp' Znamenny Ligatures 0-1" uniEE8F uniEE51
Colour: ffff
EndChar

StartChar: uniEAFD
Encoding: 60157 60157 92
Width: 481
VWidth: 0
Flags: W
HStem: 22 21G<146.25 156.75> 282 76<380.346 456.365>
VStem: 369 98<294.312 346.065>
DStem2: 27 210 70.5 157 0.92645 0.376417<-2.53507 246.276> 133 80 183 30 0.927146 0.374701<-4.27316 246.283>
LayerCount: 3
Fore
SplineSet
409 358 m 0
 437 358 467 335 467 312 c 0
 467 291 448 282 427 282 c 0
 397 282 369 307 369 328 c 0
 369 342 383 358 409 358 c 0
155 22 m 0
 137 22 121 38 121 60 c 0
 121 69 124 77 133 80 c 0
 240 122 254 129 348 166 c 0
 352 168 356 169 360 169 c 0
 378 169 390 152 390 132 c 0
 390 122 386 112 376 108 c 0
 288 73 251 55 166 24 c 0
 162 22 159 22 155 22 c 0
51 152 m 0
 32 152 17 168 17 190 c 0
 17 199 20 207 27 210 c 0
 136 253 150 260 244 297 c 0
 248 299 251 299 255 299 c 0
 272 299 286 280 286 263 c 0
 286 253 281 243 270 238 c 0
 184 203 147 186 62 154 c 0
 58 152 54 152 51 152 c 0
EndSplineSet
Validated: 1
Layer: 2
SplineSet
380 349 m 128,-1,1
 391 358 391 358 410.5 358 c 128,-1,2
 430 358 430 358 448.5 343.5 c 128,-1,3
 467 329 467 329 467 312 c 0,4,5
 467 282 467 282 427 282 c 0,6,7
 405 282 405 282 387 297 c 128,-1,8
 369 312 369 312 369 326 c 128,-1,0
 369 340 369 340 380 349 c 128,-1,1
235 50.5 m 128,-1,10
 204 38 204 38 183 30 c 128,-1,11
 162 22 162 22 151.5 22 c 128,-1,12
 141 22 141 22 131 33 c 128,-1,13
 121 44 121 44 121 60 c 0,14,15
 121 75 121 75 133 80 c 0,16,17
 189 102 189 102 271 136 c 0,18,19
 353 169 353 169 363 169 c 128,-1,20
 373 169 373 169 381.5 158 c 128,-1,21
 390 147 390 147 390 130.5 c 128,-1,22
 390 114 390 114 376 108 c 0,23,24
 344 95 344 95 305 79 c 128,-1,9
 266 63 266 63 235 50.5 c 128,-1,10
270 238 m 0,25,26
 83 162 83 162 70.5 157 c 128,-1,27
 58 152 58 152 47.5 152 c 128,-1,28
 37 152 37 152 27 163 c 128,-1,29
 17 174 17 174 17 190 c 128,-1,30
 17 206 17 206 27 210 c 0,31,32
 83 232 83 232 165 266 c 0,33,34
 247 299 247 299 257 299 c 128,-1,35
 267 299 267 299 276.5 287.5 c 128,-1,36
 286 276 286 276 286 260.5 c 128,-1,37
 286 245 286 245 270 238 c 0,25,26
EndSplineSet
Validated: 1
Ligature2: "'ccmp' Znamenny Ligatures 0-1" u1CF86 u1CF30
Ligature2: "'ccmp' Znamenny Ligatures 0-1" uniEE8F uniEE50
Colour: ffff
EndChar

StartChar: uniEB01
Encoding: 60161 60161 93
Width: 736
VWidth: 0
Flags: W
HStem: 21 60<119.283 201.498> 83 61<292.076 376.718> 223 62<199.73 287.718> 248 76<628.346 704.365>
VStem: 617 98<260.312 312.065>
DStem2: 460 357 411 283 0.638018 -0.770022<-21.5748 406.591>
LayerCount: 3
Fore
SplineSet
657 324 m 0xec
 685 324 715 301 715 278 c 0
 715 257 696 248 675 248 c 0
 645 248 617 273 617 294 c 0
 617 308 631 324 657 324 c 0xec
388 327 m 0
 388 350 414 366 439 366 c 0
 446 366 455 364 460 357 c 0
 529 274 604 190 692 77 c 0
 705 61 710 51 712 32 c 1
 712 16 696 3 680 3 c 0
 648 3 636 23 615 44 c 1
 478 211 458 230 411 283 c 0
 398 297 388 308 388 327 c 0
144 21 m 0
 122 21 110 38 110 60 c 0
 110 70 113 78 122 81 c 0
 235 111 249 116 348 144 c 0
 350 144 353 144 355 144 c 0
 374 144 386 125 386 109 c 0
 386 97 381 86 367 83 c 0
 277 58 239 44 151 21 c 0
 149 21 145 21 144 21 c 0
54 162 m 0
 34 162 20 178 20 200 c 0
 20 211 24 220 34 222 c 1
 147 253 159 257 258 285 c 0
 262 285 263 285 267 285 c 0
 284 285 297 267 297 250 c 0
 297 237 291 227 279 223 c 0xf4
 189 199 149 186 63 164 c 0
 59 162 57 162 54 162 c 0
EndSplineSet
Validated: 1
Layer: 2
SplineSet
628 315 m 128,-1,1
 639 324 639 324 658.5 324 c 128,-1,2
 678 324 678 324 696.5 309.5 c 128,-1,3
 715 295 715 295 715 278 c 0,4,5
 715 248 715 248 675 248 c 0,6,7
 653 248 653 248 635 263 c 128,-1,8
 617 278 617 278 617 292 c 128,-1,0
 617 306 617 306 628 315 c 128,-1,1
411 283 m 0,9,10
 388 308 388 308 388 326 c 128,-1,11
 388 344 388 344 403.5 355 c 128,-1,12
 419 366 419 366 436.5 366 c 128,-1,13
 454 366 454 366 460 357 c 1,14,15
 481 332 481 332 553 248 c 0,16,17
 624 164 624 164 692 77 c 0,18,19
 712 54 712 54 712 32 c 1,20,21
 712 20 712 20 702 11.5 c 128,-1,22
 692 3 692 3 681.5 3 c 128,-1,23
 671 3 671 3 663.5 5 c 128,-1,24
 656 7 656 7 649 12 c 128,-1,25
 642 17 642 17 638 20 c 128,-1,26
 634 23 634 23 626 32 c 128,-1,27
 618 41 618 41 567.5 102.5 c 128,-1,28
 517 164 517 164 411 283 c 0,9,10
144 21 m 2,29,30
 128 21 128 21 119 32 c 128,-1,31
 110 43 110 43 110 60 c 128,-1,32
 110 77 110 77 122 81 c 0,33,34
 175 95 175 95 348 144 c 1,35,-1
 355 144 l 2,36,37
 368 144 368 144 377 133 c 128,-1,38
 386 122 386 122 386 104.5 c 128,-1,39
 386 87 386 87 367 83 c 1,40,41
 330 73 330 73 265 53.5 c 128,-1,42
 200 34 200 34 151 21 c 1,43,-1
 144 21 l 2,29,30
176 194.5 m 128,-1,45
 110 176 110 176 84.5 169 c 128,-1,46
 59 162 59 162 49 162 c 128,-1,47
 39 162 39 162 29.5 172.5 c 128,-1,48
 20 183 20 183 20 201 c 128,-1,49
 20 219 20 219 34 222 c 0,50,51
 76 233 76 233 258 285 c 1,52,-1
 267 285 l 2,53,54
 279 285 279 285 288 274 c 128,-1,55
 297 263 297 263 297 246 c 128,-1,56
 297 229 297 229 279 223 c 1,57,44
 242 213 242 213 176 194.5 c 128,-1,45
EndSplineSet
Validated: 1
Ligature2: "'ccmp' Znamenny Ligatures 0-1" u1CF8B u1CF30
Ligature2: "'ccmp' Znamenny Ligatures 0-1" uniEE93 uniEE50
Colour: ffff
EndChar

StartChar: uniEE5A
Encoding: 61018 61018 94
Width: 0
VWidth: 0
GlyphClass: 4
Flags: W
HStem: 400 75<-158.654 -80.25>
VStem: -169 99<411.511 463.043>
AnchorPoint: "Right" -160.16 422.4 mark 0
LayerCount: 3
Fore
SplineSet
-128.48 475.2 m 4
 -100.32 475.2 -70.4004 452.32 -70.4004 429.44 c 4
 -70.4004 408.32 -89.7598 399.52 -110.88 399.52 c 4
 -140.8 399.52 -168.96 424.16 -168.96 445.28 c 4
 -168.96 459.36 -156.64 475.2 -128.48 475.2 c 4
EndSplineSet
Validated: 1
Layer: 2
SplineSet
-159 466 m 0,0,1
 -148 475 -148 475 -128 475 c 0,2,3
 -107 475 -107 475 -89 461 c 0,4,5
 -70 446 -70 446 -70 431 c 0,6,7
 -70 400 -70 400 -111 400 c 0,8,9
 -133 400 -133 400 -151 414.5 c 128,-1,10
 -169 429 -169 429 -169 443 c 0,11,12
 -169 458 -169 458 -159 466 c 0,0,1
EndSplineSet
Validated: 1
Colour: ffff00
EndChar

StartChar: uni25CC
Encoding: 9676 9676 95
Width: 841
VWidth: 1760
Flags: W
HStem: 74 121<161.5 211 609.418 699.144> 306 122<55 107.5 739 787.325> 561 123<144.534 227.726>
VStem: 126 119<86.4901 179.582 599.159 666.056> 362 117<18.1283 65.3248 673.654 747.5> 594 118<110.159 156.325 584.305 676.972> 703 118<341 390.84>
DStem2: 223 667 143 580 0.694122 -0.719857<-16.832 31.9956 660.027 703.566>
AnchorPoint: "Right" 908.48 374.384 basechar 0
AnchorPoint: "Podchashie" 424.88 -102.08 basechar 0
AnchorPoint: "Tonal" 89.5996 800.096 basechar 0
LayerCount: 3
Fore
SplineSet
80 428 m 0x2280
 105 428 110 428 126 410 c 0x2180
 137 398 138 394 138 384 c 0
 138 380 138 374 138 366 c 0
 138 340 138 340 122 323 c 0
 106 306 106 306 80 306 c 0
 54 306 54 306 37 324 c 0
 20 341 20 341 20 366 c 0
 20 391 20 391 39 409 c 0
 57 428 57 428 80 428 c 0x2280
186 195 m 0x6180
 212 195 212 195 229 178 c 0
 245 160 245 160 245 134 c 0
 245 109 245 109 228 92 c 0
 210 74 210 74 186 74 c 0
 161 74 161 74 143 92 c 0
 126 109 126 109 126 134 c 0
 126 157 126 157 144 176 c 0
 163 195 163 195 186 195 c 0x6180
186 683 m 0x3180
 210 683 210 679 228 662 c 0x2580
 245 644 245 648 245 623 c 0
 245 597 245 597 229 579 c 0
 212 561 212 561 186 561 c 0x3180
 161 561 161 561 143 580 c 0
 126 598 126 598 126 623 c 0
 126 644 126 642 145 662 c 0x2580
 164 681 164 683 186 683 c 0x3180
421 102 m 0xa080
 448 102 448 102 464 84 c 0
 479 67 479 67 479 40 c 0
 479 16 479 18 463 0 c 0
 446 -18 446 -19 421 -19 c 0
 397 -19 397 -18 379 0 c 0
 362 18 362 16 362 40 c 0
 362 63 362 63 380 83 c 0
 398 102 398 102 421 102 c 0xa080
421 783 m 0x2480
 446 783 446 783 463 766 c 0
 479 748 479 748 479 723 c 0
 479 697 479 697 464 679 c 0
 448 662 448 662 421 662 c 0
 397 662 397 662 379 680 c 0
 362 699 362 699 362 723 c 0
 362 744 362 744 381 764 c 0
 400 783 400 783 421 783 c 0x2480
652 195 m 0x60c0
 678 195 678 195 695 178 c 0
 712 160 712 160 712 134 c 0
 712 107 712 107 695 91 c 0
 678 74 678 74 652 74 c 0
 629 74 629 74 611 92 c 0
 594 109 594 109 594 134 c 0
 594 157 594 157 612 176 c 0
 631 195 631 195 652 195 c 0x60c0
652 693 m 0x28c0
 678 693 678 693 695 676 c 0
 712 658 712 658 712 632 c 0
 712 605 712 605 695 588 c 0
 678 570 678 570 652 570 c 0
 629 570 629 570 611 589 c 0
 594 607 594 607 594 632 c 0
 594 653 594 653 612 673 c 0
 631 693 631 693 652 693 c 0x28c0
763 428 m 0
 787 428 787 428 804 410 c 0
 821 392 821 392 821 366 c 0
 821 340 821 340 805 323 c 0
 789 306 789 306 763 306 c 0
 738 306 738 306 721 324 c 0
 703 341 703 341 703 366 c 0x20a0
 703 389 703 389 721 408 c 0
 740 428 740 428 763 428 c 0
EndSplineSet
Validated: 1
Layer: 2
SplineSet
57.5 425.5 m 128,-1,1
 63 428 63 428 81.5 428 c 128,-1,2
 100 428 100 428 107.5 425.5 c 128,-1,3
 115 423 115 423 126.5 410 c 128,-1,4
 138 397 138 397 138 384 c 2,5,-1
 138 366 l 2,6,7
 138 346 138 346 136 341 c 128,-1,8
 134 336 134 336 122 323 c 128,-1,9
 110 310 110 310 105 308 c 128,-1,10
 100 306 100 306 80 306 c 128,-1,11
 60 306 60 306 55 308 c 128,-1,12
 50 310 50 310 37 323.5 c 128,-1,13
 24 337 24 337 22 342 c 128,-1,14
 20 347 20 347 20 366 c 128,-1,15
 20 385 20 385 22.5 390 c 128,-1,16
 25 395 25 395 38.5 409 c 128,-1,0
 52 423 52 423 57.5 425.5 c 128,-1,1
163.5 192.5 m 128,-1,18
 169 195 169 195 187.5 195 c 128,-1,19
 206 195 206 195 211 193 c 128,-1,20
 216 191 216 191 228.5 178 c 128,-1,21
 241 165 241 165 243 159.5 c 128,-1,22
 245 154 245 154 245 134.5 c 128,-1,23
 245 115 245 115 243 110 c 128,-1,24
 241 105 241 105 228 91.5 c 128,-1,25
 215 78 215 78 209.5 76 c 128,-1,26
 204 74 204 74 185.5 74 c 128,-1,27
 167 74 167 74 161.5 76 c 128,-1,28
 156 78 156 78 143 91.5 c 128,-1,29
 130 105 130 105 128 110 c 128,-1,30
 126 115 126 115 126 133 c 128,-1,31
 126 151 126 151 128.5 156.5 c 128,-1,32
 131 162 131 162 144 176 c 0,33,17
 158 190 158 190 163.5 192.5 c 128,-1,18
245 635 m 1,34,-1
 245 623 l 2,35,36
 245 604 245 604 243 598 c 128,-1,37
 241 592 241 592 228.5 579 c 128,-1,38
 216 566 216 566 211 563.5 c 128,-1,39
 206 561 206 561 186.5 561 c 128,-1,40
 167 561 167 561 162 563.5 c 128,-1,41
 157 566 157 566 143 580 c 0,42,43
 130 594 130 594 128 599 c 128,-1,44
 126 604 126 604 126 621 c 128,-1,45
 126 638 126 638 128 642 c 128,-1,46
 130 646 130 646 145 663 c 128,-1,47
 160 680 160 680 165 682 c 128,-1,48
 170 684 170 684 181 684 c 0,49,50
 188 684 188 684 196 684 c 0,51,52
 201 684 201 684 204 683 c 0,53,54
 206 682 206 682 209.5 679 c 128,-1,55
 213 676 213 676 214.5 675 c 128,-1,56
 216 674 216 674 223 667 c 2,57,-1
 236 654 l 2,58,59
 241 649 241 649 241.5 647.5 c 128,-1,60
 242 646 242 646 243 645 c 128,-1,61
 244 644 244 644 244 642 c 2,62,-1
 245 635 l 1,34,-1
399 99.5 m 128,-1,64
 404 102 404 102 422.5 102 c 128,-1,65
 441 102 441 102 446.5 99.5 c 128,-1,66
 452 97 452 97 463.5 84 c 128,-1,67
 475 71 475 71 477 65.5 c 128,-1,68
 479 60 479 60 479 41 c 128,-1,69
 479 22 479 22 477 18 c 128,-1,70
 475 14 475 14 462.5 0 c 128,-1,71
 450 -14 450 -14 444.5 -16.5 c 128,-1,72
 439 -19 439 -19 421.5 -19 c 128,-1,73
 404 -19 404 -19 398.5 -16.5 c 128,-1,74
 393 -14 393 -14 379 0 c 0,75,76
 366 14 366 14 364 18 c 128,-1,77
 362 22 362 22 362 39.5 c 128,-1,78
 362 57 362 57 364.5 62.5 c 128,-1,79
 367 68 367 68 380 83 c 1,80,63
 394 97 394 97 399 99.5 c 128,-1,64
400 780.5 m 128,-1,82
 405 783 405 783 422.5 783 c 128,-1,83
 440 783 440 783 445 781 c 128,-1,84
 450 779 450 779 462.5 766 c 128,-1,85
 475 753 475 753 477 747.5 c 128,-1,86
 479 742 479 742 479 723 c 128,-1,87
 479 704 479 704 477 698 c 128,-1,88
 475 692 475 692 464 678 c 0,89,90
 451 663 451 663 446 662 c 128,-1,91
 441 661 441 661 422 661 c 128,-1,92
 403 661 403 661 398 662 c 0,93,94
 392 664 392 664 379 679 c 128,-1,95
 366 694 366 694 364 699.5 c 128,-1,96
 362 705 362 705 362 722 c 128,-1,97
 362 739 362 739 364.5 744 c 128,-1,98
 367 749 367 749 381 763.5 c 128,-1,81
 395 778 395 778 400 780.5 c 128,-1,82
631 192.5 m 128,-1,100
 636 195 636 195 654 195 c 128,-1,101
 672 195 672 195 677 193 c 128,-1,102
 682 191 682 191 695 177.5 c 128,-1,103
 708 164 708 164 710 159 c 128,-1,104
 712 154 712 154 712 134 c 128,-1,105
 712 114 712 114 710 108.5 c 128,-1,106
 708 103 708 103 695 90.5 c 128,-1,107
 682 78 682 78 677 76 c 128,-1,108
 672 74 672 74 653.5 74 c 128,-1,109
 635 74 635 74 629.5 76 c 128,-1,110
 624 78 624 78 611 91.5 c 128,-1,111
 598 105 598 105 596 110 c 128,-1,112
 594 115 594 115 594 133 c 128,-1,113
 594 151 594 151 596.5 156.5 c 128,-1,114
 599 162 599 162 612 176 c 0,115,99
 626 190 626 190 631 192.5 c 128,-1,100
631 690.5 m 128,-1,117
 636 693 636 693 654 693 c 128,-1,118
 672 693 672 693 677 691 c 128,-1,119
 682 689 682 689 695 675.5 c 128,-1,120
 708 662 708 662 710 657 c 128,-1,121
 712 652 712 652 712 632 c 128,-1,122
 712 612 712 612 710 606.5 c 128,-1,123
 708 601 708 601 695 587.5 c 128,-1,124
 682 574 682 574 677 572 c 128,-1,125
 672 570 672 570 653.5 570 c 128,-1,126
 635 570 635 570 630 572.5 c 128,-1,127
 625 575 625 575 611 589 c 0,128,129
 598 603 598 603 596 608 c 128,-1,130
 594 613 594 613 594 630.5 c 128,-1,131
 594 648 594 648 596 653 c 128,-1,132
 598 658 598 658 612 673 c 128,-1,116
 626 688 626 688 631 690.5 c 128,-1,117
740.5 425.5 m 128,-1,134
 746 428 746 428 763.5 428 c 128,-1,135
 781 428 781 428 786 426 c 128,-1,136
 791 424 791 424 804 410 c 128,-1,137
 817 396 817 396 819 391 c 128,-1,138
 821 386 821 386 821 366 c 128,-1,139
 821 346 821 346 819 341 c 128,-1,140
 817 336 817 336 805 323 c 128,-1,141
 793 310 793 310 787.5 308 c 128,-1,142
 782 306 782 306 763 306 c 128,-1,143
 744 306 744 306 739 308 c 128,-1,144
 734 310 734 310 721 323.5 c 128,-1,145
 708 337 708 337 705.5 342 c 128,-1,146
 703 347 703 347 703 365 c 128,-1,147
 703 383 703 383 705 388.5 c 128,-1,148
 707 394 707 394 721 408.5 c 128,-1,133
 735 423 735 423 740.5 425.5 c 128,-1,134
EndSplineSet
Validated: 1
EndChar

StartChar: bracketleft
Encoding: 91 91 96
Width: 265
VWidth: 0
Flags: W
HStem: -107 37<115 202> 684 38<127 215.841> 684 31<207.75 220.98>
VStem: 0 102<-57 160.429> 7 99<138.857 278.286> 12 102<250.25 675>
LayerCount: 3
Fore
SplineSet
212 22 m 0xe0
 212 12 206 10 194 8 c 1
 97 8 l 2
 86 8 77 12 69 12 c 0
 59 12 49 19 49 27 c 0
 48 29 48 32 48 34 c 0
 48 39 49 47 49 57 c 2
 49 125 l 2xe0
 49 156 54 197 54 252 c 0
 54 335 58 404 58 460 c 2
 58 668 l 2
 58 675 58 679 58 683 c 0
 58 695 60 699 73 702 c 0
 80 704 90 706 100 706 c 1
 110 708 122 708 134 708 c 0
 146 708 158 708 169 708 c 0
 179 708 189 708 197 708 c 1
 212 705 219 705 219 691 c 0
 219 677 215 676 200 676 c 2
 154 676 l 2
 139 676 137 672 137 657 c 0
 137 653 137 648 137 642 c 0
 137 626 136 604 136 577 c 2
 136 494 l 1xd0
 136 409 l 2
 136 364 130 319 130 277 c 0
 130 234 127 196 127 163 c 2
 127 80 l 2
 127 49 128 39 148 39 c 0
 155 38 163 39 171 39 c 2
 193 39 l 2
 208 39 212 35 212 22 c 0xe0
EndSplineSet
Validated: 1
Layer: 2
SplineSet
213 -90 m 1,0,1
 213 -105 213 -105 189 -107 c 1,2,3
 63 -107 l 1,4,-1
 27 -102 l 1,5,6
 14 -102 14 -102 7 -95 c 128,-1,7
 0 -88 0 -88 -0.5 -85 c 128,-1,8
 -1 -82 -1 -82 -1 -76 c 2,9,-1
 0 -49 l 1,10,-1
 0 31 l 1,11,-1
 7 182 l 1,12,-1
 12 428 l 1,13,-1
 12 674 l 2,14,15
 12 705 12 705 14 708.5 c 128,-1,16
 16 712 16 712 33 715.5 c 128,-1,17
 50 719 50 719 67 719 c 1,18,19
 80 721 80 721 111 721 c 2,20,-1
 156 722 l 1,21,-1
 193 721 l 1,22,23
 211 718 211 718 216 715 c 128,-1,24
 221 712 221 712 221 700.5 c 128,-1,25
 221 689 221 689 213 684 c 1,26,-1
 137 684 l 2,27,28
 127 684 127 684 118 678 c 0,29,30
 115 675 115 675 115 644 c 2,31,-1
 114 567 l 1,32,-1
 114 468 l 1,33,-1
 113 368 l 1,34,-1
 106 211 l 1,35,-1
 102 76 l 1,36,-1
 102 -22 l 2,37,38
 102 -57 102 -57 108.5 -63.5 c 128,-1,39
 115 -70 115 -70 136 -70 c 2,40,41
 179 -70 l 2,42,43
 202 -70 202 -70 207 -74 c 128,-1,44
 212 -78 212 -78 213 -90 c 1,0,1
EndSplineSet
Validated: 1
EndChar

StartChar: bracketright
Encoding: 93 93 97
Width: 265
VWidth: 0
Flags: W
HStem: -107 37<32 132> 684 37<51.343 146>
VStem: 150 98<-57 512> 158 103<482.667 675>
LayerCount: 3
Fore
SplineSet
48 23 m 1xd0
 48 35 51 39 67 39 c 2
 111 39 l 2
 132 39 132 49 132 79 c 2
 132 162 l 2xd0
 132 197 128 234 128 276 c 0
 128 319 123 364 123 410 c 2
 123 642 l 2
 123 646 123 650 123 653 c 0
 123 671 122 676 106 676 c 2
 60 676 l 2
 44 676 40 678 40 690 c 0
 40 706 48 704 62 708 c 1
 125 708 l 2
 137 708 150 708 158 706 c 1
 169 706 180 704 187 702 c 0
 201 699 202 696 202 679 c 0
 202 676 202 672 202 667 c 2
 202 459 l 2xe0
 202 405 206 334 206 252 c 0
 206 197 211 157 211 125 c 2
 211 28 l 2
 211 19 201 12 190 12 c 0
 183 12 172 9 162 9 c 2
 65 9 l 2
 53 9 48 12 48 23 c 1xd0
EndSplineSet
Validated: 1
Layer: 2
SplineSet
32 -92 m 0,0,1
 32 -70 32 -70 60 -70 c 2,2,-1
 110 -70 l 2,3,4
 132 -70 132 -70 138.5 -63.5 c 128,-1,5
 145 -57 145 -57 145 -22 c 1,6,-1
 150 76 l 1,7,-1
 150 368 l 1,8,-1
 151 468 l 1,9,-1
 158 644 l 1,10,11
 158 675 158 675 155 678 c 0,12,13
 146 684 146 684 137 684 c 2,14,-1
 59 684 l 1,15,16
 51 689 51 689 51 701 c 1,17,18
 53 713 53 713 60 717 c 1,19,20
 66 717 66 717 82 721 c 1,21,-1
 119 722 l 1,22,-1
 163 721 l 2,23,24
 194 721 194 721 207 719 c 1,25,26
 224 719 224 719 240.5 716 c 128,-1,27
 257 713 257 713 258 709 c 1,28,29
 261 705 261 705 261 674 c 1,30,-1
 252 428 l 1,31,-1
 248 182 l 1,32,-1
 248 -84 l 1,33,-1
 239 -95 l 2,34,35
 232 -102 232 -102 219 -102 c 1,36,-1
 182 -107 l 1,37,-1
 56 -107 l 1,38,39
 32 -105 32 -105 32 -92 c 0,0,1
EndSplineSet
Validated: 1
EndChar

StartChar: less
Encoding: 60 60 98
Width: 739
VWidth: 1760
Flags: W
VStem: 28 88<176 330>
DStem2: 28 286 116 253 0.91098 0.412451<66.5553 527.945> 116 253 28 220 0.91098 -0.412451<0 461.39>
LayerCount: 3
Fore
SplineSet
712.8 0 m 1
 25.499 311.182 l 1
 25.499 400.476 l 1
 712.8 711.656 l 1
 712.8 647.682 l 1
 88.2373 355.828 l 1
 712.8 63.9717 l 1
 712.8 0 l 1
EndSplineSet
Validated: 1
Layer: 2
SplineSet
536 -10 m 1,0,-1
 28 220 l 1,1,-1
 28 286 l 1,2,-1
 536 516 l 1,3,-1
 536 444 l 1,4,-1
 116 253 l 1,5,-1
 536 62 l 1,6,-1
 536 -10 l 1,0,-1
EndSplineSet
Validated: 1
EndChar

StartChar: greater
Encoding: 62 62 99
Width: 739
VWidth: 1760
Flags: W
VStem: 448 88<176 330>
DStem2: 448 253 536 286 0.91098 -0.412451<-461.39 0> 536 220 448 253 0.91098 0.412451<-527.945 -66.5553>
LayerCount: 3
Fore
SplineSet
28.1602 0 m 1
 28.1602 63.3604 l 1
 652.96 355.52 l 1
 28.1602 647.68 l 1
 28.1602 711.04 l 1
 716.32 401.28 l 1
 716.32 311.52 l 1
 28.1602 0 l 1
EndSplineSet
Validated: 1
Layer: 2
Refer: 98 60 N -1 0 0 -1 564 506 2
Validated: 1
EndChar

StartChar: question
Encoding: 63 63 100
Width: 436
VWidth: 1760
Flags: W
HStem: -8 107<199.471 274.498> 646 30<156.483 266.55>
VStem: 68 51<500 606.319> 184 107<6.9552 81.9829> 227 17<164 202.131> 322 92<437.158 586.879>
LayerCount: 3
Fore
SplineSet
206.918 718.881 m 0xec
 304.571 718.881 392.156 657.863 392.156 555.816 c 0
 392.156 475.863 342.827 413.792 286.45 342.255 c 0
 249.202 292.81 232.086 250.729 221.014 180.245 c 1
 203.899 180.245 l 1
 205.941 274.09 229.313 318.197 262.287 396.961 c 0
 286.45 454.821 299.536 512.683 299.536 561.077 c 0
 299.536 631.563 251.216 687.318 190.812 687.318 c 0
 141.482 687.318 95.1738 655.76 95.1738 622.093 c 0
 95.1738 600.002 133.429 576.857 133.429 544.243 c 0
 133.429 518.996 116.314 501.112 92.1543 501.112 c 0
 60.9453 501.112 43.832 524.257 43.832 566.338 c 0
 43.832 653.655 114.301 718.881 206.918 718.881 c 0xec
213.965 111.861 m 0
 243.161 111.861 268.33 85.5615 268.33 54.001 c 0
 268.33 22.4404 245.175 -0.705078 212.96 -0.705078 c 0
 182.759 -0.705078 160.61 22.4404 160.61 52.9482 c 0xf4
 160.61 86.6133 183.764 111.861 213.965 111.861 c 0
EndSplineSet
Validated: 1
Layer: 2
SplineSet
114.5 634.5 m 128,-1,1
 161 676 161 676 233.5 676 c 128,-1,2
 306 676 306 676 360 633.5 c 128,-1,3
 414 591 414 591 414 521 c 0,4,5
 414 485 414 485 397 447.5 c 128,-1,6
 380 410 380 410 363 386.5 c 128,-1,7
 346 363 346 363 309 318 c 1,8,9
 259 254 259 254 244 164 c 1,10,-1
 227 164 l 1,11,12
 227 202 227 202 232.5 225.5 c 128,-1,13
 238 249 238 249 240 258 c 128,-1,14
 242 267 242 267 249.5 286.5 c 128,-1,15
 257 306 257 306 259 311.5 c 128,-1,16
 261 317 261 317 272 340 c 0,17,18
 322 447 322 447 322 526 c 0,19,20
 322 576 322 576 290.5 611 c 128,-1,21
 259 646 259 646 218 646 c 128,-1,22
 177 646 177 646 148 627 c 128,-1,23
 119 608 119 608 119 584 c 0,24,25
 119 575 119 575 138 551 c 128,-1,26
 157 527 157 527 157 509.5 c 128,-1,27
 157 492 157 492 145.5 480.5 c 128,-1,28
 134 469 134 469 116 469 c 0,29,30
 68 469 68 469 68 531 c 128,-1,0
 68 593 68 593 114.5 634.5 c 128,-1,1
199 83 m 128,-1,32
 214 99 214 99 236.5 99 c 128,-1,33
 259 99 259 99 275 82.5 c 128,-1,34
 291 66 291 66 291 43.5 c 128,-1,35
 291 21 291 21 275.5 6.5 c 128,-1,36
 260 -8 260 -8 237 -8 c 128,-1,37
 214 -8 214 -8 199 6.5 c 128,-1,38
 184 21 184 21 184 44 c 128,-1,31
 184 67 184 67 199 83 c 128,-1,32
EndSplineSet
Validated: 1
EndChar

StartChar: uniEE55
Encoding: 61013 61013 105
Width: 0
VWidth: 0
GlyphClass: 4
Flags: W
HStem: 215 67<-289.534 -171.899>
VStem: -155 85<308.379 384.591>
AnchorPoint: "Podchashie" -243.76 395.12 mark 0
LayerCount: 3
Fore
SplineSet
-110.88 397.76 m 27
 -88 397.76 -70.4004 380.16 -70.4004 353.76 c 0
 -70.4004 313.28 -72.1602 292.16 -100.32 260.48 c 8
 -133.76 223.52 -170.72 214.72 -221.76 214.72 c 19
 -302.72 214.72 -348.48 244.64 -388.96 288.64 c 8
 -411.84 313.28 -427.68 336.16 -427.68 362.56 c 0
 -427.68 380.16 -406.56 392.48 -387.2 392.48 c 0
 -380.16 392.48 -373.12 390.72 -367.84 387.2 c 8
 -334.4 366.08 -332.64 334.4 -300.96 311.52 c 24
 -276.32 292.16 -258.72 281.6 -227.04 281.6 c 27
 -202.4 281.6 -183.04 288.64 -167.2 308 c 24
 -147.84 332.64 -161.92 359.04 -144.32 385.44 c 24
 -137.28 397.76 -124.96 397.76 -110.88 397.76 c 27
EndSplineSet
Validated: 1
Layer: 2
SplineSet
-115 398 m 27,0,1
 -70 398 -70 398 -70 347 c 0,2,3
 -70 324 -70 324 -76 301 c 0,4,5
 -82 279 -82 279 -102 258 c 0,6,7
 -126 233 -126 233 -152 224 c 128,-1,8
 -178 215 -178 215 -230 215 c 0,9,10
 -319 215 -319 215 -389 289 c 0,11,12
 -428 330 -428 330 -428 363 c 0,13,14
 -428 375 -428 375 -415 384 c 0,15,16
 -403 392 -403 392 -389 392 c 128,-1,17
 -375 392 -375 392 -363 384 c 0,18,19
 -353 377 -353 377 -334 349 c 0,20,21
 -317 323 -317 323 -298 309 c 0,22,23
 -262 282 -262 282 -226 282 c 0,24,25
 -193 282 -193 282 -167 308 c 0,26,27
 -155 320 -155 320 -155 347 c 0,28,29
 -155 372 -155 372 -146 385 c 128,-1,30
 -137 398 -137 398 -115 398 c 27,0,1
EndSplineSet
Validated: 1
Colour: ffff00
EndChar

StartChar: uniEE99
Encoding: 61081 61081 106
Width: 445
VWidth: 0
GlyphClass: 2
Flags: W
HStem: 137 64<77.1599 121.863> 199 64<274.19 317.863>
VStem: 123 105<95.159 136.899> 319 105<157.366 198.639>
LayerCount: 3
Fore
SplineSet
334 101 m 4x60
 314 101 288 114 288 145 c 4
 288 156 301 158 315 172 c 4
 318 175 319 178 319 181 c 4
 319 190 308 199 298 199 c 4
 296 198 283 190 272 190 c 4
 270 190 268 190 266 191 c 12
 243 198 236 214 216 230 c 21
 216 232 l 6
 216 254 253 263 289 263 c 4
 359 263 419 221 424 166 c 5
 424 129 370 101 334 101 c 4x60
138 39 m 4
 118 39 92 51 92 82 c 4
 92 93 105 95 119 109 c 4
 122 112 123 115 123 118 c 4
 123 127 112 137 102 137 c 4
 100 136 87 127 76 127 c 4
 74 127 72 127 70 128 c 12
 47 136 40 151 20 167 c 21
 20 169 l 6
 20 192 57 201 93 201 c 4xa0
 163 201 223 158 228 104 c 5
 228 67 174 39 138 39 c 4
EndSplineSet
Validated: 1
Layer: 2
SplineSet
394 120.5 m 128,-1,1
 364 101 364 101 340.5 101 c 128,-1,2
 317 101 317 101 302.5 112.5 c 128,-1,3
 288 124 288 124 288 145 c 0,4,5
 288 152 288 152 304 162 c 0,6,7
 319 173 319 173 319 180.5 c 128,-1,8
 319 188 319 188 312.5 193.5 c 128,-1,9
 306 199 306 199 298 199 c 1,10,11
 280 190 280 190 274 190 c 128,-1,12
 268 190 268 190 262 192 c 128,-1,13
 256 194 256 194 248.5 200 c 128,-1,14
 241 206 241 206 232 215 c 128,-1,15
 223 224 223 224 216 230 c 1,16,-1
 216 232 l 2,17,18
 216 247 216 247 237.5 255 c 128,-1,19
 259 263 259 263 289 263 c 0,20,21
 342 263 342 263 383 235 c 128,-1,22
 424 207 424 207 424 166 c 1,23,0
 424 140 424 140 394 120.5 c 128,-1,1
198 58.5 m 128,-1,25
 168 39 168 39 144 39 c 128,-1,26
 120 39 120 39 106 50 c 128,-1,27
 92 61 92 61 92 82 c 0,28,29
 92 89 92 89 108 100 c 0,30,31
 123 110 123 110 123 117.5 c 128,-1,32
 123 125 123 125 116 131 c 128,-1,33
 109 137 109 137 102 137 c 1,34,35
 82 127 82 127 77 127 c 128,-1,36
 72 127 72 127 66 129.5 c 128,-1,37
 60 132 60 132 52.5 137.5 c 128,-1,38
 45 143 45 143 36 152.5 c 128,-1,39
 27 162 27 162 20 167 c 1,40,-1
 20 169 l 2,41,42
 20 201 20 201 93 201 c 0,43,44
 146 201 146 201 187 172.5 c 128,-1,45
 228 144 228 144 228 104 c 1,46,24
 228 78 228 78 198 58.5 c 128,-1,25
EndSplineSet
Validated: 1
Colour: ffff00
EndChar

StartChar: uniEEB9
Encoding: 61113 61113 107
Width: 511
VWidth: 0
Flags: W
HStem: 21 21G<132 156> 120 63<76.1909 121.863> 154 99<363.088 427.612>
VStem: 122 106<76.4585 119.944>
LayerCount: 3
Fore
SplineSet
337 223 m 9xa8
 383 234 406 253 455 253 c 0
 474 253 490 246 490 218 c 0
 490 193 386 154 318 154 c 0
 290 154 269 162 262 177 c 1
 247 216 232 258 226 302 c 1
 254 320 283 325 295 325 c 0
 328 325 321 285 337 223 c 9xa8
138 21 m 0
 118 21 92 33 92 64 c 0
 92 75 105 77 117 91 c 0
 121 95 122 98 122 101 c 0
 122 109 111 120 102 120 c 0
 99 119 85 109 73 109 c 0
 71 109 70 109 68 110 c 0
 45 119 40 135 20 151 c 1
 20 153 l 2
 20 174 57 183 93 183 c 0
 163 183 228 140 228 86 c 1xd0
 228 49 174 21 138 21 c 0
EndSplineSet
Validated: 1
Layer: 2
SplineSet
337 223 m 9,0,1
 346 225 346 225 386 239 c 128,-1,2
 426 253 426 253 455 253 c 0,3,4
 490 253 490 253 490 218 c 0,5,6
 490 199 490 199 429.5 176.5 c 128,-1,7
 369 154 369 154 321 154 c 128,-1,8
 273 154 273 154 262 177 c 1,9,10
 233 253 233 253 226 302 c 1,11,12
 262 325 262 325 295 325 c 0,13,14
 319 325 319 325 324.5 288 c 128,-1,15
 330 251 330 251 337 223 c 9,0,1
102 120 m 1,16,17
 82 109 82 109 76 109 c 128,-1,18
 70 109 70 109 62.5 112 c 128,-1,19
 55 115 55 115 40 131 c 128,-1,20
 25 147 25 147 20 151 c 1,21,-1
 20 153 l 2,22,23
 20 168 20 168 41.5 175.5 c 128,-1,24
 63 183 63 183 93 183 c 0,25,26
 146 183 146 183 187 154.5 c 128,-1,27
 228 126 228 126 228 86 c 0,28,29
 228 60 228 60 198 40.5 c 128,-1,30
 168 21 168 21 144 21 c 128,-1,31
 120 21 120 21 106 32 c 128,-1,32
 92 43 92 43 92 64 c 0,33,34
 92 71 92 71 107 82 c 0,35,36
 122 94 122 94 122 100.5 c 128,-1,37
 122 107 122 107 115.5 113.5 c 128,-1,38
 109 120 109 120 102 120 c 1,16,17
EndSplineSet
Validated: 1
Colour: ffff00
EndChar

StartChar: uniEEAE
Encoding: 61102 61102 108
Width: 653
VWidth: 0
Flags: W
HStem: 21 21G<257 289> 58 41<390.512 515.039> 116 38<228 286.305> 126 64<594 629.949> 211 53<46.3494 214.823>
VStem: 20 341<137 221> 185 64<60.186 110.177>
LayerCount: 3
Fore
SplineSet
283.92 115.76 m 27xac
 264.56 115.76 248.72 103.44 248.72 84.0801 c 27
 248.72 66.4805 268.08 59.4404 285.68 59.4404 c 27
 299.76 59.4404 312.08 71.7598 312.08 85.8398 c 27
 312.08 101.68 299.76 115.76 283.92 115.76 c 27xac
136.08 263.6 m 2
 264.56 263.6 361.36 184.4 361.36 136.88 c 9
 394.8 121.04 412.4 98.1602 449.36 98.1602 c 16
 539.12 99.9199 562 189.68 609.52 189.68 c 2
 611.28 189.68 l 10
 625.36 189.68 632.4 175.6 632.4 161.52 c 27
 632.4 140.4 614.8 126.32 593.68 126.32 c 17
 593.68 73.5195 535.6 57.6797 474 57.6797 c 0x5c
 435.28 57.6797 394.8 62.96 368.4 70 c 9
 333.2 50.6396 317.36 20.7197 276.88 20.7197 c 27
 234.64 20.7197 185.36 38.3203 185.36 80.5596 c 27
 185.36 115.76 202.96 154.48 238.16 154.48 c 27
 257.52 154.48 268.08 152.72 287.44 150.96 c 25
 229.36 173.84 201.2 210.8 139.6 210.8 c 19
 111.44 210.8 72.7197 196.72 48.0801 196.72 c 0
 30.4805 196.72 19.9199 203.76 19.9199 221.36 c 3
 19.9199 260.08 63.9199 263.6 106.16 263.6 c 2
 136.08 263.6 l 2
EndSplineSet
Validated: 1
Layer: 2
SplineSet
304 107 m 128,-1,1
 296 116 296 116 282 116 c 155,-1,2
 268 116 268 116 259 107 c 0,3,4
 249 97 249 97 249 83 c 0,5,6
 249 61 249 61 278 59 c 0,7,8
 294 58 294 58 303 67 c 0,9,10
 312 75 312 75 312 86.5 c 128,-1,0
 312 98 312 98 304 107 c 128,-1,1
611 190 m 2,11,12
 632 190 632 190 632 157 c 0,13,14
 632 146 632 146 621 136 c 128,-1,15
 610 126 610 126 594 126 c 1,16,17
 594 58 594 58 474 58 c 0,18,19
 415 58 415 58 368 70 c 1,20,21
 353 61 353 61 340 50 c 0,22,23
 305 21 305 21 273 21 c 128,-1,24
 241 21 241 21 213 36 c 128,-1,25
 185 51 185 51 185 80.5 c 128,-1,26
 185 110 185 110 199 132 c 128,-1,27
 213 154 213 154 243 154 c 0,28,29
 254 154 254 154 287 151 c 1,30,31
 272 157 272 157 246 172 c 0,32,33
 180 211 180 211 152 211 c 0,34,35
 125 211 125 211 91 204 c 128,-1,36
 57 197 57 197 46 197 c 0,37,38
 20 197 20 197 20 221 c 0,39,40
 20 248 20 248 45 256 c 128,-1,41
 70 264 70 264 106 264 c 2,42,-1
 136 264 l 2,43,44
 225 264 225 264 293 220.5 c 128,-1,45
 361 177 361 177 361 137 c 1,46,47
 367 134 367 134 394.5 116.5 c 128,-1,48
 422 99 422 99 452 99 c 0,49,50
 504 99 504 99 544.5 144.5 c 128,-1,51
 585 190 585 190 610 190 c 2,52,-1
 611 190 l 2,11,12
EndSplineSet
Validated: 1
Colour: ffff00
EndChar

StartChar: uniEEAF
Encoding: 61103 61103 109
Width: 797
VWidth: 0
Flags: W
HStem: 83 46.5<266.064 298.25> 95 46<21.8789 87.3799> 118 39<393.93 455.07> 155 41<537.088 659.468> 199 50<393.25 432> 224 63<738 765.14> 309 52<192.38 359.391>
VStem: 164 342<235 319.5> 330 63<158.637 198.91>
DStem2: 30 141 124 124 0.934572 0.355774<0.0349998 199.385> 104 62 130.5 19.5 0.922459 0.386096<-2.92158 194.802>
LayerCount: 3
Fore
SplineSet
466 195 m 19x56
 451 195 431 199 416 199 c 0
 403 199 393 196 393 182 c 11
 393 164 413 157 430 157 c 27
 445 157 456 169 456 184 c 27
 456 190 472 195 466 195 c 19x56
280 361 m 2
 409 361 506 282 506 235 c 9
 539 219 557 196 594 196 c 16
 683 196 706 287 754 287 c 2
 756 287 l 10
 770 287 777 273 777 259 c 27
 777 238 759 224 738 224 c 17
 738 171 680 155 618 155 c 0x2e
 580 155 539 161 513 168 c 9
 477 148 462 118 421 118 c 27
 379 118 330 136 330 178 c 27
 330 213 347 252 382 252 c 27
 402 252 412 249 432 249 c 25
 374 272 345 309 284 309 c 19
 256 309 217 294 192 294 c 0
 175 294 164 301 164 319 c 3
 164 358 208 361 250 361 c 2
 280 361 l 2
104 62 m 1
 185 95 195 100 266 129 c 1
 269 129 273 130 274 130 c 0
 288 130 299 115 299 102 c 0
 299 95 295 88 287 83 c 1
 220 56 192 44 128 19 c 0
 127 18 123 18 121 18 c 0
 107 18 93 35 93 48 c 0
 93 55 95 60 104 62 c 1
206 208 m 1
 219 208 229 190 229 183 c 0
 229 174 223 166 215 162 c 0
 149 136 121 122 56 97 c 0
 54 97 51 95 47 95 c 0
 33 95 21 109 21 125 c 0
 21 132 24 137 30 141 c 1x86
 91 164 156 190 206 208 c 1
EndSplineSet
Validated: 1
Layer: 2
SplineSet
466 195 m 17,0,1
 416 199 l 1,2,3
 393 199 393 199 393 182 c 0,4,5
 393 157 393 157 430 157 c 0,6,7
 441 157 441 157 448.5 165 c 128,-1,8
 456 173 456 173 456 181 c 128,-1,9
 456 189 456 189 466 195 c 17,0,1
484 147 m 1,10,11
 455 118 455 118 421 118 c 128,-1,12
 387 118 387 118 358.5 133.5 c 128,-1,13
 330 149 330 149 330 178 c 128,-1,14
 330 207 330 207 343.5 229.5 c 128,-1,15
 357 252 357 252 382 252 c 0,16,17
 392 252 392 252 407 250.5 c 128,-1,18
 422 249 422 249 432 249 c 1,19,20
 411 257 411 257 384 274 c 0,21,22
 326 309 326 309 284 309 c 0,23,24
 270 309 270 309 237 301.5 c 128,-1,25
 204 294 204 294 192 294 c 0,26,27
 164 294 164 294 164 319.5 c 128,-1,28
 164 345 164 345 187 353 c 128,-1,29
 210 361 210 361 250 361 c 2,30,-1
 280 361 l 2,31,32
 370 361 370 361 438 318 c 128,-1,33
 506 275 506 275 506 235 c 1,34,35
 517 230 517 230 541 213 c 0,36,37
 566 196 566 196 595 196 c 128,-1,38
 624 196 624 196 649.5 210 c 128,-1,39
 675 224 675 224 690 242 c 0,40,41
 727 287 727 287 754 287 c 2,42,-1
 756 287 l 2,43,44
 777 287 777 287 777 259 c 0,45,46
 777 244 777 244 765.5 234 c 128,-1,47
 754 224 754 224 738 224 c 1,48,49
 738 155 738 155 618 155 c 0,50,51
 561 155 561 155 513 168 c 1,52,53
 501 161 501 161 484 147 c 1,10,11
266 129 m 0,54,55
 268 129 268 129 276 129.5 c 128,-1,56
 284 130 284 130 291.5 121 c 128,-1,57
 299 112 299 112 299 101 c 128,-1,58
 299 90 299 90 287 83 c 1,59,60
 134 21 134 21 130.5 19.5 c 128,-1,61
 127 18 127 18 119 18 c 128,-1,62
 111 18 111 18 102 28 c 128,-1,63
 93 38 93 38 93 49 c 128,-1,64
 93 60 93 60 104 62 c 1,65,66
 164 86 164 86 266 129 c 0,54,55
215 162 m 1,67,68
 185 150 185 150 124 124 c 128,-1,69
 63 98 63 98 47 95 c 1,70,71
 37 95 37 95 29 104 c 128,-1,72
 21 113 21 113 21 124 c 128,-1,73
 21 135 21 135 30 141 c 1,74,75
 50 148 50 148 113.5 173 c 128,-1,76
 177 198 177 198 206 208 c 1,77,78
 215 208 215 208 222 198.5 c 128,-1,79
 229 189 229 189 229 179 c 128,-1,80
 229 169 229 169 215 162 c 1,67,68
EndSplineSet
Validated: 1
Colour: ffff00
EndChar

StartChar: uniEEB2
Encoding: 61106 61106 110
Width: 1551
VWidth: 0
Flags: W
HStem: 20 21G<112.5 131.5> 101 52<88 103.197> 147 52<284 299.834>
VStem: 104 87<62.6667 100.98> 301 87<108.06 146.961>
DStem2: 545 192 656.5 153.5 0.959129 0.28297<-3.23871 985.794>
AnchorPoint: "Right" 1588.91 455.52 basechar 0
AnchorPoint: "Tonal" 858.964 368.607 basechar 0
AnchorPoint: "Podchashie" 733.56 3.2002 basechar 0
LayerCount: 3
Fore
SplineSet
314 65 m 0xb8
 296 65 276 76 276 101 c 0xd8
 276 109 286 111 298 124 c 0
 300 126 301 128 301 131 c 0
 301 138 292 147 284 147 c 0
 276 147 269 138 261 138 c 0
 260 138 259 138 257 139 c 8
 238 146 233 159 217 171 c 17
 217 173 l 2
 217 192 247 199 277 199 c 0
 333 199 382 164 388 120 c 1
 388 88 342 65 314 65 c 0xb8
117 20 m 0
 101 20 79 31 79 55 c 0
 79 64 89 66 101 78 c 0
 103 80 104 83 104 86 c 0
 104 93 97 101 88 101 c 0
 80 101 73 93 66 93 c 0
 64 93 63 93 61 94 c 8
 42 101 36 113 20 125 c 17
 20 127 l 2
 20 146 50 153 80 153 c 0
 137 153 186 118 191 74 c 1
 191 43 145 20 117 20 c 0
401 257 m 1
 420 262 440 267 457 267 c 0
 484 267 514 251 528 228 c 0
 536 213 538 206 545 192 c 25
 897 295 1149 376 1450 459 c 1
 1467 466 1482 468 1494 468 c 0
 1520 468 1531 453 1531 437 c 0
 1531 436 1531 434 1531 433 c 0
 1531 406 1341 352 1311 345 c 1
 1108 281 952 243 579 130 c 0
 563 125 554 119 536 119 c 27
 461 119 415 243 401 257 c 1
EndSplineSet
Validated: 1
Layer: 2
SplineSet
284 147 m 1,0,-1
 261 138 l 1,1,2
 251 138 251 138 236 153 c 128,-1,3
 221 168 221 168 217 171 c 1,4,-1
 217 173 l 2,5,6
 217 199 217 199 277 199 c 0,7,8
 319 199 319 199 351 176 c 128,-1,9
 383 153 383 153 388 120 c 1,10,11
 388 98 388 98 363 81.5 c 128,-1,12
 338 65 338 65 318.5 65 c 128,-1,13
 299 65 299 65 287.5 74.5 c 128,-1,14
 276 84 276 84 276 94.5 c 128,-1,15
 276 105 276 105 278.5 107.5 c 128,-1,16
 281 110 281 110 291 117.5 c 128,-1,17
 301 125 301 125 301 130.5 c 128,-1,18
 301 136 301 136 295.5 141.5 c 128,-1,19
 290 147 290 147 284 147 c 1,0,-1
88 101 m 1,20,-1
 66 93 l 1,21,22
 54 93 54 93 40 107 c 128,-1,23
 26 121 26 121 20 125 c 1,24,-1
 20 127 l 2,25,26
 20 153 20 153 71.5 153 c 128,-1,27
 123 153 123 153 155 130 c 128,-1,28
 187 107 187 107 191 74 c 1,29,30
 191 52 191 52 166 36 c 128,-1,31
 141 20 141 20 122 20 c 128,-1,32
 103 20 103 20 91 29 c 128,-1,33
 79 38 79 38 79 48.5 c 128,-1,34
 79 59 79 59 81.5 62 c 128,-1,35
 84 65 84 65 94 72 c 128,-1,36
 104 79 104 79 104 85.5 c 128,-1,37
 104 92 104 92 99 96.5 c 128,-1,38
 94 101 94 101 88 101 c 1,20,-1
401 257 m 1,39,40
 439 267 439 267 458 267 c 128,-1,41
 477 267 477 267 497.5 256 c 128,-1,42
 518 245 518 245 525 232.5 c 128,-1,43
 532 220 532 220 537 209 c 128,-1,44
 542 198 542 198 545 192 c 1,45,46
 650 223 650 223 963 317 c 128,-1,47
 1276 411 1276 411 1450 459 c 1,48,49
 1472 468 1472 468 1492 468 c 128,-1,50
 1512 468 1512 468 1521.5 459 c 128,-1,51
 1531 450 1531 450 1531 437 c 2,52,-1
 1531 433 l 2,53,54
 1531 416 1531 416 1445.5 386 c 128,-1,55
 1360 356 1360 356 1311 345 c 1,56,57
 1212 314 1212 314 990.5 251 c 128,-1,58
 769 188 769 188 656.5 153.5 c 128,-1,59
 544 119 544 119 536 119 c 0,60,61
 503 119 503 119 473.5 149 c 128,-1,62
 444 179 444 179 423 217.5 c 128,-1,63
 402 256 402 256 401 257 c 1,39,40
EndSplineSet
Validated: 1
Colour: ffff00
EndChar

StartChar: exclam
Encoding: 33 33 111
Width: 253
VWidth: 1760
Flags: W
HStem: -9 107<145.986 220.499>
VStem: 130 107<20 66 570 634>
LayerCount: 3
Fore
SplineSet
73.9199 591.36 m 0
 73.9199 626.56 93.2803 656.48 126.72 656.48 c 256
 161.92 656.48 179.52 624.8 179.52 586.08 c 0
 177.76 582.56 177.76 579.04 177.76 573.76 c 0
 177.76 568.48 177.76 563.2 177.76 556.16 c 2
 135.52 179.52 l 1
 117.92 179.52 l 1
 75.6797 556.16 l 2
 73.9199 572 73.9199 582.56 73.9199 591.36 c 0
73.9199 52.7998 m 0
 73.9199 79.2002 98.5596 102.08 126.72 102.08 c 256
 153.12 102.08 177.76 79.2002 177.76 52.7998 c 0
 177.76 24.6396 153.12 0 126.72 0 c 256
 98.5596 0 73.9199 24.6396 73.9199 52.7998 c 0
EndSplineSet
Validated: 1
Layer: 2
SplineSet
189 176 m 1,0,-1
 176 176 l 1,1,2
 163 332 163 332 146.5 451 c 128,-1,3
 130 570 130 570 130 602 c 128,-1,4
 130 634 130 634 144 655 c 128,-1,5
 158 676 158 676 183 676 c 0,6,7
 236 676 236 676 236 596 c 0,8,9
 236 568 236 568 230 526 c 0,10,11
 205 349 205 349 189 176 c 1,0,-1
183 98 m 128,-1,13
 205 98 205 98 221 82 c 128,-1,14
 237 66 237 66 237 43 c 128,-1,15
 237 20 237 20 221.5 5.5 c 128,-1,16
 206 -9 206 -9 183 -9 c 128,-1,17
 160 -9 160 -9 145 5.5 c 128,-1,18
 130 20 130 20 130 43 c 128,-1,19
 130 66 130 66 145.5 82 c 128,-1,12
 161 98 161 98 183 98 c 128,-1,13
EndSplineSet
Validated: 1
EndChar

